<svg width="16" height="15" viewBox="0 0 16 15" fill="none" xmlns="http://www.w3.org/2000/svg">
<path d="M8.07006 1.66406C6.8729 1.66406 5.70262 2.01906 4.70721 2.68417C3.71181 3.34928 2.93598 4.29463 2.47785 5.40066C2.01971 6.5067 1.89984 7.72375 2.1334 8.89791C2.36695 10.0721 2.94344 11.1506 3.78997 11.9971C4.63649 12.8437 5.71503 13.4201 6.88919 13.6537C8.06335 13.8873 9.2804 13.7674 10.3864 13.3092C11.4925 12.8511 12.4378 12.0753 13.1029 11.0799C13.768 10.0845 14.123 8.9142 14.123 7.71703C14.1213 6.11223 13.483 4.57367 12.3482 3.4389C11.2134 2.30414 9.67486 1.66584 8.07006 1.66406ZM8.07006 12.4249C7.13894 12.4249 6.22872 12.1488 5.45451 11.6315C4.68031 11.1142 4.07689 10.3789 3.72056 9.51865C3.36423 8.6584 3.271 7.71181 3.45266 6.79857C3.63431 5.88534 4.08269 5.04648 4.7411 4.38807C5.39951 3.72966 6.23837 3.28128 7.1516 3.09963C8.06484 2.91797 9.01144 3.0112 9.87169 3.36753C10.7319 3.72386 11.4672 4.32728 11.9845 5.10148C12.5018 5.87569 12.7779 6.78591 12.7779 7.71703C12.7766 8.96523 12.2802 10.1619 11.3976 11.0445C10.5149 11.9271 9.31826 12.4236 8.07006 12.4249ZM11.8812 7.71703C11.8812 7.8954 11.8103 8.06647 11.6842 8.1926C11.5581 8.31873 11.387 8.38959 11.2086 8.38959H8.07006C7.89169 8.38959 7.72062 8.31873 7.5945 8.1926C7.46837 8.06647 7.39751 7.8954 7.39751 7.71703V4.57846C7.39751 4.40008 7.46837 4.22902 7.5945 4.10289C7.72062 3.97676 7.89169 3.9059 8.07006 3.9059C8.24844 3.9059 8.4195 3.97676 8.54563 4.10289C8.67176 4.22902 8.74262 4.40008 8.74262 4.57846V7.04448H11.2086C11.387 7.04448 11.5581 7.11534 11.6842 7.24147C11.8103 7.36759 11.8812 7.53866 11.8812 7.71703Z" fill="white"/>
</svg>
