<svg width="32" height="32" viewBox="0 0 32 32" fill="none" xmlns="http://www.w3.org/2000/svg">
<path d="M13.5013 7.31525L14.3328 8.80525C15.0833 10.1499 14.782 11.9138 13.6001 13.0958C13.6001 13.0958 12.1666 14.5295 14.7658 17.1288C17.3641 19.7271 18.7988 18.2944 18.7988 18.2944C19.9807 17.1125 21.7446 16.8113 23.0893 17.5617L24.5792 18.3932C26.6098 19.5264 26.8495 22.3738 25.0648 24.1586C23.9924 25.231 22.6786 26.0655 21.2263 26.1205C18.7816 26.2132 14.6297 25.5945 10.4649 21.4297C6.30008 17.2648 5.68133 13.113 5.77402 10.6682C5.82908 9.21589 6.66353 7.90214 7.73595 6.82973C9.52066 5.04502 12.3681 5.28481 13.5013 7.31525Z" fill="white"/>
</svg>
