<svg width="31" height="31" viewBox="0 0 31 31" fill="none" xmlns="http://www.w3.org/2000/svg">
<path d="M15.6387 2.8457C12.9046 2.84893 10.2835 3.93646 8.35021 5.86973C6.41694 7.803 5.32941 10.4241 5.32618 13.1582C5.32291 15.3925 6.05273 17.5661 7.40368 19.3457C7.40368 19.3457 7.68493 19.716 7.73087 19.7695L15.6387 29.0957L23.5502 19.7648C23.5915 19.7151 23.8737 19.3457 23.8737 19.3457L23.8746 19.3429C25.2249 17.5641 25.9544 15.3914 25.9512 13.1582C25.948 10.4241 24.8604 7.803 22.9272 5.86973C20.9939 3.93646 18.3727 2.84893 15.6387 2.8457ZM15.6387 16.9082C14.897 16.9082 14.172 16.6883 13.5553 16.2762C12.9386 15.8642 12.458 15.2785 12.1741 14.5933C11.8903 13.908 11.816 13.154 11.9607 12.4266C12.1054 11.6992 12.4626 11.031 12.987 10.5066C13.5115 9.98211 14.1797 9.62495 14.9071 9.48026C15.6345 9.33556 16.3885 9.40983 17.0737 9.69365C17.759 9.97748 18.3446 10.4581 18.7567 11.0748C19.1687 11.6915 19.3887 12.4165 19.3887 13.1582C19.3874 14.1524 18.992 15.1055 18.289 15.8085C17.586 16.5115 16.6329 16.907 15.6387 16.9082Z" fill="white"/>
</svg>
