<svg width="49" height="48" viewBox="0 0 49 48" fill="none" xmlns="http://www.w3.org/2000/svg">
<circle cx="24.8418" cy="24.0059" r="23.4" fill="white" stroke="#C6A45A" stroke-width="1.2"/>
<path fill-rule="evenodd" clip-rule="evenodd" d="M19.3967 10.8858C20.8043 10.821 21.2531 10.8066 24.8387 10.8066C28.4243 10.8066 28.8731 10.8222 30.2795 10.8858C31.6859 10.9494 32.6459 11.1738 33.4859 11.499C34.3655 11.8314 35.1635 12.351 35.8235 13.023C36.4955 13.6818 37.0139 14.4786 37.3451 15.3594C37.6715 16.1994 37.8947 17.1594 37.9595 18.5634C38.0243 19.9734 38.0387 20.4222 38.0387 24.0066C38.0387 27.5922 38.0231 28.041 37.9595 29.4486C37.8959 30.8526 37.6715 31.8126 37.3451 32.6526C37.0139 33.5336 36.4946 34.3317 35.8235 34.9914C35.1635 35.6634 34.3655 36.1818 33.4859 36.513C32.6459 36.8394 31.6859 37.0626 30.2819 37.1274C28.8731 37.1922 28.4243 37.2066 24.8387 37.2066C21.2531 37.2066 20.8043 37.191 19.3967 37.1274C17.9927 37.0638 17.0327 36.8394 16.1927 36.513C15.3118 36.1818 14.5137 35.6625 13.8539 34.9914C13.1823 34.3322 12.6626 33.5345 12.3311 32.6538C12.0059 31.8138 11.7827 30.8538 11.7179 29.4498C11.6531 28.0398 11.6387 27.591 11.6387 24.0066C11.6387 20.421 11.6543 19.9722 11.7179 18.5658C11.7815 17.1594 12.0059 16.1994 12.3311 15.3594C12.6631 14.4787 13.1832 13.681 13.8551 13.0218C14.5139 12.3504 15.3112 11.8308 16.1915 11.499C17.0315 11.1738 17.9915 10.9506 19.3955 10.8858H19.3967ZM30.1727 13.2618C28.7807 13.1982 28.3631 13.185 24.8387 13.185C21.3143 13.185 20.8967 13.1982 19.5047 13.2618C18.2171 13.3206 17.5187 13.5354 17.0531 13.7166C16.4375 13.9566 15.9971 14.241 15.5351 14.703C15.0971 15.1291 14.7601 15.6478 14.5487 16.221C14.3675 16.6866 14.1527 17.385 14.0939 18.6726C14.0303 20.0646 14.0171 20.4822 14.0171 24.0066C14.0171 27.531 14.0303 27.9486 14.0939 29.3406C14.1527 30.6282 14.3675 31.3266 14.5487 31.7922C14.7599 32.3646 15.0971 32.8842 15.5351 33.3102C15.9611 33.7482 16.4807 34.0854 17.0531 34.2966C17.5187 34.4778 18.2171 34.6926 19.5047 34.7514C20.8967 34.815 21.3131 34.8282 24.8387 34.8282C28.3643 34.8282 28.7807 34.815 30.1727 34.7514C31.4603 34.6926 32.1587 34.4778 32.6243 34.2966C33.2399 34.0566 33.6803 33.7722 34.1423 33.3102C34.5803 32.8842 34.9175 32.3646 35.1287 31.7922C35.3099 31.3266 35.5247 30.6282 35.5835 29.3406C35.6471 27.9486 35.6603 27.531 35.6603 24.0066C35.6603 20.4822 35.6471 20.0646 35.5835 18.6726C35.5247 17.385 35.3099 16.6866 35.1287 16.221C34.8887 15.6054 34.6043 15.165 34.1423 14.703C33.7162 14.2651 33.1975 13.9281 32.6243 13.7166C32.1587 13.5354 31.4603 13.3206 30.1727 13.2618ZM23.1527 28.0758C24.0943 28.4678 25.1427 28.5207 26.119 28.2255C27.0952 27.9303 27.9387 27.3053 28.5054 26.4573C29.0721 25.6093 29.3267 24.5909 29.2259 23.576C29.1251 22.561 28.6751 21.6126 27.9527 20.8926C27.4922 20.4324 26.9353 20.08 26.3223 19.8608C25.7092 19.6416 25.0552 19.5611 24.4073 19.625C23.7593 19.6889 23.1337 19.8957 22.5752 20.2304C22.0168 20.5651 21.5396 21.0195 21.1778 21.5609C20.8161 22.1022 20.5789 22.717 20.4833 23.361C20.3877 24.005 20.4361 24.6622 20.6249 25.2853C20.8138 25.9083 21.1384 26.4818 21.5755 26.9643C22.0126 27.4468 22.5513 27.8265 23.1527 28.0758ZM20.0411 19.209C20.6711 18.579 21.4191 18.0792 22.2422 17.7383C23.0654 17.3973 23.9477 17.2218 24.8387 17.2218C25.7297 17.2218 26.6119 17.3973 27.4351 17.7383C28.2583 18.0792 29.0062 18.579 29.6363 19.209C30.2663 19.8391 30.7661 20.587 31.107 21.4102C31.448 22.2334 31.6235 23.1156 31.6235 24.0066C31.6235 24.8976 31.448 25.7799 31.107 26.6031C30.7661 27.4263 30.2663 28.1742 29.6363 28.8042C28.3639 30.0766 26.6381 30.7915 24.8387 30.7915C23.0392 30.7915 21.3135 30.0766 20.0411 28.8042C18.7687 27.5318 18.0538 25.8061 18.0538 24.0066C18.0538 22.2072 18.7687 20.4814 20.0411 19.209ZM33.1283 18.2322C33.2844 18.085 33.4094 17.9079 33.4958 17.7114C33.5823 17.515 33.6284 17.3032 33.6316 17.0886C33.6347 16.874 33.5947 16.6609 33.5141 16.462C33.4334 16.2631 33.3136 16.0825 33.1618 15.9307C33.0101 15.7789 32.8294 15.6591 32.6305 15.5785C32.4316 15.4978 32.2186 15.4578 32.004 15.4609C31.7893 15.4641 31.5776 15.5102 31.3811 15.5967C31.1847 15.6831 31.0075 15.8081 30.8603 15.9642C30.5738 16.2679 30.417 16.6712 30.4231 17.0886C30.4292 17.5059 30.5977 17.9045 30.8929 18.1997C31.188 18.4948 31.5866 18.6633 32.004 18.6694C32.4213 18.6755 32.8246 18.5187 33.1283 18.2322Z" fill="#C6A45A"/>
</svg>
