<svg width="49" height="48" viewBox="0 0 49 48" fill="none" xmlns="http://www.w3.org/2000/svg">
<circle cx="24.0391" cy="24.0059" r="23.4" fill="white" stroke="#C6A45A" stroke-width="1.2"/>
<path d="M36.6375 16.8057L33.9375 17.2557L35.7375 15.0057L32.5875 15.9057C28.5375 11.4057 22.2375 16.3557 24.0375 20.4057C16.8375 20.4057 13.2375 15.0057 13.2375 15.0057C13.2375 15.0057 10.5375 19.0557 15.0375 22.2057L12.3375 21.3057C12.3375 24.0057 14.1375 25.8057 17.2875 26.7057H14.1375C15.9375 30.3057 19.0875 30.3057 19.0875 30.3057C19.0875 30.3057 16.3875 32.5557 11.4375 32.5557C26.2875 39.7557 35.2875 26.2557 33.9375 19.0557L36.6375 16.8057Z" fill="#C6A45A"/>
</svg>
