<svg width="28" height="28" viewBox="0 0 28 28" fill="none" xmlns="http://www.w3.org/2000/svg">
<path fill-rule="evenodd" clip-rule="evenodd" d="M7.84375 3.28125C8.30974 3.28125 8.6875 3.65901 8.6875 4.125V5.8125H18.8125V4.125C18.8125 3.65901 19.1903 3.28125 19.6562 3.28125C20.1222 3.28125 20.5 3.65901 20.5 4.125V5.8125H21.3438C23.2077 5.8125 24.7188 7.32354 24.7188 9.1875V21.8438C24.7188 23.7077 23.2077 25.2188 21.3438 25.2188H6.15625C4.29229 25.2188 2.78125 23.7077 2.78125 21.8438V9.1875C2.78125 7.32354 4.29229 5.8125 6.15625 5.8125H7V4.125C7 3.65901 7.37776 3.28125 7.84375 3.28125ZM23.0312 13.4062C23.0312 12.4743 22.2757 11.7188 21.3438 11.7188H6.15625C5.22427 11.7188 4.46875 12.4743 4.46875 13.4062V21.8438C4.46875 22.7757 5.22427 23.5312 6.15625 23.5312H21.3438C22.2757 23.5312 23.0312 22.7757 23.0312 21.8438V13.4062Z" fill="#353635"/>
</svg>
