<svg width="39" height="40" viewBox="0 0 39 40" fill="none" xmlns="http://www.w3.org/2000/svg">
<path d="M27.625 11.625H29.25V13.25C29.25 13.681 29.4212 14.0943 29.7259 14.399C30.0307 14.7038 30.444 14.875 30.875 14.875C31.306 14.875 31.7193 14.7038 32.024 14.399C32.3288 14.0943 32.5 13.681 32.5 13.25V11.625H34.125C34.556 11.625 34.9693 11.4538 35.274 11.149C35.5788 10.8443 35.75 10.431 35.75 10C35.75 9.56902 35.5788 9.1557 35.274 8.85095C34.9693 8.54621 34.556 8.375 34.125 8.375H32.5V6.75C32.5 6.31902 32.3288 5.9057 32.024 5.60095C31.7193 5.2962 31.306 5.125 30.875 5.125C30.444 5.125 30.0307 5.2962 29.7259 5.60095C29.4212 5.9057 29.25 6.31902 29.25 6.75V8.375H27.625C27.194 8.375 26.7807 8.54621 26.4759 8.85095C26.1712 9.1557 26 9.56902 26 10C26 10.431 26.1712 10.8443 26.4759 11.149C26.7807 11.4538 27.194 11.625 27.625 11.625ZM34.125 18.125C33.694 18.125 33.2807 18.2962 32.9759 18.601C32.6712 18.9057 32.5 19.319 32.5 19.75V29.5C32.5 29.931 32.3288 30.3443 32.024 30.649C31.7193 30.9538 31.306 31.125 30.875 31.125H8.125C7.69402 31.125 7.2807 30.9538 6.97595 30.649C6.6712 30.3443 6.5 29.931 6.5 29.5V13.9163L16.055 23.4875C16.9691 24.4004 18.2081 24.9132 19.5 24.9132C20.7919 24.9132 22.0309 24.4004 22.945 23.4875L26.9587 19.4738C27.2647 19.1678 27.4366 18.7527 27.4366 18.32C27.4366 17.8873 27.2647 17.4722 26.9587 17.1663C26.6528 16.8603 26.2377 16.6884 25.805 16.6884C25.3723 16.6884 24.9572 16.8603 24.6512 17.1663L20.6375 21.18C20.3337 21.4777 19.9253 21.6445 19.5 21.6445C19.0746 21.6445 18.6663 21.4777 18.3625 21.18L8.79125 11.625H21.125C21.556 11.625 21.9693 11.4538 22.274 11.149C22.5788 10.8443 22.75 10.431 22.75 10C22.75 9.56902 22.5788 9.1557 22.274 8.85095C21.9693 8.54621 21.556 8.375 21.125 8.375H8.125C6.83207 8.375 5.59209 8.88861 4.67785 9.80285C3.76361 10.7171 3.25 11.9571 3.25 13.25V29.5C3.25 30.7929 3.76361 32.0329 4.67785 32.9471C5.59209 33.8614 6.83207 34.375 8.125 34.375H30.875C32.1679 34.375 33.4079 33.8614 34.3221 32.9471C35.2364 32.0329 35.75 30.7929 35.75 29.5V19.75C35.75 19.319 35.5788 18.9057 35.274 18.601C34.9693 18.2962 34.556 18.125 34.125 18.125Z" fill="#999999"/>
</svg>
