<svg width="16" height="12" viewBox="0 0 16 12" fill="none" xmlns="http://www.w3.org/2000/svg">
<path d="M13.6675 0.488281H2.83251C1.68243 0.488281 0.75 1.42071 0.75 2.57079V9.42579C0.75 10.5759 1.68243 11.5083 2.83251 11.5083H13.6675C14.8175 11.5083 15.75 10.5759 15.75 9.42579V2.57079C15.75 1.42071 14.8175 0.488281 13.6675 0.488281ZM5.96971 7.92368L3.0535 10.4116C2.8478 10.5871 2.53857 10.5627 2.36306 10.3568C2.18751 10.1511 2.21191 9.84189 2.41784 9.66638L5.33405 7.17849C5.53972 7.00294 5.84892 7.02734 6.02446 7.23327C6.20001 7.43894 6.17561 7.74816 5.96971 7.92368ZM8.25 6.97786C7.85994 6.97689 7.48184 6.84728 7.18623 6.59164L7.18646 6.59187L7.18553 6.59117C7.18576 6.59141 7.18603 6.59141 7.18623 6.59164L2.71178 2.70808C2.50729 2.5306 2.48552 2.2214 2.66273 2.01717C2.84019 1.81268 3.14941 1.79091 3.35361 1.96812L7.82933 5.85266C7.92498 5.93779 8.0826 5.99926 8.25 5.99829C8.41717 5.99879 8.57212 5.93899 8.67305 5.85099L8.67522 5.84908L13.1464 1.96815C13.3506 1.79094 13.6598 1.8127 13.8373 2.0172C14.0145 2.2214 13.9927 2.53063 13.7882 2.70811L9.31254 6.59284C9.0179 6.84582 8.64029 6.97736 8.25 6.97786ZM14.1371 10.3568C13.9616 10.5627 13.6524 10.5871 13.4467 10.4116L10.5305 7.92368C10.3246 7.74813 10.3002 7.43894 10.4758 7.23327C10.6513 7.02734 10.9605 7.00297 11.1662 7.17849L14.0824 9.66638C14.2883 9.84189 14.3127 10.1511 14.1371 10.3568Z" fill="#C6A45A"/>
</svg>
