<svg width="63" height="63" viewBox="0 0 63 63" fill="none" xmlns="http://www.w3.org/2000/svg">
<circle cx="31.3571" cy="31.3923" r="30.8571" fill="#C6A45A" fill-opacity="0.2"/>
<path d="M39.3125 17.3594H22.4375C18.9426 17.3594 16.1094 20.1926 16.1094 23.6875V40.5625C16.1094 44.0574 18.9426 46.8906 22.4375 46.8906H39.3125C42.8074 46.8906 45.6406 44.0574 45.6406 40.5625V23.6875C45.6406 20.1926 42.8074 17.3594 39.3125 17.3594Z" fill="url(#paint0_radial_816_764)"/>
<path d="M39.3125 17.3594H22.4375C18.9426 17.3594 16.1094 20.1926 16.1094 23.6875V40.5625C16.1094 44.0574 18.9426 46.8906 22.4375 46.8906H39.3125C42.8074 46.8906 45.6406 44.0574 45.6406 40.5625V23.6875C45.6406 20.1926 42.8074 17.3594 39.3125 17.3594Z" fill="url(#paint1_radial_816_764)"/>
<path d="M39.3125 17.3594H22.4375C18.9426 17.3594 16.1094 20.1926 16.1094 23.6875V40.5625C16.1094 44.0574 18.9426 46.8906 22.4375 46.8906H39.3125C42.8074 46.8906 45.6406 44.0574 45.6406 40.5625V23.6875C45.6406 20.1926 42.8074 17.3594 39.3125 17.3594Z" fill="url(#paint2_radial_816_764)"/>
<path d="M38.2578 26.3242C38.2578 27.1979 37.5495 27.9062 36.6758 27.9062C35.8021 27.9062 35.0938 27.1979 35.0938 26.3242C35.0938 25.4505 35.8021 24.7422 36.6758 24.7422C37.5495 24.7422 38.2578 25.4505 38.2578 26.3242Z" fill="white"/>
<path fill-rule="evenodd" clip-rule="evenodd" d="M30.875 37.3984C33.7874 37.3984 36.1484 35.0374 36.1484 32.125C36.1484 29.2126 33.7874 26.8516 30.875 26.8516C27.9626 26.8516 25.6016 29.2126 25.6016 32.125C25.6016 35.0374 27.9626 37.3984 30.875 37.3984ZM30.875 35.2891C32.6225 35.2891 34.0391 33.8725 34.0391 32.125C34.0391 30.3775 32.6225 28.9609 30.875 28.9609C29.1275 28.9609 27.7109 30.3775 27.7109 32.125C27.7109 33.8725 29.1275 35.2891 30.875 35.2891Z" fill="white"/>
<path fill-rule="evenodd" clip-rule="evenodd" d="M20.3281 31.7031C20.3281 28.1591 20.3281 26.387 21.0178 25.0333C21.6245 23.8426 22.5926 22.8745 23.7833 22.2678C25.137 21.5781 26.9091 21.5781 30.4531 21.5781H31.2969C34.8409 21.5781 36.613 21.5781 37.9666 22.2678C39.1574 22.8745 40.1255 23.8426 40.7321 25.0333C41.4219 26.387 41.4219 28.1591 41.4219 31.7031V32.5469C41.4219 36.0909 41.4219 37.863 40.7321 39.2166C40.1255 40.4074 39.1574 41.3755 37.9666 41.9821C36.613 42.6719 34.8409 42.6719 31.2969 42.6719H30.4531C26.9091 42.6719 25.137 42.6719 23.7833 41.9821C22.5926 41.3755 21.6245 40.4074 21.0178 39.2166C20.3281 37.863 20.3281 36.0909 20.3281 32.5469V31.7031ZM30.4531 23.6875H31.2969C33.1038 23.6875 34.3319 23.6891 35.2814 23.7667C36.2062 23.8423 36.6792 23.9792 37.0091 24.1473C37.8028 24.5518 38.4482 25.1972 38.8527 25.9909C39.0208 26.3208 39.1578 26.7938 39.2333 27.7186C39.3108 28.6681 39.3125 29.8962 39.3125 31.7031V32.5469C39.3125 34.3538 39.3108 35.5819 39.2333 36.5314C39.1578 37.4562 39.0208 37.9292 38.8527 38.2591C38.4482 39.0528 37.8028 39.6982 37.0091 40.1027C36.6792 40.2708 36.2062 40.4078 35.2814 40.4833C34.3319 40.5608 33.1038 40.5625 31.2969 40.5625H30.4531C28.6462 40.5625 27.4181 40.5608 26.4686 40.4833C25.5438 40.4078 25.0708 40.2708 24.7409 40.1027C23.9472 39.6982 23.3018 39.0528 22.8973 38.2591C22.7292 37.9292 22.5923 37.4562 22.5167 36.5314C22.4391 35.5819 22.4375 34.3538 22.4375 32.5469V31.7031C22.4375 29.8962 22.4391 28.6681 22.5167 27.7186C22.5923 26.7938 22.7292 26.3208 22.8973 25.9909C23.3018 25.1972 23.9472 24.5518 24.7409 24.1473C25.0708 23.9792 25.5438 23.8423 26.4686 23.7667C27.4181 23.6891 28.6462 23.6875 30.4531 23.6875Z" fill="white"/>
<defs>
<radialGradient id="paint0_radial_816_764" cx="0" cy="0" r="1" gradientUnits="userSpaceOnUse" gradientTransform="translate(26.6562 39.5078) rotate(-55.3758) scale(26.9152)">
<stop stop-color="#B13589"/>
<stop offset="0.79309" stop-color="#C62F94"/>
<stop offset="1" stop-color="#8A3AC8"/>
</radialGradient>
<radialGradient id="paint1_radial_816_764" cx="0" cy="0" r="1" gradientUnits="userSpaceOnUse" gradientTransform="translate(25.6016 47.9453) rotate(-65.1363) scale(23.8298)">
<stop stop-color="#E0E8B7"/>
<stop offset="0.444662" stop-color="#FB8A2E"/>
<stop offset="0.71474" stop-color="#E2425C"/>
<stop offset="1" stop-color="#E2425C" stop-opacity="0"/>
</radialGradient>
<radialGradient id="paint2_radial_816_764" cx="0" cy="0" r="1" gradientUnits="userSpaceOnUse" gradientTransform="translate(14.5273 18.4141) rotate(-8.1301) scale(41.0177 8.77327)">
<stop offset="0.156701" stop-color="#406ADC"/>
<stop offset="0.467799" stop-color="#6A45BE"/>
<stop offset="1" stop-color="#6A45BE" stop-opacity="0"/>
</radialGradient>
</defs>
</svg>
