<svg width="46" height="46" viewBox="0 0 46 46" fill="none" xmlns="http://www.w3.org/2000/svg">
<rect x="1.125" y="1.125" width="44.25" height="44.25" rx="22.125" stroke="url(#paint0_linear_51_9964)" stroke-width="0.75"/>
<rect x="1.125" y="1.125" width="44.25" height="44.25" rx="22.125" stroke="url(#paint1_linear_51_9964)" stroke-width="0.75"/>
<path d="M27 19.5H27.0125M27 27C31.1421 27 34.5 23.6421 34.5 19.5C34.5 15.3579 31.1421 12 27 12C22.8579 12 19.5 15.3579 19.5 19.5C19.5 19.8421 19.5229 20.1789 19.5673 20.5088C19.6402 21.0515 19.6767 21.3229 19.6522 21.4945C19.6266 21.6734 19.594 21.7696 19.5059 21.9274C19.4213 22.0788 19.2721 22.2279 18.9739 22.5261L12.5858 28.9143C12.3696 29.1304 12.2615 29.2385 12.1842 29.3646C12.1157 29.4765 12.0652 29.5984 12.0345 29.726C12 29.8699 12 30.0228 12 30.3284V32.5C12 33.2001 12 33.5501 12.1362 33.8175C12.2561 34.0528 12.4473 34.2439 12.6825 34.3638C12.9499 34.5 13.2999 34.5 14 34.5H16.1716C16.4773 34.5 16.6302 34.5 16.774 34.4655C16.9016 34.4349 17.0235 34.3844 17.1354 34.3158C17.2615 34.2385 17.3696 34.1304 17.5858 33.9143L23.9739 27.5261C24.2721 27.2279 24.4212 27.0788 24.5726 26.9941C24.7304 26.906 24.8266 26.8734 25.0055 26.8479C25.1771 26.8232 25.4485 26.8598 25.9912 26.9328C26.3211 26.9771 26.6579 27 27 27Z" stroke="#C6A45A" stroke-width="2.25" stroke-linecap="round" stroke-linejoin="round"/>
<defs>
<linearGradient id="paint0_linear_51_9964" x1="4.45427" y1="48.2195" x2="47.8079" y2="-2.2683" gradientUnits="userSpaceOnUse">
<stop stop-color="#C6A45A"/>
<stop offset="0.323723" stop-color="#C6A45A" stop-opacity="0"/>
</linearGradient>
<linearGradient id="paint1_linear_51_9964" x1="45.6128" y1="-5.01219" x2="4.45427" y2="45.75" gradientUnits="userSpaceOnUse">
<stop stop-color="#C6A45A"/>
<stop offset="0.576615" stop-color="#C6A45A" stop-opacity="0"/>
</linearGradient>
</defs>
</svg>
