<svg width="19" height="19" viewBox="0 0 19 19" fill="none" xmlns="http://www.w3.org/2000/svg">
<path d="M8.2782 4.23713L8.76495 5.10933C9.20423 5.89644 9.0279 6.92899 8.33603 7.62085C8.33603 7.62085 7.49691 8.4601 9.01838 9.98163C10.5394 11.5026 11.3792 10.664 11.3792 10.664C12.071 9.9721 13.1036 9.79578 13.8907 10.2351L14.7629 10.7218C15.9515 11.3851 16.0918 13.0519 15.0471 14.0967C14.4194 14.7244 13.6503 15.2129 12.8002 15.2451C11.3691 15.2994 8.93873 14.9372 6.50078 12.4992C4.06285 10.0613 3.70066 7.63092 3.75491 6.19982C3.78714 5.3497 4.2756 4.58067 4.90336 3.95292C5.94807 2.90821 7.61488 3.04858 8.2782 4.23713Z" fill="#C6A45A"/>
</svg>
