<svg width="28" height="28" viewBox="0 0 28 28" fill="none" xmlns="http://www.w3.org/2000/svg">
<path d="M11.7923 6.48069L12.5224 7.78899C13.1813 8.96965 12.9169 10.5185 11.879 11.5563C11.879 11.5563 10.6204 12.8151 12.9026 15.0974C15.1841 17.3789 16.4437 16.121 16.4437 16.121C17.4815 15.0831 19.0303 14.8187 20.211 15.4776L21.5193 16.2077C23.3022 17.2027 23.5127 19.7029 21.9457 21.27C21.004 22.2116 19.8505 22.9443 18.5753 22.9926C16.4287 23.074 12.7831 22.5308 9.12616 18.8738C5.46927 15.2169 4.92599 11.5714 5.00737 9.42473C5.05571 8.14955 5.7884 6.99601 6.73004 6.05438C8.29711 4.48732 10.7973 4.69787 11.7923 6.48069Z" fill="white"/>
</svg>
