<svg width="26" height="25" viewBox="0 0 26 25" fill="none" xmlns="http://www.w3.org/2000/svg">
<g clip-path="url(#clip0_51_10651)">
<path d="M2.10977 24.5488C1.78846 24.5488 1.46715 24.4266 1.22303 24.1806C0.732948 23.6905 0.732948 22.896 1.22303 22.4059L23.1052 0.52381C23.5952 0.0337299 24.3898 0.0337299 24.8799 0.52381C25.3699 1.01389 25.3699 1.80843 24.8799 2.29882L2.99804 24.1806C2.75208 24.425 2.43077 24.5488 2.10977 24.5488Z" fill="#999999"/>
<path d="M23.9934 24.5488C23.6721 24.5488 23.3511 24.4266 23.1067 24.1806L1.22303 2.29882C0.732948 1.80843 0.732948 1.01389 1.22303 0.52381C1.71311 0.0337299 2.50766 0.0337299 2.99804 0.52381L24.8799 22.4059C25.3699 22.896 25.3699 23.6905 24.8799 24.1806C24.6339 24.425 24.3129 24.5488 23.9934 24.5488Z" fill="#999999"/>
</g>
<defs>
<clipPath id="clip0_51_10651">
<rect width="24.3925" height="24.3925" fill="white" transform="translate(0.847656 0.15625)"/>
</clipPath>
</defs>
</svg>
