<svg width="21" height="21" viewBox="0 0 21 21" fill="none" xmlns="http://www.w3.org/2000/svg">
<path d="M15.9348 3.8086C16.2588 3.69079 16.4259 3.33266 16.3081 3.0087C16.1903 2.68473 15.8322 2.5176 15.5082 2.63541L5.11061 6.41634V3.22201C5.11061 2.87728 4.83115 2.59783 4.48643 2.59783H3.23807C2.89335 2.59783 2.61389 2.87728 2.61389 3.22201V7.32424L1.77627 7.62883C1.4523 7.74663 1.28518 8.10476 1.40298 8.42873C1.52079 8.7527 1.87892 8.91983 2.20289 8.80202L15.9348 3.8086Z" fill="#C6A45A"/>
<path fill-rule="evenodd" clip-rule="evenodd" d="M2.62967 9.97521L15.0974 5.44148V8.28897L18.4315 9.50136C18.7555 9.61917 18.9226 9.9773 18.8048 10.3013C18.687 10.6252 18.3289 10.7924 18.0049 10.6746L17.594 10.5251V17.5781H18.2183C18.5631 17.5781 18.8425 17.8575 18.8425 18.2023C18.8425 18.547 18.5631 18.8264 18.2183 18.8264H1.98972C1.64499 18.8264 1.36554 18.547 1.36554 18.2023C1.36554 17.8575 1.64499 17.5781 1.98972 17.5781H2.61389V9.98087L2.62967 9.97521ZM15.0974 17.5781V9.6173L16.3457 10.0712V17.5781H15.0974ZM7.60732 12.5847C7.26259 12.5847 6.98314 12.8641 6.98314 13.2088V16.9539C6.98314 17.2986 7.26259 17.5781 7.60732 17.5781H10.104C10.4488 17.5781 10.7282 17.2986 10.7282 16.9539V13.2088C10.7282 12.8641 10.4488 12.5847 10.104 12.5847H7.60732Z" fill="#C6A45A"/>
</svg>
