<svg width="21" height="21" viewBox="0 0 21 21" fill="none" xmlns="http://www.w3.org/2000/svg">
<path d="M10.6042 6.96577C9.57004 6.96577 8.73168 7.80413 8.73168 8.8383C8.73168 9.87247 9.57004 10.7108 10.6042 10.7108C11.6384 10.7108 12.4767 9.87247 12.4767 8.8383C12.4767 7.80413 11.6384 6.96577 10.6042 6.96577Z" fill="#C6A45A"/>
<path fill-rule="evenodd" clip-rule="evenodd" d="M1.86572 4.78115C1.86572 3.91934 2.56436 3.2207 3.42617 3.2207H17.7823C18.6441 3.2207 19.3427 3.91934 19.3427 4.78115V12.8955C19.3427 13.7573 18.6441 14.4559 17.7823 14.4559H3.42617C2.56436 14.4559 1.86572 13.7573 1.86572 12.8955V4.78115ZM7.48332 8.8383C7.48332 7.11468 8.88059 5.71741 10.6042 5.71741C12.3278 5.71741 13.7251 7.11468 13.7251 8.8383C13.7251 10.5619 12.3278 11.9592 10.6042 11.9592C8.88059 11.9592 7.48332 10.5619 7.48332 8.8383ZM16.2218 8.21412C15.8771 8.21412 15.5976 8.49358 15.5976 8.8383V8.84454C15.5976 9.18927 15.8771 9.46872 16.2218 9.46872H16.2281C16.5728 9.46872 16.8522 9.18927 16.8522 8.84454V8.8383C16.8522 8.49358 16.5728 8.21412 16.2281 8.21412H16.2218ZM4.36243 8.8383C4.36243 8.49358 4.64189 8.21412 4.98661 8.21412H4.99285C5.33758 8.21412 5.61703 8.49358 5.61703 8.8383V8.84454C5.61703 9.18927 5.33758 9.46872 4.99285 9.46872H4.98661C4.64189 9.46872 4.36243 9.18927 4.36243 8.84454V8.8383Z" fill="#C6A45A"/>
<path d="M2.4899 15.7043C2.14518 15.7043 1.86572 15.9837 1.86572 16.3284C1.86572 16.6732 2.14518 16.9526 2.4899 16.9526C6.98402 16.9526 11.3368 17.5537 15.4726 18.6794C16.4635 18.9491 17.4702 18.2149 17.4702 17.1649V16.3284C17.4702 15.9837 17.1907 15.7043 16.846 15.7043H2.4899Z" fill="#C6A45A"/>
</svg>
