<svg width="12" height="12" viewBox="0 0 12 12" fill="none" xmlns="http://www.w3.org/2000/svg">
<path d="M5.05378 2.87645C5.62772 1.84684 5.91469 1.33203 6.34375 1.33203C6.77281 1.33203 7.05978 1.84684 7.63371 2.87645L7.7822 3.14282C7.94532 3.43541 8.02684 3.5817 8.15403 3.67823C8.28118 3.77475 8.4395 3.81058 8.75623 3.88224L9.0446 3.94748C10.1591 4.19966 10.7164 4.32575 10.849 4.7521C10.9816 5.17843 10.6017 5.62272 9.84183 6.5112L9.64526 6.74107C9.42935 6.99356 9.32137 7.1198 9.2728 7.27599C9.22427 7.43218 9.24058 7.60061 9.2732 7.93751L9.30293 8.24418C9.4178 9.42965 9.47525 10.0224 9.12816 10.2859C8.78102 10.5494 8.25925 10.3091 7.2157 9.82867L6.94573 9.70433C6.6492 9.5678 6.50094 9.49952 6.34375 9.49952C6.18656 9.49952 6.0383 9.5678 5.74177 9.70433L5.4718 9.82867C4.42825 10.3091 3.90647 10.5494 3.55937 10.2859C3.21226 10.0224 3.2697 9.42965 3.38457 8.24418L3.41429 7.93751C3.44694 7.60061 3.46326 7.43218 3.41469 7.27599C3.36612 7.1198 3.25816 6.99356 3.04225 6.74107L2.84567 6.5112C2.08585 5.62272 1.70593 5.17843 1.83852 4.7521C1.9711 4.32575 2.52837 4.19966 3.64292 3.94748L3.93126 3.88224C4.24798 3.81058 4.40634 3.77475 4.53349 3.67823C4.66064 3.5817 4.74219 3.43541 4.90529 3.14282L5.05378 2.87645Z" fill="white"/>
</svg>
