<svg width="46" height="46" viewBox="0 0 46 46" fill="none" xmlns="http://www.w3.org/2000/svg">
<rect x="0.875" y="1.125" width="44.25" height="44.25" rx="22.125" stroke="url(#paint0_linear_51_9958)" stroke-width="0.75"/>
<rect x="0.875" y="1.125" width="44.25" height="44.25" rx="22.125" stroke="url(#paint1_linear_51_9958)" stroke-width="0.75"/>
<path d="M25.5988 10.125C25.7973 10.125 25.9906 10.188 26.151 10.3049C26.3114 10.4219 26.4305 10.5867 26.4913 10.7756L27.5225 13.98C27.9556 14.1919 28.37 14.43 28.7656 14.6981L32.0581 13.9894C32.2523 13.9479 32.4545 13.9692 32.6358 14.05C32.8171 14.1309 32.9681 14.2672 33.0669 14.4394L35.6656 18.9375C35.7649 19.1095 35.8069 19.3087 35.7857 19.5061C35.7645 19.7036 35.6811 19.8892 35.5475 20.0362L33.2881 22.53C33.321 23.0082 33.321 23.4881 33.2881 23.9662L35.5475 26.4637C35.6811 26.6108 35.7645 26.7964 35.7857 26.9939C35.8069 27.1913 35.7649 27.3905 35.6656 27.5625L33.0669 32.0625C32.9678 32.2343 32.8167 32.3702 32.6355 32.4508C32.4542 32.5313 32.2521 32.5522 32.0581 32.5106L28.7656 31.8019C28.3719 32.0681 27.9556 32.3081 27.5244 32.52L26.4913 35.7244C26.4305 35.9133 26.3114 36.0781 26.151 36.1951C25.9906 36.312 25.7973 36.375 25.5988 36.375H20.4013C20.2028 36.375 20.0094 36.312 19.849 36.1951C19.6886 36.0781 19.5695 35.9133 19.5088 35.7244L18.4794 32.5219C18.0474 32.3106 17.6308 32.0694 17.2325 31.8L13.9419 32.5106C13.7478 32.5521 13.5455 32.5308 13.3642 32.45C13.1829 32.3691 13.032 32.2328 12.9331 32.0606L10.3344 27.5625C10.2352 27.3905 10.1931 27.1913 10.2144 26.9939C10.2356 26.7964 10.319 26.6108 10.4525 26.4637L12.7119 23.9662C12.6792 23.4893 12.6792 23.0107 12.7119 22.5338L10.4525 20.0362C10.319 19.8892 10.2356 19.7036 10.2144 19.5061C10.1931 19.3087 10.2352 19.1095 10.3344 18.9375L12.9331 14.4375C13.0323 14.2657 13.1833 14.1298 13.3646 14.0492C13.5458 13.9687 13.748 13.9478 13.9419 13.9894L17.2325 14.7C17.63 14.4319 18.0463 14.19 18.4794 13.9781L19.5106 10.7756C19.5712 10.5873 19.6898 10.4229 19.8494 10.306C20.009 10.1892 20.2016 10.1258 20.3994 10.125H25.5969H25.5988ZM24.9125 12H21.0875L20.0225 15.3131L19.3044 15.6638C18.9514 15.8365 18.6106 16.0332 18.2844 16.2525L17.6206 16.7025L14.2156 15.9675L12.3031 19.2825L14.6375 21.8663L14.5813 22.6613C14.5543 23.0533 14.5543 23.4467 14.5813 23.8387L14.6375 24.6337L12.2994 27.2175L14.2138 30.5325L17.6188 29.7994L18.2825 30.2475C18.6087 30.4668 18.9495 30.6635 19.3025 30.8362L20.0206 31.1869L21.0875 34.5H24.9163L25.985 31.185L26.7013 30.8362C27.0539 30.6639 27.3941 30.4672 27.7194 30.2475L28.3813 29.7994L31.7881 30.5325L33.7006 27.2175L31.3644 24.6337L31.4206 23.8387C31.4477 23.4461 31.4477 23.052 31.4206 22.6594L31.3644 21.8644L33.7025 19.2825L31.7881 15.9675L28.3813 16.6988L27.7194 16.2525C27.3941 16.0328 27.0539 15.836 26.7013 15.6638L25.985 15.315L24.9144 12H24.9125ZM23 17.625C24.4919 17.625 25.9226 18.2176 26.9775 19.2725C28.0324 20.3274 28.625 21.7582 28.625 23.25C28.625 24.7418 28.0324 26.1726 26.9775 27.2275C25.9226 28.2824 24.4919 28.875 23 28.875C21.5082 28.875 20.0774 28.2824 19.0225 27.2275C17.9677 26.1726 17.375 24.7418 17.375 23.25C17.375 21.7582 17.9677 20.3274 19.0225 19.2725C20.0774 18.2176 21.5082 17.625 23 17.625ZM23 19.5C22.0055 19.5 21.0516 19.8951 20.3484 20.5983C19.6451 21.3016 19.25 22.2554 19.25 23.25C19.25 24.2446 19.6451 25.1984 20.3484 25.9016C21.0516 26.6049 22.0055 27 23 27C23.9946 27 24.9484 26.6049 25.6517 25.9016C26.3549 25.1984 26.75 24.2446 26.75 23.25C26.75 22.2554 26.3549 21.3016 25.6517 20.5983C24.9484 19.8951 23.9946 19.5 23 19.5Z" fill="#C6A45A"/>
<defs>
<linearGradient id="paint0_linear_51_9958" x1="4.20427" y1="48.2195" x2="47.5579" y2="-2.2683" gradientUnits="userSpaceOnUse">
<stop stop-color="#C6A45A"/>
<stop offset="0.323723" stop-color="#C6A45A" stop-opacity="0"/>
</linearGradient>
<linearGradient id="paint1_linear_51_9958" x1="45.3628" y1="-5.01219" x2="4.20427" y2="45.75" gradientUnits="userSpaceOnUse">
<stop stop-color="#C6A45A"/>
<stop offset="0.576615" stop-color="#C6A45A" stop-opacity="0"/>
</linearGradient>
</defs>
</svg>
