<svg width="28" height="28" viewBox="0 0 28 28" fill="none" xmlns="http://www.w3.org/2000/svg">
<g clip-path="url(#clip0_51_8194)">
<path d="M14.5938 0.5C7.59062 0.5 1.9375 6.15312 1.9375 13.1562C1.9375 16.025 2.86562 18.725 4.6375 20.9188L2.86562 26.3188C2.78125 26.6562 2.86563 26.9938 3.11875 27.2469C3.20313 27.4156 3.45625 27.5 3.625 27.5C3.70938 27.5 3.87813 27.5 3.9625 27.4156L9.78438 24.8C11.3031 25.475 12.9062 25.8125 14.5938 25.8125C21.5969 25.8125 27.25 20.1594 27.25 13.1562C27.25 6.15312 21.5969 0.5 14.5938 0.5Z" fill="#C6A45A"/>
<path d="M21.9344 17.7969C21.5969 18.8094 20.3313 19.6531 19.2344 19.8219C18.9813 19.9062 18.7281 19.9062 18.3906 19.9062C17.7156 19.9062 16.7031 19.7375 14.9313 18.9781C12.9063 18.1344 10.8813 16.3625 9.27813 14.0844V14C8.77188 13.2406 7.84375 11.8063 7.84375 10.2875C7.84375 8.43125 8.77188 7.50313 9.10938 7.08125C9.53125 6.65938 10.1219 6.40625 10.7969 6.40625C10.9656 6.40625 11.05 6.40625 11.2188 6.40625C11.8094 6.40625 12.2313 6.575 12.6531 7.41875L12.9906 8.09375C13.2438 8.76875 13.5813 9.52813 13.6656 9.6125C13.9188 10.1188 13.9188 10.5406 13.6656 10.9625C13.5813 11.2156 13.4125 11.3844 13.2438 11.5531C13.1594 11.7219 13.075 11.8062 12.9906 11.8062C12.9063 11.8906 12.9063 11.8906 12.8219 11.975C13.075 12.3969 13.5813 13.1562 14.2563 13.7469C15.2688 14.675 16.0281 14.9281 16.45 15.0969C16.6188 14.9281 16.7875 14.5906 17.0406 14.3375L17.125 14.1688C17.5469 13.5781 18.2219 13.4094 18.8969 13.6625C19.2344 13.8313 21.0906 14.675 21.0906 14.675L21.2594 14.7594C21.5125 14.9281 21.85 15.0125 22.0188 15.35C22.3563 16.1094 22.1031 17.2063 21.9344 17.7969Z" fill="white"/>
</g>
<defs>
<clipPath id="clip0_51_8194">
<rect width="27" height="27" fill="white" transform="translate(0.25 0.5)"/>
</clipPath>
</defs>
</svg>
