<svg width="19" height="19" viewBox="0 0 19 19" fill="none" xmlns="http://www.w3.org/2000/svg">
<path fill-rule="evenodd" clip-rule="evenodd" d="M11.2114 2.07121C11.4373 2.19717 11.5483 2.46097 11.4802 2.71052L9.98647 8.18752H15.4375C15.6615 8.18752 15.8641 8.32041 15.9534 8.52584C16.0427 8.73126 16.0016 8.97008 15.8487 9.13382L7.97373 17.5713C7.79724 17.7604 7.51453 17.8048 7.28861 17.6788C7.06268 17.5529 6.95177 17.2891 7.01983 17.0395L8.51356 11.5625H3.06251C2.83853 11.5625 2.63589 11.4296 2.54662 11.2242C2.45735 11.0188 2.49846 10.78 2.65129 10.6162L10.5263 2.17872C10.7028 1.98962 10.9855 1.94526 11.2114 2.07121Z" fill="#C6A45A"/>
</svg>
