<svg xmlns="http://www.w3.org/2000/svg" width="223" height="50" viewBox="0 0 223 50" fill="none"><path d="M124.35 12.3606H125.872H125.909L127.616 14.7734H129.064L127.171 12.1379C128.136 11.8781 128.841 11.1728 128.841 10.0221V9.98497C128.841 9.39106 128.619 8.87139 128.247 8.50019C127.802 8.05476 127.097 7.79492 126.243 7.79492H123.125V14.7363H124.35V12.3606ZM124.35 8.94563H126.132C127.023 8.94563 127.579 9.35395 127.579 10.0963V10.1335C127.579 10.8387 127.023 11.2842 126.132 11.2842H124.35V8.94563Z" fill="black"></path><path d="M137.49 13.6969H133.518V11.8409H137.007V10.7273H133.518V8.94562H137.453V7.83203H132.293V14.8105H137.49V13.6969Z" fill="black"></path><path d="M142.278 13.103H145.582L146.287 14.7734H147.586L144.542 7.75781H143.391L140.348 14.7734H141.61L142.278 13.103ZM143.911 9.24259L145.099 12.0266H142.723L143.911 9.24259Z" fill="black"></path><path d="M155.605 13.6969H151.967V7.83203H150.742V14.8105H155.605V13.6969Z" fill="black"></path><path d="M169.003 8.94562V7.83203H163.844V14.8105H169.04V13.6969H165.069V11.8409H168.558V10.7273H165.069V8.94562H169.003Z" fill="black"></path><path d="M175.241 10.7645C173.905 10.4304 173.608 10.2077 173.608 9.68803V9.65091C173.608 9.20548 174.016 8.83429 174.721 8.83429C175.352 8.83429 175.983 9.09412 176.615 9.53956L177.283 8.61157C176.577 8.05478 175.761 7.7207 174.759 7.7207C173.385 7.7207 172.383 8.53733 172.383 9.72516V9.76228C172.383 11.0615 173.2 11.4698 174.684 11.841C175.984 12.1379 176.243 12.3978 176.243 12.9174V12.9546C176.243 13.4742 175.761 13.8454 175.018 13.8454C174.165 13.8454 173.496 13.5113 172.828 12.9546L172.086 13.8454C172.903 14.5878 173.942 14.959 174.981 14.959C176.429 14.959 177.468 14.1795 177.468 12.8803V12.8432C177.468 11.6554 176.726 11.1357 175.241 10.7645Z" fill="black"></path><path d="M180.18 8.98274H182.407V14.8105H183.632V8.98274H185.822V7.83203H180.18V8.98274Z" fill="black"></path><path d="M190.684 7.79492L187.641 14.8105H188.903L189.608 13.1401H192.912L193.617 14.8105H194.916L191.872 7.79492H190.684ZM190.016 12.0265L191.204 9.24258L192.392 12.0265H190.016Z" fill="black"></path><path d="M196.664 8.98274H198.854V14.8105H200.079V8.98274H202.306V7.83203H196.664V8.98274Z" fill="black"></path><path d="M210.73 8.94562V7.83203H205.57V14.8105H210.767V13.6969H206.795V11.8409H210.284V10.7273H206.795V8.94562H210.73Z" fill="black"></path><path d="M128.617 25.3154C128.023 25.8722 127.466 26.2062 126.612 26.2062C125.276 26.2062 124.311 25.0926 124.311 23.7192V23.6821C124.311 22.3087 125.276 21.2322 126.612 21.2322C127.392 21.2322 127.986 21.5663 128.543 22.086L129.322 21.1951C128.654 20.5641 127.874 20.1187 126.612 20.1187C124.497 20.1187 123.012 21.7519 123.012 23.7192V23.7563C123.012 25.7608 124.534 27.3198 126.538 27.3198C127.837 27.3198 128.654 26.8373 129.359 26.0949L128.617 25.3154Z" fill="black"></path><path d="M139.455 23.7568C139.455 21.7895 137.97 20.1562 135.817 20.1562C133.664 20.1562 132.18 21.7895 132.18 23.7568V23.794C132.18 25.7613 133.664 27.3574 135.817 27.3574C137.933 27.3203 139.455 25.687 139.455 23.7568ZM138.156 23.7568C138.156 25.0931 137.191 26.2067 135.817 26.2067C134.444 26.2067 133.442 25.0931 133.442 23.7197V23.6826C133.442 22.3463 134.407 21.2327 135.78 21.2327C137.191 21.2698 138.156 22.3834 138.156 23.7568Z" fill="black"></path><path d="M148.437 27.2084H149.662V20.2671H148.363L146.247 23.5336L144.131 20.2671H142.832V27.2084H144.02V22.2344L146.173 25.5009H146.247L148.437 22.2344V27.2084Z" fill="black"></path><path d="M158.945 22.6056C158.945 21.1951 157.905 20.2671 156.309 20.2671H153.562V27.2084H154.787V24.9813H156.161C157.72 24.9813 158.945 24.1646 158.945 22.6056ZM154.787 21.3807H156.198C157.126 21.3807 157.683 21.8261 157.683 22.6056V22.6427C157.683 23.3851 157.126 23.8677 156.198 23.8677H154.787V21.3807Z" fill="black"></path><path d="M163.88 20.2305L160.836 27.2461H162.098L162.803 25.5757H166.107L166.812 27.2461H168.111L165.068 20.2305H163.88ZM163.249 24.4621L164.437 21.6781L165.624 24.4621H163.249Z" fill="black"></path><path d="M172.383 22.2715L176.244 27.2084H177.246V20.2671H176.058V25.0555L172.309 20.2671H171.195V27.2084H172.383V22.2715Z" fill="black"></path><path d="M182.369 20.2671H181.145V27.2084H182.369V20.2671Z" fill="black"></path><path d="M191.501 26.132H187.53V24.2389H191.019V23.1624H187.53V21.3436H191.464V20.2671H186.305V27.2084H191.501V26.132Z" fill="black"></path><path d="M197.405 26.2438C196.551 26.2438 195.883 25.9098 195.215 25.353L194.473 26.2438C195.289 26.9862 196.329 27.3574 197.368 27.3574C198.816 27.3574 199.855 26.5779 199.855 25.2787V25.2416C199.855 24.0909 199.075 23.5712 197.628 23.2C196.292 22.866 195.995 22.6433 195.995 22.1236V22.0865C195.995 21.641 196.403 21.2698 197.145 21.2698C197.776 21.2698 198.407 21.5297 199.038 21.9751L199.707 21.0471C199.001 20.4903 198.185 20.1562 197.182 20.1562C195.809 20.1562 194.807 20.9729 194.807 22.1607V22.1978C194.807 23.4599 195.623 23.9053 197.108 24.2765C198.407 24.5735 198.667 24.8333 198.667 25.353V25.3901C198.63 25.8726 198.185 26.2438 197.405 26.2438Z" fill="black"></path><path d="M139.609 33.9647H141.799V39.7924H143.024V33.9647H145.252V32.8511H139.609V33.9647Z" fill="black"></path><path d="M153.005 35.7464H149.702V32.8511H148.477V39.7924H149.702V36.86H153.005V39.7924H154.23V32.8511H153.005V35.7464Z" fill="black"></path><path d="M159.244 36.8229H162.734V35.7464H159.244V33.9275H163.179V32.8511H158.02V39.7924H163.216V38.716H159.244V36.8229Z" fill="black"></path><path d="M178.506 38.0107L176.798 32.814H175.796L174.089 38.0107L172.418 32.8511H171.082L173.532 39.8296H174.571L176.279 34.8555L177.986 39.8296H179.026L181.475 32.8511H180.176L178.506 38.0107Z" fill="black"></path><path d="M187.528 32.7393C185.375 32.7393 183.891 34.3725 183.891 36.3398V36.377C183.891 38.3443 185.375 39.9404 187.528 39.9404C189.681 39.9404 191.166 38.3072 191.166 36.3398V36.3027C191.129 34.3354 189.644 32.7393 187.528 32.7393ZM189.867 36.3398C189.867 37.6761 188.902 38.7897 187.528 38.7897C186.155 38.7897 185.153 37.6761 185.153 36.3027V36.2656C185.153 34.9293 186.118 33.8157 187.491 33.8157C188.865 33.8528 189.867 34.9664 189.867 36.3398Z" fill="black"></path><path d="M200.224 35.0411C200.224 34.4101 200.002 33.8904 199.63 33.5192C199.185 33.0738 198.48 32.814 197.626 32.814H194.508V39.7553H195.733V37.3425H197.255H197.292L198.999 39.7553H200.447L198.554 37.1198C199.519 36.8971 200.224 36.1918 200.224 35.0411ZM195.77 36.3032V33.9647H197.552C198.442 33.9647 198.999 34.373 198.999 35.1154V35.1525C198.999 35.8578 198.442 36.3032 197.552 36.3032H195.77Z" fill="black"></path><path d="M205.119 32.8511H203.895V39.7924H208.794V38.6789H205.119V32.8511Z" fill="black"></path><path d="M214.512 32.8511H211.914V39.7924H214.512C216.703 39.7924 218.224 38.2705 218.224 36.3032V36.2661C218.224 34.3359 216.703 32.8511 214.512 32.8511ZM216.925 36.3403C216.925 37.7137 215.96 38.6789 214.512 38.6789H213.139V33.9647H214.512C215.997 33.9647 216.925 34.9669 216.925 36.3403Z" fill="black"></path><path d="M123.164 34.7066C123.164 35.8202 124.018 36.6739 125.206 36.6739C126.356 36.6739 127.247 35.7831 127.247 34.7066C127.247 33.6301 126.393 32.7393 125.206 32.7393C124.018 32.7393 123.164 33.6301 123.164 34.7066ZM124.241 34.7066C124.241 34.1498 124.612 33.7044 125.206 33.7044C125.8 33.7044 126.171 34.1869 126.171 34.7437C126.171 35.3005 125.8 35.7459 125.206 35.7459C124.612 35.7459 124.241 35.2634 124.241 34.7066Z" fill="black"></path><path d="M132.329 33.742V32.814H129.285V36.6002H130.325V35.2639H132.143V34.4101H130.325V33.742H132.329Z" fill="black"></path><path d="M132.294 38.7148H123.125V39.8284H132.294V38.7148Z" fill="black"></path><path d="M77.0996 19.6363C77.0996 20.3044 77.545 20.8241 78.1761 20.8241C79.2897 20.8241 80.329 19.7105 80.329 18.5598C80.329 17.8917 79.8836 17.372 79.2525 17.372C78.139 17.3349 77.0996 18.4484 77.0996 19.6363Z" fill="black"></path><path d="M1.74462 39.8664C3.00668 39.8664 4.3801 39.1982 5.75352 37.899C6.38455 38.0475 7.08983 38.196 7.83222 38.3816C10.876 39.0869 14.3653 39.8664 16.6295 39.8664C19.8218 39.8664 21.6036 38.1589 24.0163 35.5234C24.3133 35.2264 24.6474 34.8181 25.0185 34.3356C24.9443 34.8552 24.9072 35.3749 24.9072 35.8575C24.9072 38.3816 26.2064 39.8664 28.3222 39.8664C31.7001 39.8664 35.5605 36.9339 38.0846 34.1871C38.2702 33.9644 38.4929 33.7045 38.7156 33.4447C38.4558 34.6325 38.3445 35.8575 38.3816 36.971C38.4929 38.9755 39.6808 39.8664 40.7201 39.8664C42.3905 39.8664 44.8032 37.565 46.5479 35.0408C46.0282 36.3771 45.7312 37.3794 45.7312 38.1589C45.7312 39.1982 46.2509 39.8664 47.1047 39.8664C47.847 39.8664 48.7379 39.4581 49.8886 38.6043C51.1878 37.6021 53.2294 35.3749 54.8626 33.2962C54.5657 34.5212 54.4543 35.7832 54.4914 36.971C54.6028 38.9755 55.7906 39.8664 56.83 39.8664C58.5003 39.8664 60.9131 37.565 62.6577 35.0408C62.6948 35.0037 62.732 34.9295 62.7691 34.8924C62.2865 36.4143 62.1752 37.4165 62.1752 38.0475C62.1752 39.1982 62.732 39.8664 63.66 39.8664C65.219 39.8664 67.6317 38.3445 69.8589 35.9688C69.896 35.9317 70.5642 35.2264 71.3808 34.2242C70.4899 36.5256 70.2672 37.4536 70.2672 38.3074C70.2672 39.2353 70.824 39.8293 71.6406 39.8293C72.4202 39.8293 73.2739 39.4209 74.4246 38.5672C75.5011 37.7506 77.1715 36.0059 78.6191 34.2242L76.4291 39.6065H78.7676L81.8856 32.0342C83.0363 29.2502 84.1499 27.9139 85.0408 26.9117C86.7854 24.9814 87.9732 24.7958 88.4929 24.7958C89.0126 24.7958 89.5694 25.2042 89.5694 25.8723C89.5694 26.9859 88.6414 29.2502 87.6763 31.6258C86.6369 34.15 85.5976 36.7483 85.5976 38.1218C85.5976 39.1611 86.1173 39.8293 86.971 39.8293C87.7134 39.8293 88.6043 39.4209 89.755 38.5672C91.017 37.6021 93.0215 35.4491 94.6176 33.4076C94.3578 34.5954 94.2464 35.8203 94.2835 36.9339C94.3949 38.9384 95.5827 39.8293 96.6221 39.8293C98.2924 39.8293 100.705 37.5278 102.45 35.0037C102.264 35.4863 102.079 35.8946 101.893 36.3029C100.705 38.9384 99.4432 41.1284 98.7379 42.242C95.9168 46.7335 92.576 48.9606 88.6043 48.9606C84.9294 48.9606 83.9643 46.9562 83.9272 45.3229C83.9272 44.6548 84.0386 44.0609 84.7067 42.7988L84.1128 42.2049C82.8879 43.3927 82.4053 44.7661 82.4053 45.657C82.4053 47.0304 83.0363 48.144 84.2613 48.9235C85.3006 49.5917 86.7854 50 88.2702 50C92.9472 50 97.5872 47.2903 100.52 42.5761C100.779 42.1307 101.188 41.4996 101.485 40.9799L101.522 40.9428C103.601 37.3051 105.011 33.853 106.31 30.5865L109.317 23.1997H106.978L106.533 24.2391C106.05 23.5709 105.531 23.1997 104.937 23.0883C104.083 22.8656 102.821 23.1255 101.819 23.608C100.148 24.3875 98.4038 25.8723 96.9933 27.8768C96.1766 29.0275 95.5085 30.3267 95.0259 31.663C92.576 34.9295 89.2353 38.0846 88.3073 38.0846C88.0846 38.0846 87.9732 37.899 87.9732 37.565C87.9732 36.7112 88.827 34.7068 89.6807 32.5909C90.7943 29.9555 92.0193 26.9859 92.0193 25.3526C92.0193 23.4967 90.6087 23.0141 89.9034 23.0141C88.4929 22.977 86.8596 24.0535 86.0059 24.7216C85.0779 25.464 84.2242 26.4662 83.5931 27.2086L85.3749 23.1997H83.0363L79.4357 31.997C77.023 35.1522 73.8678 38.0846 72.977 38.0846C72.68 38.0846 72.6429 37.7506 72.6429 37.6392C72.6429 37.2309 72.8656 36.1544 74.87 31.2175L78.1366 23.2368H75.798L72.3088 31.7001C72.2717 31.8485 72.1974 31.9599 72.1603 32.1084C70.9725 33.6674 69.6362 35.1151 68.7453 35.9317C67.1863 37.3794 65.9242 38.1218 65.0705 38.1218C64.8107 38.1218 64.5508 38.0104 64.5508 37.3422C64.5508 36.7483 64.7364 34.8552 66.4068 30.6236C68.968 24.3133 73.5337 13.9941 75.2784 10.8389C78.879 11.4699 83.5931 12.1381 88.3444 12.1381C92.3905 12.1381 95.6941 11.3215 97.8841 9.76244C99.5545 8.57462 100.557 6.94135 100.557 5.38233C100.557 2.11581 96.9562 0 91.3511 0C87.4164 0 83.1848 1.33631 79.6956 3.63772C77.4684 5.1225 75.5753 7.0156 74.0534 9.20565L73.7565 9.1314C68.9309 8.05494 63.9569 6.94136 59.0943 6.94136C54.7513 6.94136 51.1878 8.31477 48.2182 11.5071L48.5894 12.3237C50.2227 10.5419 52.5983 8.53749 57.1269 8.53749C61.8411 8.53749 67.5575 9.53972 73.1254 10.4677H73.1625C71.5664 13.1774 69.7476 17.2235 68.0029 21.1581C67.6689 21.8634 66.5924 24.2391 66.5924 24.2391C66.1098 23.5709 65.5902 23.1997 64.9963 23.0883C64.1425 22.8656 62.8804 23.1255 61.8782 23.608C60.2078 24.3875 58.4632 25.8723 57.0527 27.8768C56.2732 28.9903 55.6421 30.2153 55.1596 31.4774C52.7097 34.8181 49.2205 38.0846 48.2925 38.0846C48.0698 38.0846 47.9584 37.899 47.9584 37.565C47.9584 36.5999 48.6637 34.4469 50.2227 30.5865L53.2294 23.1997H50.8908L50.4454 24.2391C49.9629 23.5709 49.4432 23.1997 48.8493 23.0883C47.9955 22.8656 46.7335 23.1255 45.7312 23.608C44.0609 24.3875 42.3162 25.8723 40.9057 27.8768C40.0891 29.0275 39.4209 30.3267 38.9384 31.663C38.4929 32.294 38.0846 32.7394 37.6763 33.1849C35.5605 35.5976 31.8114 38.1218 29.2502 38.1218C27.8396 38.1218 27.0972 37.1938 27.0972 35.412C27.0972 34.781 27.1715 34.1128 27.32 33.3704C27.5798 33.3333 27.8768 33.2962 28.1737 33.2591C29.3244 33.1477 31.2175 32.7023 32.1455 32.294C35.7832 30.6607 36.971 27.1715 36.971 25.7609C36.971 24.0534 35.6718 23.0141 34.4098 23.0141C32.5538 23.0141 30.0668 24.4246 28.4707 26.3549C26.9488 28.2108 25.7238 30.5865 25.0928 32.8508C24.3133 33.8159 23.5709 34.6325 23.1626 35.0779C21.121 37.0824 19.7105 37.7134 17.1492 37.7134C15.7016 37.7134 13.1774 37.268 10.7275 36.8226C9.46547 36.5999 8.20341 36.3771 7.08983 36.2287C8.57461 34.3356 9.53971 32.3682 9.87379 31.5887C10.9503 29.1759 12.0267 26.4291 12.9547 23.9792C13.4744 22.6058 13.9569 21.3437 14.4024 20.2673C15.2561 18.1514 17.7802 13.2517 22.0861 13.2517C24.5731 13.2517 24.9072 15.3304 24.9072 16.5553C24.9072 20.5642 21.8634 24.9443 19.1165 24.9443C18.8567 24.9443 18.4855 24.9072 18.1886 24.6845C17.8916 24.4989 17.7802 24.2762 17.706 24.0906L16.9636 24.6474C17.1121 24.9072 17.3719 25.2784 17.6689 25.4269C18.2628 25.7981 18.8196 25.8352 19.1908 25.8352C20.7127 25.8352 22.4573 25.0928 23.905 23.7936C25.7981 22.1232 27.0972 19.3022 27.0972 16.9265C27.0972 14.1054 25.2413 12.3979 22.1232 12.3979C20.9725 12.3979 15.1448 12.7691 11.9154 20.0817C11.3214 21.4551 10.5791 23.3482 9.1314 27.1344C8.64885 28.3593 8.12917 29.7699 7.46102 31.4402C7.08983 32.4053 6.34744 34.2242 5.30809 35.9688C5.01113 35.9317 4.7513 35.9317 4.5657 35.9317C1.7075 35.9317 0 37.2309 0 38.5301C0.222717 39.3467 0.779509 39.8664 1.74462 39.8664ZM100.779 26.4291C102.042 24.7587 102.97 24.3504 103.452 24.1648C103.712 24.0535 104.157 23.9421 104.491 23.9421C105.085 23.9421 105.753 24.2019 106.31 25.0186L104.046 30.438V30.4751C102.673 33.7788 99.2947 37.7506 97.9955 37.9733C97.3645 38.0475 96.8077 37.7134 96.8077 36.4885C96.7706 33.1106 98.775 29.0275 100.779 26.4291ZM81.0319 4.12027C84.0014 2.00446 87.8248 0.74239 91.314 0.74239C97.1789 0.74239 99.7772 3.04381 99.7772 5.3081C99.7772 8.27766 96.0653 11.2472 88.9755 11.2472C84.2984 11.2472 79.8441 10.3935 76.095 9.57684C77.1715 7.79511 78.5449 5.93913 81.0319 4.12027ZM60.9502 26.4291C62.2123 24.7587 63.1403 24.3504 63.6228 24.1648C63.8827 24.0535 64.3281 23.9421 64.6622 23.9421C65.2561 23.9421 65.9242 24.2019 66.481 25.0186L64.2168 30.438C62.8433 33.7416 59.4655 37.7506 58.1663 37.9362C57.5352 38.0104 56.9784 37.6763 56.9784 36.4514C56.9413 33.1106 58.9829 29.0275 60.9502 26.4291ZM44.8032 26.4291C46.0653 24.7587 46.9933 24.3504 47.4758 24.1648C47.7357 24.0535 48.1811 23.9421 48.5152 23.9421C49.1091 23.9421 49.7773 24.2019 50.334 25.0186L48.0698 30.438C46.6963 33.7416 43.3185 37.7506 42.0193 37.9362C41.3883 38.0104 40.8315 37.6763 40.8315 36.4514C40.8315 33.1106 42.8359 29.0275 44.8032 26.4291ZM30.5865 26.392C31.5887 24.9443 32.7394 24.0906 33.6303 24.0906C34.781 24.0906 34.8552 25.4269 34.8552 25.6867C34.8552 27.654 33.4818 30.4009 31.1804 31.663C30.5494 32.0342 29.3244 32.4425 28.3593 32.5538C28.1737 32.5909 27.951 32.5909 27.7654 32.6281C28.3593 30.438 29.51 27.8768 30.5865 26.392ZM2.8582 37.4165C3.2294 37.4165 3.78619 37.4907 4.34298 37.6021C3.52635 38.6043 2.63548 39.1611 1.78174 39.1611C1.41054 39.1611 1.03935 38.9755 1.03935 38.5301C1.07647 37.9733 1.67038 37.4165 2.8582 37.4165Z" fill="black"></path><path d="M219.566 34.5215C219.566 33.5935 220.309 32.8511 221.237 32.8511C222.165 32.8511 222.907 33.5935 222.907 34.5215C222.907 35.4495 222.165 36.1919 221.237 36.1919C220.309 36.1919 219.566 35.4495 219.566 34.5215ZM222.759 34.5215C222.759 33.6677 222.128 32.9996 221.274 32.9996C220.42 32.9996 219.752 33.6677 219.752 34.5215C219.752 35.3381 220.383 36.0063 221.237 36.0063C222.091 36.0434 222.759 35.3381 222.759 34.5215ZM220.569 33.5935H221.348C221.571 33.5935 221.756 33.6677 221.868 33.7791C221.942 33.8533 222.016 34.0018 222.016 34.1503C222.016 34.4472 221.831 34.5957 221.608 34.6699L222.091 35.3381H221.682L221.237 34.7442H220.866V35.3381H220.532V33.5935H220.569ZM221.348 34.4472C221.571 34.4472 221.682 34.3359 221.682 34.1874C221.682 34.0018 221.571 33.9275 221.348 33.9275H220.903V34.4843H221.348V34.4472Z" fill="black"></path></svg>