<svg xmlns="http://www.w3.org/2000/svg" width="187" height="45" viewBox="0 0 187 45" fill="none"><g clip-path="url(#clip0_1722_8580)"><path d="M39.3491 12.6666C39.3491 18.2042 36.1777 23.3888 30.6758 25.1342V23.6904C33.2951 22.2659 34.6433 19.8469 34.6433 12.5575C34.6433 3.01596 30.496 1.46955 26.1048 1.46955H15.9805V37.8969H11.5508V0.0322266H26.1048C31.2407 0.0386432 39.3491 1.68131 39.3491 12.6666Z" fill="black"></path><path d="M0 44.8333V0.0385742H4.35914V43.3959H15.9792V44.8333H0Z" fill="black"></path><path d="M23.0977 7.27002H27.5274V44.8331H23.0977V7.27002Z" fill="black"></path><path d="M184.504 44.8269V43.7553L179.451 43.8516V33.8993H177.538V44.8269H184.504ZM171.093 40.0914H167.953L169.539 36.5173L171.093 40.0914ZM175.278 44.8269L170.252 33.771H169.738L164.602 44.8269H165.847L167.529 41.0667H171.51L173.14 44.8269H175.278ZM161.841 45.0001H162.355V33.8993H161.251L161.373 41.5801L154.298 33.7774H153.739V44.8333H154.844L154.722 37.1526L161.841 45.0001ZM148.591 39.3727C148.591 41.9522 147.005 43.9927 144.995 43.9927C142.992 43.9927 141.4 41.9587 141.4 39.3727C141.4 36.7932 142.986 34.7399 144.995 34.7399C147.005 34.7399 148.591 36.7932 148.591 39.3727ZM150.594 39.3727C150.594 36.2671 148.103 33.7774 144.995 33.7774C141.882 33.7774 139.397 36.2671 139.397 39.3727C139.397 42.4656 141.888 44.9552 144.995 44.9552C148.109 44.9552 150.594 42.4656 150.594 39.3727ZM136.072 33.8993H134.146V44.8269H136.072V33.8993ZM131.244 34.9453V33.9058H123.174V34.9453L126.256 34.8811V44.8333H128.169V34.8811L131.244 34.9453ZM118.539 40.0914H115.393L116.979 36.5173L118.539 40.0914ZM122.725 44.8269L117.698 33.771H117.184L112.055 44.8269H113.3L114.982 41.0667H118.963L120.593 44.8269H122.725ZM109.288 45.0001H109.801V33.8993H108.697L108.819 41.5801L101.744 33.7774H101.186V44.8333H102.29L102.168 37.1526L109.288 45.0001ZM92.0824 34.8811H93.4819C94.7402 34.8811 95.9086 35.6126 95.9086 37.1847C95.9086 38.7567 94.7402 39.4882 93.4819 39.4882H92.0824V34.8811ZM98.849 44.8269L94.6311 40.2582C96.5121 40.1171 97.8988 38.8273 97.8988 37.1782C97.8988 35.3302 96.2682 33.8993 93.9955 33.8993H90.1692V44.8269H92.0824V40.085L96.4222 44.8269H98.849ZM86.6254 44.8269V43.7553L81.5729 43.8516V39.7962L86.4264 39.8283V38.7888L81.5729 38.8209V34.8875L86.6254 34.9838V33.9122H79.6533V44.8397H86.6254V44.8269ZM76.9506 34.9453V33.9058H68.8807V34.9453L71.9623 34.8811V44.8333H73.8754V34.8811L76.9506 34.9453ZM65.6579 45.0001H66.1715V33.8993H65.0673L65.1892 41.5801L58.1145 33.7774H57.5559V44.8333H58.6602L58.5382 37.1526L65.6579 45.0001ZM53.4793 33.8993H51.5469V44.8269H53.4793V33.8993Z" fill="black"></path><path d="M144.634 22.4264C144.634 25.0059 143.049 27.04 141.039 27.04C139.03 27.04 137.444 25.0059 137.444 22.4264C137.444 19.8469 139.03 17.7936 141.039 17.7936C143.049 17.7936 144.634 19.8469 144.634 22.4264ZM146.644 22.4264C146.644 19.3143 144.153 16.8311 141.046 16.8311C137.932 16.8311 135.447 19.3207 135.447 22.4264C135.447 25.5192 137.938 28.0089 141.046 28.0089C144.153 28.0089 146.644 25.5192 146.644 22.4264ZM132.115 16.953H130.189V27.8805H132.115V16.953ZM127.14 27.8805V26.809L122.087 26.9052V16.953H120.174V27.8805H127.14ZM115.026 22.4264C115.026 25.0059 113.44 27.04 111.43 27.04C109.421 27.04 107.835 25.0059 107.835 22.4264C107.835 19.8469 109.421 17.7936 111.43 17.7936C113.44 17.7936 115.026 19.8469 115.026 22.4264ZM117.029 22.4264C117.029 19.3143 114.538 16.8311 111.43 16.8311C108.317 16.8311 105.832 19.3207 105.832 22.4264C105.832 25.5192 108.323 28.0089 111.43 28.0089C114.544 28.0089 117.029 25.5192 117.029 22.4264ZM103.283 18.0246V16.953H96.3179V27.8805H98.2759V22.8435L103.084 22.8756V21.8361L98.2759 21.8681V17.9347L103.283 18.0246ZM93.6087 17.9925V16.953H85.5388V17.9925L88.6203 17.9283V27.8805H90.5335V17.9283L93.6087 17.9925ZM77.6166 17.9347H79.0161C80.2744 17.9347 81.4429 18.6662 81.4429 20.2383C81.4429 21.8104 80.2744 22.5419 79.0161 22.5419H77.6166V17.9347ZM84.3832 27.8805L80.1653 23.3119C82.0463 23.1707 83.433 21.881 83.433 20.2319C83.433 18.3839 81.8024 16.953 79.5297 16.953H75.7034V27.8805H77.6166V23.1386L81.9565 27.8805H84.3832ZM70.5547 22.4264C70.5547 25.0059 68.9689 27.04 66.9595 27.04C64.95 27.04 63.3643 25.0059 63.3643 22.4264C63.3643 19.8469 64.95 17.7936 66.9595 17.7936C68.9689 17.7936 70.5547 19.8469 70.5547 22.4264ZM72.5641 22.4264C72.5641 19.3143 70.0732 16.8311 66.9659 16.8311C63.8522 16.8311 61.3677 19.3207 61.3677 22.4264C61.3677 25.5192 63.8587 28.0089 66.9659 28.0089C70.0732 28.0089 72.5641 25.5192 72.5641 22.4264ZM57.0214 20.1741C57.0214 21.573 56.0263 22.4136 54.8258 22.4136H53.4263V17.9347H54.8258C56.0263 17.9347 57.0214 18.7753 57.0214 20.1741ZM59.018 20.1741C59.018 18.3261 57.5864 16.9594 55.5641 16.9594H51.5195V27.887H53.4327V23.3761H55.5641C57.5864 23.3761 59.018 22.0221 59.018 20.1741Z" fill="black"></path><path d="M115.674 0.00640334H114.229L111.071 5.03065L107.739 0.00640334H105.434L109.556 6.10223V10.934H111.546V6.10223L115.674 0.00640334ZM98.0833 0.988151H99.4829C100.741 0.988151 101.91 1.71965 101.91 3.29173C101.91 4.86381 100.741 5.59532 99.4829 5.59532H98.0833V0.988151ZM104.85 10.934L100.632 6.36531C102.513 6.22414 103.9 4.9344 103.9 3.28532C103.9 1.43733 102.269 0.00640334 99.9965 0.00640334H96.1702V10.934H98.0833V6.19207L102.423 10.934H104.85ZM92.3439 6.50648V0.00640334H90.4308V6.45515C90.4308 8.67532 89.6411 10.0806 88.004 10.0806C86.367 10.0806 85.5773 8.68173 85.5773 6.45515V0.00640334H83.6642V6.50648C83.6642 9.33622 85.5003 11.0623 88.004 11.0623C90.5271 11.0623 92.3439 9.33622 92.3439 6.50648ZM81.2888 10.934L77.1543 5.01141L81.0127 0.00640334H79.549L76.5637 4.11306L73.7004 0.00640334H71.4278L75.2861 5.55681L71.2287 10.934H72.7053L75.9089 6.4744L79.0033 10.934H81.2888ZM68.879 6.50648V0.00640334H66.9659V6.45515C66.9659 8.67532 66.1698 10.0806 64.5392 10.0806C62.9085 10.0806 62.1124 8.68173 62.1124 6.45515V0.00640334H60.1993V6.50648C60.1993 9.33622 62.0354 11.0623 64.5392 11.0623C67.0558 11.0623 68.879 9.33622 68.879 6.50648ZM58.4852 10.934V9.8624L53.4327 9.95222V0H51.5195V10.9276H58.4852V10.934Z" fill="black"></path><path d="M183.712 35.3685C183.712 34.6948 184.265 34.143 184.939 34.143C185.613 34.143 186.165 34.6884 186.165 35.3685C186.165 36.0423 185.613 36.5941 184.939 36.5941C184.265 36.5941 183.712 36.0423 183.712 35.3685ZM183.449 35.3685C183.449 36.1899 184.117 36.8572 184.939 36.8572C185.76 36.8572 186.428 36.1899 186.428 35.3685C186.428 34.5472 185.76 33.8799 184.939 33.8799C184.117 33.8799 183.449 34.5472 183.449 35.3685ZM184.675 34.7718H184.907C185.099 34.7654 185.311 34.7782 185.311 35.0092C185.311 35.2402 185.099 35.2466 184.907 35.2466H184.675V34.7718ZM184.367 36.2091H184.682V35.5161H184.913L185.337 36.2091H185.664L185.221 35.4905C185.452 35.4648 185.632 35.3172 185.632 35.022C185.632 34.6948 185.439 34.5087 185.029 34.5087H184.374V36.2091H184.367Z" fill="black"></path></g><defs><clipPath id="clip0_1722_8580"><rect width="186.429" height="45" fill="white"></rect></clipPath></defs></svg>