<svg width="18" height="18" viewBox="0 0 18 18" fill="none" xmlns="http://www.w3.org/2000/svg">
<path d="M15.549 9.81367L10.776 14.5866C10.6266 14.7361 10.4239 14.82 10.2126 14.82C10.0012 14.82 9.79853 14.7361 9.64909 14.5866C9.49964 14.4372 9.41569 14.2345 9.41569 14.0232C9.41569 13.8118 9.49964 13.6091 9.64909 13.4597L13.0637 10.0464L3.31893 10.0464C3.10795 10.0464 2.90562 9.96254 2.75643 9.81336C2.60725 9.66418 2.52344 9.46184 2.52344 9.25086C2.52344 9.03988 2.60725 8.83754 2.75643 8.68836C2.90562 8.53917 3.10795 8.45536 3.31893 8.45536L13.0637 8.45536L9.65041 5.04004C9.50097 4.8906 9.41701 4.68791 9.41701 4.47656C9.41701 4.26522 9.50097 4.06253 9.65041 3.91309C9.79985 3.76364 10.0025 3.67969 10.2139 3.67969C10.4252 3.67969 10.6279 3.76364 10.7774 3.91309L15.5503 8.68606C15.6245 8.76006 15.6833 8.84799 15.7234 8.94479C15.7635 9.04159 15.7841 9.14536 15.784 9.25014C15.7839 9.35492 15.763 9.45864 15.7227 9.55535C15.6824 9.65205 15.6234 9.73984 15.549 9.81367Z" fill="#C6A45A"/>
</svg>
