<svg width="25" height="24" viewBox="0 0 25 24" fill="none" xmlns="http://www.w3.org/2000/svg">
<path d="M17.3237 7.87496V14.625C17.3237 14.8363 17.2398 15.039 17.0903 15.1884C16.9409 15.3379 16.7382 15.4218 16.5269 15.4218C16.3155 15.4218 16.1128 15.3379 15.9634 15.1884C15.8139 15.039 15.73 14.8363 15.73 14.625L15.7309 9.79684L8.84029 16.6875C8.69111 16.8366 8.48877 16.9205 8.27779 16.9205C8.06681 16.9205 7.86448 16.8366 7.71529 16.6875C7.56611 16.5383 7.4823 16.3359 7.4823 16.125C7.4823 15.914 7.56611 15.7116 7.71529 15.5625L14.6059 8.67184L9.77732 8.67043C9.56598 8.67043 9.36329 8.58647 9.21385 8.43703C9.0644 8.28759 8.98045 8.0849 8.98045 7.87355C8.98045 7.66221 9.0644 7.45952 9.21385 7.31008C9.36329 7.16064 9.56598 7.07668 9.77732 7.07668L16.5273 7.07668C16.6321 7.07656 16.7359 7.09714 16.8327 7.13723C16.9295 7.17733 17.0174 7.23616 17.0914 7.31033C17.1654 7.38451 17.224 7.47258 17.2639 7.56947C17.3038 7.66637 17.3241 7.77018 17.3237 7.87496Z" fill="white"/>
</svg>
