<svg width="49" height="48" viewBox="0 0 49 48" fill="none" xmlns="http://www.w3.org/2000/svg">
<path fill-rule="evenodd" clip-rule="evenodd" d="M18.757 10.88C20.1646 10.8152 20.6134 10.8008 24.199 10.8008C27.7846 10.8008 28.2334 10.8164 29.6398 10.88C31.0462 10.9436 32.0062 11.168 32.8462 11.4932C33.7258 11.8256 34.5238 12.3452 35.1838 13.0172C35.8558 13.676 36.3742 14.4728 36.7054 15.3536C37.0318 16.1936 37.255 17.1536 37.3198 18.5576C37.3846 19.9676 37.399 20.4164 37.399 24.0008C37.399 27.5864 37.3834 28.0352 37.3198 29.4428C37.2562 30.8468 37.0318 31.8068 36.7054 32.6468C36.3742 33.5277 35.855 34.3258 35.1838 34.9856C34.5238 35.6576 33.7258 36.176 32.8462 36.5072C32.0062 36.8336 31.0462 37.0568 29.6422 37.1216C28.2334 37.1864 27.7846 37.2008 24.199 37.2008C20.6134 37.2008 20.1646 37.1852 18.757 37.1216C17.353 37.058 16.393 36.8336 15.553 36.5072C14.6721 36.1759 13.874 35.6567 13.2142 34.9856C12.5427 34.3264 12.023 33.5286 11.6914 32.648C11.3662 31.808 11.143 30.848 11.0782 29.444C11.0134 28.034 10.999 27.5852 10.999 24.0008C10.999 20.4152 11.0146 19.9664 11.0782 18.56C11.1418 17.1536 11.3662 16.1936 11.6914 15.3536C12.0235 14.4729 12.5436 13.6752 13.2154 13.016C13.8743 12.3446 14.6716 11.8249 15.5518 11.4932C16.3918 11.168 17.3518 10.9448 18.7558 10.88H18.757ZM29.533 13.256C28.141 13.1924 27.7234 13.1792 24.199 13.1792C20.6746 13.1792 20.257 13.1924 18.865 13.256C17.5774 13.3148 16.879 13.5296 16.4134 13.7108C15.7978 13.9508 15.3574 14.2352 14.8954 14.6972C14.4575 15.1232 14.1204 15.6419 13.909 16.2152C13.7278 16.6808 13.513 17.3792 13.4542 18.6668C13.3906 20.0588 13.3774 20.4764 13.3774 24.0008C13.3774 27.5252 13.3906 27.9428 13.4542 29.3348C13.513 30.6224 13.7278 31.3208 13.909 31.7864C14.1202 32.3588 14.4574 32.8784 14.8954 33.3044C15.3214 33.7424 15.841 34.0796 16.4134 34.2908C16.879 34.472 17.5774 34.6868 18.865 34.7456C20.257 34.8092 20.6734 34.8224 24.199 34.8224C27.7246 34.8224 28.141 34.8092 29.533 34.7456C30.8206 34.6868 31.519 34.472 31.9846 34.2908C32.6002 34.0508 33.0406 33.7664 33.5026 33.3044C33.9406 32.8784 34.2778 32.3588 34.489 31.7864C34.6702 31.3208 34.885 30.6224 34.9438 29.3348C35.0074 27.9428 35.0206 27.5252 35.0206 24.0008C35.0206 20.4764 35.0074 20.0588 34.9438 18.6668C34.885 17.3792 34.6702 16.6808 34.489 16.2152C34.249 15.5996 33.9646 15.1592 33.5026 14.6972C33.0765 14.2593 32.5579 13.9222 31.9846 13.7108C31.519 13.5296 30.8206 13.3148 29.533 13.256ZM22.513 28.07C23.4546 28.4619 24.5031 28.5148 25.4793 28.2196C26.4556 27.9245 27.2991 27.2995 27.8658 26.4515C28.4324 25.6035 28.6871 24.585 28.5863 23.5701C28.4855 22.5552 28.0354 21.6067 27.313 20.8868C26.8525 20.4266 26.2957 20.0742 25.6826 19.855C25.0696 19.6358 24.4155 19.5552 23.7676 19.6191C23.1197 19.683 22.494 19.8898 21.9356 20.2245C21.3772 20.5593 20.8999 21.0137 20.5382 21.555C20.1765 22.0963 19.9392 22.7111 19.8436 23.3551C19.748 23.9991 19.7964 24.6563 19.9853 25.2794C20.1741 25.9025 20.4988 26.4759 20.9359 26.9584C21.373 27.441 21.9116 27.8206 22.513 28.07ZM19.4014 19.2032C20.0315 18.5732 20.7794 18.0734 21.6026 17.7324C22.4258 17.3914 23.308 17.216 24.199 17.216C25.09 17.216 25.9723 17.3914 26.7955 17.7324C27.6186 18.0734 28.3666 18.5732 28.9966 19.2032C29.6267 19.8332 30.1264 20.5812 30.4674 21.4043C30.8084 22.2275 30.9839 23.1098 30.9839 24.0008C30.9839 24.8918 30.8084 25.7741 30.4674 26.5972C30.1264 27.4204 29.6267 28.1684 28.9966 28.7984C27.7242 30.0708 25.9985 30.7856 24.199 30.7856C22.3996 30.7856 20.6738 30.0708 19.4014 28.7984C18.129 27.526 17.4142 25.8002 17.4142 24.0008C17.4142 22.2013 18.129 20.4756 19.4014 19.2032ZM32.4886 18.2264C32.6448 18.0791 32.7697 17.902 32.8562 17.7056C32.9426 17.5091 32.9888 17.2973 32.9919 17.0827C32.9951 16.8681 32.9551 16.655 32.8744 16.4562C32.7937 16.2573 32.6739 16.0766 32.5222 15.9248C32.3704 15.7731 32.1897 15.6533 31.9909 15.5726C31.792 15.4919 31.5789 15.452 31.3643 15.4551C31.1497 15.4582 30.9379 15.5044 30.7415 15.5908C30.545 15.6773 30.3679 15.8023 30.2206 15.9584C29.9342 16.262 29.7774 16.6653 29.7835 17.0827C29.7896 17.5001 29.9581 17.8986 30.2532 18.1938C30.5484 18.4889 30.9469 18.6575 31.3643 18.6635C31.7817 18.6696 32.185 18.5128 32.4886 18.2264Z" fill="#353635"/>
<circle cx="24.1997" cy="24" r="23.4" stroke="#C6A45A" stroke-width="1.2"/>
</svg>
