<svg width="24" height="23" viewBox="0 0 24 23" fill="none" xmlns="http://www.w3.org/2000/svg">
<path fill-rule="evenodd" clip-rule="evenodd" d="M4.125 11.75C4.125 11.284 4.50276 10.9062 4.96875 10.9062L16.9364 10.9062L12.2589 6.45195C11.923 6.12897 11.9126 5.59484 12.2355 5.25894C12.5585 4.92304 13.0927 4.91256 13.4286 5.23555L19.6161 11.1418C19.7815 11.3009 19.875 11.5205 19.875 11.75C19.875 11.9795 19.7815 12.1991 19.6161 12.3582L13.4286 18.2645C13.0927 18.5874 12.5585 18.577 12.2355 18.2411C11.9126 17.9052 11.923 17.371 12.2589 17.048L16.9364 12.5937L4.96875 12.5937C4.50276 12.5937 4.125 12.216 4.125 11.75Z" fill="white"/>
</svg>
