<svg width="26" height="27" viewBox="0 0 26 27" fill="none" xmlns="http://www.w3.org/2000/svg">
<g clip-path="url(#clip0_51_7437)">
<path d="M25.8504 12.6843C25.8504 12.9473 25.6372 13.1606 25.3742 13.1606H24.5804V16.3093C24.5804 17.905 23.7369 19.3069 22.4729 20.0943L23.4252 21.8656C23.5498 22.0973 23.463 22.386 23.2313 22.5107C23.1595 22.5491 23.0824 22.5676 23.0062 22.5676C22.8365 22.5676 22.6723 22.4766 22.5864 22.3168L21.6144 20.5089C21.148 20.675 20.6464 20.7662 20.1236 20.7662H6.37717C5.93012 20.7662 5.49855 20.6992 5.09114 20.5763L4.15537 22.3168C4.06941 22.4767 3.90511 22.5676 3.73558 22.5676C3.65938 22.5676 3.58224 22.5492 3.51045 22.5107C3.27877 22.386 3.19198 22.0973 3.31651 21.8656L4.21085 20.2022C2.84588 19.4395 1.92035 17.9807 1.92035 16.3092V13.1604H1.12661C0.863618 13.1604 0.650391 12.9472 0.650391 12.6842C0.650391 12.4212 0.863618 12.208 1.12661 12.208H2.39657H24.1042H25.3742C25.6372 12.2081 25.8504 12.4214 25.8504 12.6843ZM1.12661 8.19157H6.25585C6.68255 8.19157 7.02971 8.53874 7.02971 8.96543V9.9774C7.02971 10.2404 7.24294 10.4536 7.50593 10.4536C7.76892 10.4536 7.98215 10.2404 7.98215 9.9774V8.96543C7.98215 8.01359 7.2077 7.23913 6.25585 7.23913H1.12661C0.863618 7.23913 0.650391 7.45236 0.650391 7.71535C0.650391 7.97834 0.863618 8.19157 1.12661 8.19157ZM1.75165 6.73767H2.56515C2.82814 6.73767 3.04137 6.52445 3.04137 6.26145V5.01138C3.04137 4.74838 2.82814 4.53516 2.56515 4.53516H1.75165C1.14435 4.53516 0.650391 5.02912 0.650391 5.63641C0.650391 6.24371 1.14435 6.73767 1.75165 6.73767Z" fill="white"/>
</g>
<defs>
<clipPath id="clip0_51_7437">
<rect width="25.2" height="25.2" fill="white" transform="translate(0.650391 0.949219)"/>
</clipPath>
</defs>
</svg>
