<svg width="26" height="26" viewBox="0 0 26 26" fill="none" xmlns="http://www.w3.org/2000/svg">
<g clip-path="url(#clip0_51_7432)">
<path d="M2.77002 5.28906C1.93723 5.28906 1.25802 5.96828 1.25802 6.80106V13.7626C1.91164 13.1956 2.73852 12.7368 3.77802 12.3766V10.3291C3.77802 8.98834 6.06767 8.81706 8.06202 8.81706C10.0564 8.81706 12.346 8.98834 12.346 10.3291V11.3371C12.5153 11.3351 12.6768 11.3371 12.85 11.3371C13.0233 11.3371 13.1847 11.3351 13.354 11.3371V10.3291C13.354 8.98834 15.6437 8.81706 17.638 8.81706C19.6324 8.81706 21.922 8.98834 21.922 10.3291V12.3608C22.9595 12.7191 23.7825 13.1877 24.442 13.7626V6.80106C24.442 5.96828 23.7628 5.28906 22.93 5.28906H2.77002ZM12.85 12.3451C3.22677 12.3451 0.242141 14.1248 0.250016 18.8971H25.45C25.4579 14.0933 22.4733 12.3451 12.85 12.3451ZM0.250016 19.9051V25.4491H3.77802V23.4331C3.77802 22.7086 4.06152 22.4251 4.78602 22.4251H20.914C21.6385 22.4251 21.922 22.7086 21.922 23.4331V25.4491H25.45V19.9051H0.250016Z" fill="white"/>
</g>
<defs>
<clipPath id="clip0_51_7432">
<rect width="25.2" height="25.2" fill="white" transform="translate(0.25 0.25)"/>
</clipPath>
</defs>
</svg>
