<svg width="40" height="39" viewBox="0 0 40 39" fill="none" xmlns="http://www.w3.org/2000/svg">
<g filter="url(#filter0_ii_51_7372)">
<circle cx="20" cy="19.5" r="19.5" fill="white"/>
</g>
<path d="M18.5282 14.4871L19.015 15.3593C19.4542 16.1464 19.2779 17.179 18.586 17.8708C18.586 17.8708 17.7469 18.7101 19.2684 20.2316C20.7894 21.7526 21.6292 20.914 21.6292 20.914C22.321 20.2221 23.3536 20.0458 24.1407 20.4851L25.0129 20.9718C26.2015 21.6351 26.3418 23.3019 25.2971 24.3467C24.6694 24.9744 23.9003 25.4629 23.0502 25.4951C21.6191 25.5494 19.1887 25.1872 16.7508 22.7492C14.3128 20.3113 13.9507 17.8809 14.0049 16.4498C14.0371 15.5997 14.5256 14.8307 15.1534 14.2029C16.1981 13.1582 17.8649 13.2986 18.5282 14.4871Z" fill="#353635"/>
<defs>
<filter id="filter0_ii_51_7372" x="0.5" y="0" width="39" height="42" filterUnits="userSpaceOnUse" color-interpolation-filters="sRGB">
<feFlood flood-opacity="0" result="BackgroundImageFix"/>
<feBlend mode="normal" in="SourceGraphic" in2="BackgroundImageFix" result="shape"/>
<feColorMatrix in="SourceAlpha" type="matrix" values="0 0 0 0 0 0 0 0 0 0 0 0 0 0 0 0 0 0 127 0" result="hardAlpha"/>
<feOffset dy="3"/>
<feGaussianBlur stdDeviation="1.5"/>
<feComposite in2="hardAlpha" operator="arithmetic" k2="-1" k3="1"/>
<feColorMatrix type="matrix" values="0 0 0 0 0 0 0 0 0 0 0 0 0 0 0 0 0 0 0.05 0"/>
<feBlend mode="normal" in2="shape" result="effect1_innerShadow_51_7372"/>
<feColorMatrix in="SourceAlpha" type="matrix" values="0 0 0 0 0 0 0 0 0 0 0 0 0 0 0 0 0 0 127 0" result="hardAlpha"/>
<feOffset/>
<feGaussianBlur stdDeviation="1.5"/>
<feComposite in2="hardAlpha" operator="arithmetic" k2="-1" k3="1"/>
<feColorMatrix type="matrix" values="0 0 0 0 0 0 0 0 0 0 0 0 0 0 0 0 0 0 0.05 0"/>
<feBlend mode="normal" in2="effect1_innerShadow_51_7372" result="effect2_innerShadow_51_7372"/>
</filter>
</defs>
</svg>
