<svg width="24" height="25" viewBox="0 0 24 25" fill="none" xmlns="http://www.w3.org/2000/svg">
<path d="M11.9603 2.31641C9.98916 2.31641 8.06231 2.90091 6.42339 3.996C4.78447 5.0911 3.50708 6.64759 2.75277 8.46867C1.99846 10.2897 1.8011 12.2936 2.18564 14.2268C2.57019 16.1601 3.51937 17.9359 4.91316 19.3297C6.30695 20.7235 8.08274 21.6726 10.016 22.0572C11.9492 22.4417 13.9531 22.2444 15.7742 21.49C17.5952 20.7357 19.1517 19.4584 20.2468 17.8194C21.3419 16.1805 21.9264 14.2537 21.9264 12.2825C21.9235 9.64026 20.8725 7.10703 19.0042 5.23866C17.1358 3.37028 14.6026 2.31934 11.9603 2.31641ZM11.9603 20.034C10.4272 20.034 8.92853 19.5794 7.65381 18.7276C6.37909 17.8759 5.38557 16.6653 4.79888 15.2489C4.2122 13.8325 4.05869 12.2739 4.35778 10.7703C4.65687 9.26668 5.39513 7.8855 6.47919 6.80145C7.56324 5.71739 8.94442 4.97914 10.448 4.68004C11.9517 4.38095 13.5102 4.53446 14.9266 5.12115C16.343 5.70783 17.5536 6.70135 18.4054 7.97607C19.2571 9.25079 19.7117 10.7495 19.7117 12.2825C19.7095 14.3377 18.8921 16.308 17.4389 17.7612C15.9857 19.2144 14.0154 20.0318 11.9603 20.034ZM18.2353 12.2825C18.2353 12.5762 18.1186 12.8579 17.9109 13.0656C17.7032 13.2732 17.4216 13.3899 17.1279 13.3899H11.9603C11.6666 13.3899 11.3849 13.2732 11.1773 13.0656C10.9696 12.8579 10.8529 12.5762 10.8529 12.2825V7.11492C10.8529 6.82123 10.9696 6.53957 11.1773 6.3319C11.3849 6.12423 11.6666 6.00757 11.9603 6.00757C12.254 6.00757 12.5356 6.12423 12.7433 6.3319C12.951 6.53957 13.0676 6.82123 13.0676 7.11492V11.1752H17.1279C17.4216 11.1752 17.7032 11.2919 17.9109 11.4995C18.1186 11.7072 18.2353 11.9889 18.2353 12.2825Z" fill="#353635"/>
</svg>
