<svg width="24" height="18" viewBox="0 0 24 18" fill="none" xmlns="http://www.w3.org/2000/svg">
<path d="M20.4108 0.505859H3.61656C1.83394 0.505859 0.388672 1.94346 0.388672 3.71662V14.2855C0.388672 16.0586 1.83394 17.4962 3.61656 17.4962H20.4108C22.1934 17.4962 23.6387 16.0586 23.6387 14.2855V3.71662C23.6387 1.94346 22.1934 0.505859 20.4108 0.505859ZM8.47922 11.9696L3.95909 15.8053C3.64027 16.076 3.16096 16.0384 2.88891 15.7209C2.61681 15.4038 2.65464 14.927 2.97383 14.6564L7.49395 10.8206C7.81273 10.55 8.29199 10.5876 8.56409 10.9051C8.83619 11.2222 8.79836 11.699 8.47922 11.9696ZM12.0137 10.5113C11.4091 10.5098 10.823 10.31 10.3648 9.91586L10.3652 9.91622L10.3637 9.91514C10.3641 9.9155 10.3645 9.9155 10.3648 9.91586L3.42943 3.92828C3.11246 3.65465 3.07872 3.17793 3.35341 2.86306C3.62846 2.54778 4.10776 2.51422 4.42427 2.78744L11.3616 8.77652C11.5099 8.90778 11.7542 9.00254 12.0137 9.00105C12.2728 9.00182 12.513 8.90963 12.6694 8.77394L12.6728 8.771L19.603 2.78749C19.9196 2.51426 20.3989 2.54782 20.6739 2.8631C20.9486 3.17793 20.9149 3.65469 20.5979 3.92833L13.6606 9.91771C13.2039 10.3078 12.6186 10.5106 12.0137 10.5113ZM21.1388 15.7209C20.8667 16.0384 20.3874 16.076 20.0686 15.8053L15.5485 11.9696C15.2293 11.6989 15.1915 11.2222 15.4636 10.9051C15.7357 10.5876 16.215 10.55 16.5338 10.8206L21.0539 14.6564C21.373 14.927 21.4108 15.4038 21.1388 15.7209Z" fill="white"/>
</svg>
