<svg width="442" height="175" viewBox="0 0 442 175" fill="none" xmlns="http://www.w3.org/2000/svg">
<g clip-path="url(#clip0_51_9268)">
<path fill-rule="evenodd" clip-rule="evenodd" d="M5.73025 136.751C2.99628 132.207 0.766082 127.21 -1.42183 122.752C-2.58565 124.548 -5.92084 144.195 -10.5283 175H-0.559535C2.45941 152.387 4.70432 138.364 5.73025 136.751Z" fill="white" fill-opacity="0.2"/>
<path fill-rule="evenodd" clip-rule="evenodd" d="M82.4676 174.999C77.167 169.85 72.1293 165.059 67.349 160.17C64.4072 165.003 61.3313 169.989 58.2627 174.999H82.4676Z" fill="white" fill-opacity="0.2"/>
<path fill-rule="evenodd" clip-rule="evenodd" d="M64.6196 157.7C59.148 151.951 54.0716 147.186 49.295 142.785C43.8988 150.22 38.8978 157.437 33.6211 165.437C35.98 168.326 38.3885 171.57 40.9092 175.002H53.8014C57.4344 169.065 61.038 163.325 64.6196 157.7Z" fill="white" fill-opacity="0.2"/>
<path fill-rule="evenodd" clip-rule="evenodd" d="M47.0573 140.429C42.3248 136.205 38.1567 132.19 34.11 128.326C29.3793 134.666 24.5255 141.427 19.793 148.098C23.4058 152.715 27.3937 157.436 31.4955 162.653C36.7097 155.114 41.7033 147.805 47.0573 140.429Z" fill="white" fill-opacity="0.2"/>
<path fill-rule="evenodd" clip-rule="evenodd" d="M32.1511 126.548C28.4188 123.281 24.8409 119.964 21.491 116.883C17.2972 122.436 12.9471 127.83 8.54004 133.584C11.6086 137.371 14.7379 141.368 18.0731 145.865C22.7707 139.39 27.5197 132.71 32.1529 126.548H32.1511Z" fill="white" fill-opacity="0.2"/>
<path fill-rule="evenodd" clip-rule="evenodd" d="M9.86406 105.548C7.29557 103.004 4.76752 100.735 2.32588 98.541C-1.13616 102.639 -4.91812 107.146 -8.36914 111.503C-6.41289 114.133 -4.14224 116.941 -1.87895 120.141C2.05194 114.996 5.89089 110.509 9.86406 105.548Z" fill="white" fill-opacity="0.2"/>
<path fill-rule="evenodd" clip-rule="evenodd" d="M0.905575 97.7877C-1.27682 95.652 -3.48495 93.7138 -5.40443 91.5488C-8.5006 95.2004 -11.7475 98.9634 -14.7646 102.615C-13.1191 105.082 -11.2842 107.554 -9.36841 110.189C-6.02036 106.085 -2.45167 101.805 0.905575 97.7877Z" fill="white" fill-opacity="0.2"/>
<path fill-rule="evenodd" clip-rule="evenodd" d="M136.959 166.483C127.699 160.249 119.68 154.345 111.313 148.918C106.323 157.384 101.137 165.753 95.8984 175.002H132.402C133.907 172.131 135.426 169.291 136.959 166.483Z" fill="white" fill-opacity="0.2"/>
<path fill-rule="evenodd" clip-rule="evenodd" d="M107.562 146.513C100.202 141.326 93.3183 136.358 86.9477 131.805C81.6048 139.757 76.3133 147.68 71.0439 156.093C77.2289 161.818 83.5592 168.192 90.794 174.382C96.341 164.634 102.107 155.535 107.562 146.513Z" fill="white" fill-opacity="0.2"/>
<path fill-rule="evenodd" clip-rule="evenodd" d="M83.899 129.682C77.7949 126.149 72.3932 122.253 67.1403 118.625C62.2938 125.113 57.2874 131.915 52.4482 139.011C57.3756 143.628 62.4299 148.34 68.0946 153.745C73.4926 145.279 78.5377 137.303 83.899 129.682Z" fill="white" fill-opacity="0.2"/>
<path fill-rule="evenodd" clip-rule="evenodd" d="M64.7496 116.698C59.6898 113.439 55.0768 110.137 50.633 107.363C46.1854 112.916 41.4529 119.212 36.9355 125.634C41.0724 129.267 45.4813 132.812 50.2395 136.883C54.8966 130.103 59.87 123.365 64.7496 116.698Z" fill="white" fill-opacity="0.2"/>
<path fill-rule="evenodd" clip-rule="evenodd" d="M48.5139 106.01C44.2815 103.499 40.4572 100.826 36.6642 98.6426C32.4465 103.6 28.4035 108.754 24.0957 114.293C27.4824 117.244 31.2092 120.254 34.9488 123.598C39.4203 117.734 44.0553 111.523 48.5139 106.01Z" fill="white" fill-opacity="0.2"/>
<path fill-rule="evenodd" clip-rule="evenodd" d="M23.4007 89.6965C20.4057 87.9064 17.6938 86.0103 14.9065 84.2695C11.4536 88.3727 7.89783 92.496 4.4082 96.6888C6.8958 98.691 9.47533 100.907 12.2516 103.134C15.9269 98.6142 19.6133 94.1929 23.4007 89.6965Z" fill="white" fill-opacity="0.2"/>
<path fill-rule="evenodd" clip-rule="evenodd" d="M13.3513 83.7119C10.8673 81.9693 8.36135 80.4005 5.97855 78.7969C3.01292 82.2144 -0.0887673 85.7891 -3.06543 89.3986C-1.03931 91.4191 1.11366 93.3335 3.35305 95.4162C6.64227 91.6147 9.99217 87.656 13.3513 83.7119Z" fill="white" fill-opacity="0.2"/>
<path fill-rule="evenodd" clip-rule="evenodd" d="M4.49478 77.8476C2.25722 76.489 0.455416 74.9001 -1.53393 73.6055C-4.35983 76.7578 -7.21147 79.8773 -9.88477 82.9876C-8.25578 84.6917 -6.44846 86.3557 -4.51059 88.2226C-1.43097 84.4705 1.57511 81.095 4.49294 77.8476H4.49478Z" fill="white" fill-opacity="0.2"/>
<path fill-rule="evenodd" clip-rule="evenodd" d="M290.045 78.8551C274.946 75.6772 261.072 72.5449 248.006 69.5645C242.97 77.6849 237.829 85.4396 233.016 93.7611C245.691 97.2883 259.675 101.834 275.16 106.464C280.197 96.8806 285.081 87.8148 290.047 78.8551H290.045Z" fill="white" fill-opacity="0.2"/>
<path fill-rule="evenodd" clip-rule="evenodd" d="M202.971 69.6861C192.43 67.3492 183.157 65.0453 173.927 63.3027C169.4 69.4319 164.471 75.7805 159.557 82.4363C168.562 85.1717 178.014 88.1083 188.172 91.3576C192.905 84.0581 198.057 76.5613 202.971 69.6842V69.6861Z" fill="white" fill-opacity="0.2"/>
<path fill-rule="evenodd" clip-rule="evenodd" d="M190.57 21.9814C182.175 21.645 174.321 21.1366 166.742 20.7344C162.478 25.3898 158.305 29.93 154.293 34.6475C161.644 35.3149 169.45 36.1633 177.755 37.3775C181.899 32.0602 186.036 26.9111 190.57 21.9814Z" fill="white" fill-opacity="0.2"/>
<path fill-rule="evenodd" clip-rule="evenodd" d="M235.174 175C224.413 169.293 214.343 163.895 204.86 158.693C202.15 164.02 199.434 169.452 196.75 175H235.173H235.174Z" fill="white" fill-opacity="0.2"/>
<path fill-rule="evenodd" clip-rule="evenodd" d="M198.417 155.353C186.062 148.784 175.175 142.45 164.524 136.781C158.937 146.447 153.214 156.842 147.518 167.217C151.004 169.795 154.552 172.381 158.191 175.001H188.827C192.072 168.286 195.262 161.761 198.417 155.353Z" fill="white" fill-opacity="0.2"/>
<path fill-rule="evenodd" clip-rule="evenodd" d="M159.597 134.235C149.954 129.503 141.051 125.107 132.873 120.75C127.604 128.75 121.991 137.336 116.922 146.196C124.888 151.714 133.458 157.377 142.881 163.477C148.325 153.259 154.008 143.767 159.597 134.235Z" fill="white" fill-opacity="0.2"/>
<path fill-rule="evenodd" clip-rule="evenodd" d="M128.397 119.539C120.43 115.465 113.17 111.903 106.286 108.5C101.541 115.244 96.5341 122.221 91.502 129.318C98.1117 133.819 105.348 138.782 112.969 144.002C118.198 135.196 123.241 127.407 128.397 119.537V119.539Z" fill="white" fill-opacity="0.2"/>
<path fill-rule="evenodd" clip-rule="evenodd" d="M102.04 106.017C95.6789 103.084 89.6722 100.224 83.9837 97.3789C79.4442 103.195 74.8845 109.334 70.3193 115.64C75.7045 119.369 81.3398 122.931 87.4917 126.487C92.2591 119.743 97.1883 112.843 102.04 106.019V106.017Z" fill="white" fill-opacity="0.2"/>
<path fill-rule="evenodd" clip-rule="evenodd" d="M80.6946 95.7135C75.5245 92.7915 70.5751 90.6357 65.6642 88.5C61.3914 93.938 57.0064 99.4948 52.5 105.11C57.1443 107.716 61.9999 110.74 66.8943 114.099C71.4282 107.884 76.1644 101.654 80.6946 95.7135Z" fill="white" fill-opacity="0.2"/>
<path fill-rule="evenodd" clip-rule="evenodd" d="M63.515 87.9018C59.152 85.7898 54.8442 83.8041 50.6504 82.0469C46.9365 86.7315 43.0075 91.3997 39.1299 96.0697C42.9376 98.4267 46.9696 100.965 51.0586 103.685C55.2653 98.3389 59.5124 92.9887 63.5131 87.9018H63.515Z" fill="white" fill-opacity="0.2"/>
<path fill-rule="evenodd" clip-rule="evenodd" d="M35.7984 75.0556C32.3327 73.7976 29.3064 72.3878 26.3003 71C23.0662 74.6424 19.7035 78.4676 16.6055 82.0716C19.3358 83.8325 21.9907 85.7286 25.2486 87.3981C28.6647 83.2894 32.1948 79.1387 35.7984 75.0538V75.0556Z" fill="white" fill-opacity="0.2"/>
<path fill-rule="evenodd" clip-rule="evenodd" d="M24.7024 70.348C21.7828 68.9657 19.1462 67.5888 16.552 66.5703C13.5404 69.8379 10.7531 73.0195 7.63672 76.5522C10.0122 78.0972 12.4575 79.5893 14.9855 81.299C18.2968 77.5889 21.4077 73.9374 24.7024 70.348Z" fill="white" fill-opacity="0.2"/>
<path fill-rule="evenodd" clip-rule="evenodd" d="M15.2592 66.0608C12.893 64.9472 10.7455 63.7916 8.51716 62.8262C5.68758 65.8542 2.87639 68.8255 0.359375 71.8243C2.19612 73.1774 4.35645 74.4738 6.48553 75.8653C9.50815 72.5209 12.4002 69.2808 15.2574 66.0608H15.2592Z" fill="white" fill-opacity="0.2"/>
<path fill-rule="evenodd" clip-rule="evenodd" d="M6.89442 62.404C4.73592 61.4349 2.7999 60.5225 0.924547 59.4766C-1.31852 61.8993 -3.98079 64.7463 -6.25879 67.352C-4.63348 68.5277 -2.78755 69.6979 -0.92139 71.0236C1.60114 68.0962 4.31121 65.2126 6.89442 62.404Z" fill="white" fill-opacity="0.2"/>
<path fill-rule="evenodd" clip-rule="evenodd" d="M149.566 43.9806C142.539 43.0151 135.843 42.1905 129.343 41.1738C125.289 46.0358 121.206 50.7241 116.907 55.6044C123.101 56.91 129.695 58.1424 136.718 59.8758C141.031 54.4378 145.356 49.2028 149.568 43.9806H149.566Z" fill="white" fill-opacity="0.2"/>
<path fill-rule="evenodd" clip-rule="evenodd" d="M19.1635 18.9471C17.2513 18.9618 15.4385 18.9654 13.7249 18.9947C11.7172 21.006 9.64696 22.968 7.71094 24.9209C9.38405 24.8916 10.8347 25.1714 12.6659 25.2372C14.7803 23.1253 16.9296 21.0188 19.1653 18.9453L19.1635 18.9471Z" fill="white" fill-opacity="0.2"/>
<path fill-rule="evenodd" clip-rule="evenodd" d="M18.8608 12.6992C17.127 12.9095 15.4833 13.0686 13.8911 13.1984C11.9422 15.0269 10.0797 16.7841 8.25586 18.5102C9.72121 18.5194 11.2344 18.5011 12.7953 18.4389C14.7516 16.5775 16.831 14.6137 18.8608 12.6992Z" fill="white" fill-opacity="0.2"/>
<path fill-rule="evenodd" clip-rule="evenodd" d="M351.871 175C346.747 172.841 341.74 170.714 336.857 168.613C336.037 170.711 335.232 172.841 334.438 175H351.873H351.871Z" fill="white" fill-opacity="0.2"/>
<path fill-rule="evenodd" clip-rule="evenodd" d="M145.796 -1.9043C139.736 -1.58796 133.981 -1.31003 128.5 -1.05038C125.121 2.29945 121.776 5.69682 118.327 8.9406C123.81 8.97351 129.296 8.89671 135.198 8.81626C138.621 5.1885 142.245 1.64118 145.794 -1.9043H145.796Z" fill="white" fill-opacity="0.2"/>
<path fill-rule="evenodd" clip-rule="evenodd" d="M263.466 137.758C248.044 131.457 233.902 125.885 220.443 120.734C215.2 130.418 209.586 140.824 204.468 151.973C217.68 158.873 231.519 165.88 246.99 173.377C252.221 161.263 257.871 149.261 263.464 137.758H263.466Z" fill="white" fill-opacity="0.2"/>
<path fill-rule="evenodd" clip-rule="evenodd" d="M176.151 103.426C166.393 99.8024 157.105 96.5787 148.493 93.4062C143.477 100.576 138.366 108.177 133.395 115.862C141.626 120.071 150.692 124.346 159.957 128.671C165.355 120.205 170.742 111.49 176.149 103.428L176.151 103.426Z" fill="white" fill-opacity="0.2"/>
<path fill-rule="evenodd" clip-rule="evenodd" d="M116.937 83.0975C110.195 80.8174 104.043 78.7347 98.1851 76.5898C93.938 81.8157 89.4941 87.4932 85.2305 93.3299C90.8087 96.0214 96.9147 98.8775 103.079 101.829C107.536 95.3449 112.337 88.9908 116.939 83.0975H116.937Z" fill="white" fill-opacity="0.2"/>
<path fill-rule="evenodd" clip-rule="evenodd" d="M94.8392 75.5511C89.2555 73.6787 84.0247 72.0239 79.0109 70.5117C74.8116 75.4652 70.7355 80.4936 66.5361 85.4945C71.3054 87.5297 76.1648 89.5739 81.4213 92.1174C85.9755 86.2771 90.3384 80.6526 94.8392 75.5511Z" fill="white" fill-opacity="0.2"/>
<path fill-rule="evenodd" clip-rule="evenodd" d="M76.8501 69.963C72.2022 68.4655 67.6922 66.9917 63.2667 65.4941C59.5803 69.8606 55.8921 74.1521 52.123 78.6046C56.1992 80.4276 60.5033 82.4737 64.8828 84.4448C68.9828 79.506 73.0314 74.6257 76.8483 69.9612L76.8501 69.963Z" fill="white" fill-opacity="0.2"/>
<path fill-rule="evenodd" clip-rule="evenodd" d="M60.3441 64.6082C56.3783 63.4142 52.4934 62.2659 48.9449 61.123C45.2383 65.25 41.7193 69.0899 38.248 73.2168C41.5759 74.5279 45.1574 76.0144 49.0791 77.8868C52.7784 73.1894 56.6761 68.7882 60.3441 64.6082Z" fill="white" fill-opacity="0.2"/>
<path fill-rule="evenodd" clip-rule="evenodd" d="M47.2052 60.7542C43.5997 59.7613 40.3693 58.6239 37.1224 57.6914C33.9417 61.1235 30.6984 64.8135 27.6758 68.3882C30.6083 69.67 33.6236 71.0944 37.1242 72.2811C40.3749 68.571 43.8259 64.5538 47.2033 60.7542H47.2052Z" fill="white" fill-opacity="0.2"/>
<path fill-rule="evenodd" clip-rule="evenodd" d="M35.3938 57.1356C32.2866 56.3 29.3614 55.5759 26.5999 54.7695C23.6857 57.9457 20.687 61.0706 17.9199 64.1809C20.448 65.1408 23.2187 66.2727 25.9692 67.6313C29.0452 64.0309 32.2112 60.6061 35.3938 57.1356Z" fill="white" fill-opacity="0.2"/>
<path fill-rule="evenodd" clip-rule="evenodd" d="M25.3274 54.3683C22.6946 53.6442 20.1757 52.8763 17.7653 52.0352C15.0718 54.9333 12.3526 57.8224 9.81348 60.6401C11.9352 61.6568 14.2776 62.6661 16.6824 63.6115C19.5598 60.5688 22.4041 57.4402 25.3293 54.3683H25.3274Z" fill="white" fill-opacity="0.2"/>
<path fill-rule="evenodd" clip-rule="evenodd" d="M16.1126 51.7454C13.7813 51.0396 11.711 50.2442 9.71065 49.6152C7.23408 52.0965 4.79612 54.64 2.38574 57.1066C4.15997 58.2056 6.19344 59.1985 8.39423 60.0871C10.9885 57.2456 13.511 54.5065 16.1144 51.7454H16.1126Z" fill="white" fill-opacity="0.2"/>
<path fill-rule="evenodd" clip-rule="evenodd" d="M8.24021 49.4945C6.30234 48.8271 4.37551 48.2658 2.50751 47.752C0.464852 49.8877 -1.78925 52.2208 -3.86133 54.49C-2.1827 55.1812 -0.54453 55.9674 1.2536 56.7354C3.51506 54.3638 5.86108 51.9795 8.24021 49.4927V49.4945Z" fill="white" fill-opacity="0.2"/>
<path fill-rule="evenodd" clip-rule="evenodd" d="M1.99825 47.3631C0.385811 46.7048 -1.21376 46.0959 -2.85745 45.5547C-4.81002 47.5752 -6.91887 49.8352 -8.8457 51.8758C-7.39322 52.6054 -5.98487 53.3825 -4.46804 54.1322C-2.34632 51.8868 -0.138186 49.678 2.00008 47.3649L1.99825 47.3631Z" fill="white" fill-opacity="0.2"/>
<path fill-rule="evenodd" clip-rule="evenodd" d="M104.406 38.6141C99.1406 38.0766 94.0717 37.6688 89.2105 37.1367C85.616 41.004 81.9499 44.9646 78.293 48.8703C82.9832 49.6565 87.6661 50.5982 92.9244 51.6624C96.7597 47.2283 100.555 42.8179 104.406 38.6141Z" fill="white" fill-opacity="0.2"/>
<path fill-rule="evenodd" clip-rule="evenodd" d="M87.0025 36.7864C82.4189 36.2104 77.9401 35.8209 73.9173 35.2852C70.3946 38.8983 66.9105 42.5937 63.6396 46.2123C67.622 46.984 71.7312 47.7629 76.1696 48.4724C79.6923 44.6819 83.4062 40.6409 87.0025 36.7864Z" fill="white" fill-opacity="0.2"/>
<path fill-rule="evenodd" clip-rule="evenodd" d="M71.9217 35.0651C67.7408 34.6628 63.9919 34.3063 60.3552 33.957C57.2057 37.1533 53.9018 40.5799 50.7578 43.8621C54.2548 44.5203 57.8713 45.1859 61.679 45.9923C64.9921 42.2585 68.4872 38.5722 71.9217 35.0651Z" fill="white" fill-opacity="0.2"/>
<path fill-rule="evenodd" clip-rule="evenodd" d="M58.6393 33.7588C55.0798 33.4187 51.7005 33.2121 48.4738 32.9141C45.5192 35.8945 42.377 39.1913 39.5254 42.1243C42.5977 42.6417 45.8189 43.0257 49.1191 43.545C52.1325 40.4018 55.4916 36.9752 58.6411 33.7588H58.6393Z" fill="white" fill-opacity="0.2"/>
<path fill-rule="evenodd" clip-rule="evenodd" d="M46.8943 32.7992C43.7798 32.4536 40.8693 32.0312 37.9478 31.916C35.2028 34.646 32.3916 37.4875 29.6172 40.4241C32.2353 40.8757 35.0226 41.3932 38.0287 41.9509C40.9208 38.8644 43.9875 35.7742 46.8943 32.7992Z" fill="white" fill-opacity="0.2"/>
<path fill-rule="evenodd" clip-rule="evenodd" d="M36.5945 31.8686C33.8734 31.6089 31.3637 31.3694 28.8173 31.2012C26.1385 33.7885 23.4468 36.4508 21.1191 38.923C23.3512 39.3691 25.7413 39.8299 28.3815 40.1609C31.0677 37.2956 33.741 34.5894 36.5926 31.8686H36.5945Z" fill="white" fill-opacity="0.2"/>
<path fill-rule="evenodd" clip-rule="evenodd" d="M27.6723 31.1147C25.2325 30.866 22.8552 30.707 20.7261 30.4766C18.2642 32.8719 15.841 35.3422 13.4453 37.7284C15.4512 38.1984 17.7513 38.4379 19.9116 38.7561C22.4378 36.2565 24.9401 33.7021 27.6723 31.1165V31.1147Z" fill="white" fill-opacity="0.2"/>
<path fill-rule="evenodd" clip-rule="evenodd" d="M19.4997 30.5145C17.3357 30.3225 15.3206 30.1305 13.4103 29.9531C11.318 32.1181 9.11358 34.2958 6.89258 36.4169C8.71829 36.7241 10.6543 37.1904 12.4984 37.6018C14.7985 35.2119 17.0875 32.9427 19.4997 30.5145Z" fill="white" fill-opacity="0.2"/>
<path fill-rule="evenodd" clip-rule="evenodd" d="M12.239 29.8283C10.3894 29.6984 8.73652 29.4827 7.04319 29.4004C5.02627 31.3148 3.00015 33.3061 0.964844 35.3266C2.52764 35.6155 3.9985 35.9647 5.66426 36.239C7.83746 34.1125 10.0934 31.9384 12.239 29.8264V29.8283Z" fill="white" fill-opacity="0.2"/>
<path fill-rule="evenodd" clip-rule="evenodd" d="M6.0727 29.2281C4.48049 29.0361 3.08317 28.8642 1.59759 28.7344C-0.331079 30.6159 -2.27078 32.4389 -4.17188 34.3973C-2.86648 34.7136 -1.46181 34.944 -0.00381279 35.3133C1.98553 33.2782 4.05945 31.2285 6.07453 29.2281H6.0727Z" fill="white" fill-opacity="0.2"/>
<path fill-rule="evenodd" clip-rule="evenodd" d="M0.971618 28.6983C-0.370546 28.4771 -1.51782 28.1937 -2.70922 27.9688C-4.4522 29.7113 -6.25033 31.4777 -7.87012 33.1142C-6.81845 33.4269 -5.6197 33.7286 -4.51287 34.0979C-2.70738 32.2932 -0.815483 30.461 0.971618 28.6983Z" fill="white" fill-opacity="0.2"/>
<path fill-rule="evenodd" clip-rule="evenodd" d="M6.06445 19.3179C8.68995 18.762 11.2695 18.2043 14.2314 17.6192C14.9283 17.2645 15.5846 17.1017 16.423 16.7891C13.279 17.557 10.4182 18.1659 7.65299 18.8187C7.00581 19.2557 6.57374 19.0546 6.06445 19.3179Z" fill="white" fill-opacity="0.2"/>
<path fill-rule="evenodd" clip-rule="evenodd" d="M23.9395 16.3855C27.6571 16.0636 31.4188 16.0728 35.5133 15.8863C36.2818 15.815 37.1497 15.751 38.0469 15.4785C33.7703 15.8863 29.8523 15.7948 26.0722 16.0216C25.1823 16.3525 24.5039 16.2337 23.9395 16.3873V16.3855Z" fill="white" fill-opacity="0.2"/>
<path fill-rule="evenodd" clip-rule="evenodd" d="M98.4599 24.1114C93.7182 23.8097 89.0133 23.6415 84.7643 23.3672C81.3592 26.7737 77.9946 30.2387 74.7109 33.7659C78.9121 34.1883 83.389 34.5961 87.8476 35.1135C91.363 31.3175 94.9997 27.5508 98.458 24.1096L98.4599 24.1114Z" fill="white" fill-opacity="0.2"/>
<path fill-rule="evenodd" clip-rule="evenodd" d="M82.6965 23.248C78.4531 23.1803 74.4248 23.0944 70.6428 22.9316C67.5742 26.0803 64.1986 29.3771 61.2256 32.5203C64.8035 32.8714 68.6902 33.1439 72.7038 33.4712C75.9545 30.0391 79.3797 26.5704 82.6965 23.2498V23.248Z" fill="white" fill-opacity="0.2"/>
<path fill-rule="evenodd" clip-rule="evenodd" d="M68.821 22.9182C65.074 22.8268 61.5531 22.8323 58.08 22.75C55.1309 25.5568 52.1892 28.5427 49.332 31.6183C52.5937 31.7956 55.9675 32.0315 59.4847 32.4429C62.4117 29.3144 65.7414 26.0029 68.8228 22.9164L68.821 22.9182Z" fill="white" fill-opacity="0.2"/>
<path fill-rule="evenodd" clip-rule="evenodd" d="M56.4625 22.649C53.1549 22.5814 50.0716 22.6399 47.0784 22.543C44.2488 25.2546 41.4964 27.9572 38.8213 30.6396C41.6398 30.7639 44.5889 31.1187 47.7476 31.4606C50.6268 28.524 53.5667 25.4905 56.4625 22.649Z" fill="white" fill-opacity="0.2"/>
<path fill-rule="evenodd" clip-rule="evenodd" d="M45.6347 22.4739C42.669 22.5306 40.0877 22.3916 37.3831 22.4172C34.7172 24.99 32.1248 27.4658 29.6133 29.9854C32.1082 30.2103 34.7117 30.4225 37.4695 30.5943C40.1428 27.8644 42.8621 25.2825 45.6347 22.4739Z" fill="white" fill-opacity="0.2"/>
<path fill-rule="evenodd" clip-rule="evenodd" d="M36.1462 22.3275C33.4986 22.2982 31.0993 22.2891 28.7036 22.2031C26.2473 24.5729 23.8718 26.9152 21.4854 29.3051C23.6255 29.7183 25.9476 29.8225 28.3782 29.9907C30.9853 27.4034 33.4324 24.9038 36.148 22.3275H36.1462Z" fill="white" fill-opacity="0.2"/>
<path fill-rule="evenodd" clip-rule="evenodd" d="M27.5852 22.2305C25.3494 22.2305 23.077 22.331 21.1391 22.278C18.896 24.3753 16.5978 26.6207 14.3271 28.7711C16.2779 28.8862 18.2856 29.049 20.4055 29.2995C22.6982 26.9243 25.1748 24.5966 27.5852 22.2305Z" fill="white" fill-opacity="0.2"/>
<path fill-rule="evenodd" clip-rule="evenodd" d="M110.34 11.4766C105.352 11.5296 100.539 11.6009 96.0417 11.7124C92.7598 15.0001 89.4871 18.1616 86.2549 21.4218C90.6785 21.5699 95.332 21.7912 100.004 21.9923C103.506 18.456 107.02 14.8703 110.34 11.4784V11.4766Z" fill="white" fill-opacity="0.2"/>
<path fill-rule="evenodd" clip-rule="evenodd" d="M93.9419 11.8594C89.5514 11.874 85.3025 12.066 81.3495 12.1958C78.2423 15.2147 75.113 18.2336 72.0996 21.2323C75.9441 21.1939 80.0643 21.2561 84.2159 21.4481C87.3893 18.1129 90.6325 14.988 93.9419 11.8594Z" fill="white" fill-opacity="0.2"/>
<path fill-rule="evenodd" clip-rule="evenodd" d="M79.351 12.2305C75.4587 12.3073 71.6896 12.4609 68.1301 12.6199C65.2932 15.3463 62.4048 18.1585 59.5127 21.1152C62.9233 21.139 66.4993 21.2066 70.1875 21.2633C73.1936 18.2207 76.3228 15.1451 79.3491 12.2305H79.351Z" fill="white" fill-opacity="0.2"/>
<path fill-rule="evenodd" clip-rule="evenodd" d="M66.4952 12.6387C62.9541 12.8398 59.8965 12.902 56.6661 13.0848C53.7979 15.749 51.1945 18.3071 48.4385 20.9694C51.5163 20.984 54.6474 20.9511 58.0009 21.0169C60.711 18.1864 63.6049 15.3741 66.4952 12.6387Z" fill="white" fill-opacity="0.2"/>
<path fill-rule="evenodd" clip-rule="evenodd" d="M55.0098 13.2227C52.0681 13.2793 49.187 13.3616 46.3207 13.5298C43.6658 16.0879 41.1248 18.5162 38.6611 20.9061C41.2296 21.0359 43.993 21.0542 47.0009 20.9883C49.6614 18.3151 52.3236 15.81 55.0098 13.2227Z" fill="white" fill-opacity="0.2"/>
<path fill-rule="evenodd" clip-rule="evenodd" d="M44.9121 13.5742C42.1083 13.7662 39.6427 13.8723 37.2765 13.9673C34.7705 16.2749 32.2075 18.6026 29.9111 20.859C32.2535 20.8974 34.7025 20.9742 37.3886 20.9065C39.8542 18.5258 42.351 16.103 44.9121 13.5742Z" fill="white" fill-opacity="0.2"/>
<path fill-rule="evenodd" clip-rule="evenodd" d="M35.802 14.2461C33.3088 14.4527 31.1025 14.5679 28.854 14.7014C26.5612 16.87 24.1637 19.1063 21.9482 21.3444C24.0644 21.1816 26.291 21.1524 28.6149 21.0573C30.9187 18.8923 33.2096 16.7292 35.802 14.2479V14.2461Z" fill="white" fill-opacity="0.2"/>
<path fill-rule="evenodd" clip-rule="evenodd" d="M104.513 1.31641C99.948 1.57605 95.6274 1.75342 91.4501 2.09352C88.354 5.04474 85.3644 7.90087 82.3418 10.9764C86.4639 10.6985 90.586 10.6692 95.0537 10.5394C98.0892 7.45837 101.259 4.38282 104.511 1.31641H104.513Z" fill="white" fill-opacity="0.2"/>
<path fill-rule="evenodd" clip-rule="evenodd" d="M89.3598 2.38672C85.2708 2.57323 81.5127 2.9243 77.7216 3.32291C74.8405 5.97243 72.0495 8.67314 69.1924 11.4232C72.8751 11.116 76.4603 11.1069 80.4427 10.9825C83.4432 8.04961 86.4585 5.06549 89.3598 2.38672Z" fill="white" fill-opacity="0.2"/>
<path fill-rule="evenodd" clip-rule="evenodd" d="M75.9719 3.4707C72.3719 3.74864 69.0349 4.10337 65.6556 4.46907C62.9198 6.94488 60.2777 9.52307 57.5254 12.1086C60.7834 11.7776 63.9825 11.71 67.5604 11.4467C70.2429 8.85567 73.0945 6.18238 75.9719 3.4707Z" fill="white" fill-opacity="0.2"/>
<path fill-rule="evenodd" clip-rule="evenodd" d="M64.0096 4.58984C60.8252 4.87326 57.8264 5.04514 54.8498 5.32856C52.2794 7.72756 49.7845 10.0991 47.2344 12.5311C50.0989 12.383 52.9248 12.2568 56.0963 12.1142C58.8064 9.56156 61.3179 7.08027 64.0096 4.58984Z" fill="white" fill-opacity="0.2"/>
<path fill-rule="evenodd" clip-rule="evenodd" d="M53.3704 5.50586C50.6824 5.68322 48.0054 5.93739 45.2512 6.32686C42.8335 8.53387 40.4121 10.8341 38.0605 13.0357C40.5647 12.915 43.1608 12.6663 45.8304 12.5987C48.432 10.1649 50.9343 7.85732 53.3704 5.50586Z" fill="white" fill-opacity="0.2"/>
<path fill-rule="evenodd" clip-rule="evenodd" d="M37.0234 8.04492C34.659 8.33748 32.3939 8.60627 30.3144 8.78912C28.178 10.7511 25.8982 12.8301 23.6992 14.8945C25.7897 14.708 27.9427 14.6586 30.0901 14.5252C32.2725 12.384 34.6314 10.2209 37.0234 8.04675V8.04492Z" fill="white" fill-opacity="0.2"/>
<path fill-rule="evenodd" clip-rule="evenodd" d="M29.0379 8.89844C27.0118 9.0758 25.0794 9.20562 23.204 9.4415C21.2404 11.3322 19.2603 13.0985 17.3721 14.9453C19.0305 14.9216 20.9242 14.7862 22.7315 14.7296C24.7503 12.848 26.94 10.7983 29.0379 8.89844Z" fill="white" fill-opacity="0.2"/>
<path fill-rule="evenodd" clip-rule="evenodd" d="M99.5751 -7.05469C95.4677 -6.57013 91.5074 -6.10386 87.5158 -5.62845C84.6881 -2.99905 81.9284 -0.450106 79.0234 2.22318C82.9396 1.71485 86.6149 1.4936 90.8051 1.04195C93.6677 -1.72641 96.6426 -4.33386 99.5751 -7.05469Z" fill="white" fill-opacity="0.2"/>
<path fill-rule="evenodd" clip-rule="evenodd" d="M85.6813 -5.43567C82.0243 -5.03705 78.3508 -4.51959 74.8594 -4.08257C72.2688 -1.63968 69.5698 0.826974 66.8652 3.3558C70.285 2.9773 73.5871 2.71217 77.2771 2.40498C80.1765 -0.310356 82.9455 -2.83553 85.6813 -5.4375V-5.43567Z" fill="white" fill-opacity="0.2"/>
<path fill-rule="evenodd" clip-rule="evenodd" d="M73.1878 -3.88672C69.9409 -3.51736 66.7564 -3.08035 63.4911 -2.59031C61.0035 -0.257127 58.6262 1.87857 56.0283 4.26844C59.0013 3.98502 62.0368 3.74548 65.2304 3.53337C67.8835 0.989914 70.6266 -1.53526 73.1878 -3.88672Z" fill="white" fill-opacity="0.2"/>
<path fill-rule="evenodd" clip-rule="evenodd" d="M62.0701 -2.36914C59.1872 -1.92847 56.3062 -1.54814 53.5703 -1.17878C51.1931 1.0008 48.7073 3.1877 46.3447 5.33437C49.0585 5.05644 51.7299 4.76388 54.5466 4.44572C57.1519 2.08877 59.6174 -0.142015 62.0701 -2.36914Z" fill="white" fill-opacity="0.2"/>
<path fill-rule="evenodd" clip-rule="evenodd" d="M44.7523 0.697266C42.272 1.09588 39.9756 1.37015 37.819 1.64809C35.5906 3.68688 33.342 5.69458 31.2295 7.748C33.3512 7.52675 35.5226 7.30733 37.9311 7.00014C40.1724 4.91747 42.4044 2.87319 44.7523 0.69909V0.697266Z" fill="white" fill-opacity="0.2"/>
<path fill-rule="evenodd" clip-rule="evenodd" d="M36.2195 2.25964C34.0242 2.5522 32.068 2.8594 30.0731 3.22876C27.9992 5.07555 25.9639 6.90406 23.7852 8.87154C25.6568 8.62651 27.6811 8.47292 29.7054 8.3047C31.8253 6.27871 33.9801 4.27283 36.2213 2.25781L36.2195 2.25964Z" fill="white" fill-opacity="0.2"/>
<path fill-rule="evenodd" clip-rule="evenodd" d="M3.93537 37.2617C2.31742 36.9746 0.846551 36.576 -0.570995 36.1719C-2.72213 38.346 -4.79238 40.4049 -6.72656 42.4162C-5.40278 42.8441 -4.07165 43.3469 -2.49231 43.7456C-0.36875 41.5769 1.83939 39.3974 3.93721 37.2617H3.93537Z" fill="white" fill-opacity="0.2"/>
<path fill-rule="evenodd" clip-rule="evenodd" d="M10.6191 38.595C8.72716 38.1872 6.89042 37.7557 5.06655 37.4668C2.92093 39.5934 0.672341 41.9777 -1.49902 44.2286C0.142829 44.6748 1.74424 45.3276 3.4008 45.9748C5.75786 43.4405 8.2473 41.0324 10.6191 38.5932V38.595Z" fill="white" fill-opacity="0.2"/>
<path fill-rule="evenodd" clip-rule="evenodd" d="M17.8797 39.7952C15.6679 39.4643 13.4671 39.1333 11.6138 38.7109C9.19422 41.1099 6.70662 43.5492 4.30176 46.0634C6.17159 46.6723 8.14439 47.2007 10.1815 47.7767C12.6195 45.1656 15.1862 42.527 17.8797 39.7952Z" fill="white" fill-opacity="0.2"/>
<path fill-rule="evenodd" clip-rule="evenodd" d="M26.1602 41.3739C23.6138 40.9808 21.2751 40.5383 19.0431 40.0684C16.2558 42.8952 13.645 45.6106 11.207 48.1833C13.2552 48.7684 15.4725 49.498 17.7487 50.1837C20.6077 47.1648 23.2516 44.391 26.1602 41.3721V41.3739Z" fill="white" fill-opacity="0.2"/>
<path fill-rule="evenodd" clip-rule="evenodd" d="M35.5098 43.3354C32.614 42.8417 29.9242 42.284 27.3005 41.752C24.4948 44.7324 21.7039 47.6014 18.8945 50.5672C21.2994 51.3498 23.8679 52.1123 26.4989 52.8803C29.4737 49.6401 32.5717 46.3927 35.5098 43.3354Z" fill="white" fill-opacity="0.2"/>
<path fill-rule="evenodd" clip-rule="evenodd" d="M47.337 45.0499C44.0129 44.388 40.8303 43.8925 37.8702 43.4609C34.8328 46.4853 31.7514 49.7949 28.7324 53.0259C31.5326 53.6933 34.5552 54.4119 37.5705 55.4066C40.891 51.7642 44.0515 48.3815 47.3389 45.0499H47.337Z" fill="white" fill-opacity="0.2"/>
<path fill-rule="evenodd" clip-rule="evenodd" d="M59.4994 47.2002C55.7542 46.4706 52.066 45.646 48.8301 45.0078C45.5133 48.4875 42.156 51.9177 38.9863 55.4742C42.1799 56.4488 45.5593 57.513 49.2474 58.3834C52.6268 54.6294 56.0337 50.987 59.4994 47.202V47.2002Z" fill="white" fill-opacity="0.2"/>
<path fill-rule="evenodd" clip-rule="evenodd" d="M73.9568 49.7785C69.6196 49.0252 65.3173 48.3724 61.6015 47.3027C58.1027 51.1572 54.5266 55.0447 51.208 58.8297C54.8962 59.8957 58.7701 60.98 62.872 62.0113C66.6227 57.8075 70.2134 53.8287 73.9586 49.7785H73.9568Z" fill="white" fill-opacity="0.2"/>
<path fill-rule="evenodd" clip-rule="evenodd" d="M90.3367 53.2377C85.2401 52.1863 80.5536 51.2464 76.1483 50.248C72.3664 54.3988 68.5458 58.5458 64.8135 62.8702C69.4099 64.1411 73.6497 65.7264 78.5146 66.9679C82.5337 62.3509 86.5069 57.7541 90.3367 53.2377Z" fill="white" fill-opacity="0.2"/>
<path fill-rule="evenodd" clip-rule="evenodd" d="M109.269 57.5653C103.308 56.3987 98.0256 55.2961 92.6993 54.1387C88.7243 58.6971 84.7584 63.3379 80.7871 67.8744C85.7605 69.5164 91.028 71.1237 96.5548 72.7694C100.927 67.4466 105.082 62.4419 109.269 57.5653Z" fill="white" fill-opacity="0.2"/>
<path fill-rule="evenodd" clip-rule="evenodd" d="M306.32 31.2163C302.567 28.2212 298.894 25.1987 295.537 22.4395C290.113 25.5059 284.713 28.362 279.26 31.6003C282.303 34.7727 285.316 38.0988 288.958 41.5017C294.838 38.0312 300.714 34.5808 306.318 31.2163H306.32Z" fill="white" fill-opacity="0.2"/>
<path fill-rule="evenodd" clip-rule="evenodd" d="M122.248 25.0667C120.755 23.5655 119.297 22.1685 117.78 20.9727C115.668 22.4501 113.467 24.0244 111.294 25.522C112.643 26.9427 113.918 28.4696 115.287 30.1865C117.626 28.4403 119.959 26.7069 122.25 25.0667H122.248Z" fill="white" fill-opacity="0.2"/>
<path fill-rule="evenodd" clip-rule="evenodd" d="M371.796 123.134C367.106 119.468 362.682 115.955 358.385 112.863C352.79 114.582 347.3 116.617 341.54 118.559C345.717 121.938 349.828 125.59 354.053 129.525C360.062 127.268 366.208 125.235 371.798 123.132L371.796 123.134Z" fill="white" fill-opacity="0.2"/>
<path fill-rule="evenodd" clip-rule="evenodd" d="M356.098 1.71951C351.682 -0.0943704 347.576 -1.67786 343.675 -3.16992C338.63 -1.08176 333.853 0.918624 329.282 3.0397C332.807 4.79689 336.519 6.59615 340.672 8.80865C346.004 6.32736 351.185 3.86618 356.098 1.71951Z" fill="white" fill-opacity="0.2"/>
<path fill-rule="evenodd" clip-rule="evenodd" d="M5.20787 19.0006C5.0571 18.6166 4.85854 18.2326 4.75558 17.8633C4.01647 18.368 3.327 18.9439 2.58789 19.4705C2.64489 19.9167 2.74785 20.3391 2.85081 20.7615C3.68368 20.1709 4.42463 19.5857 5.20787 19.0006Z" fill="white" fill-opacity="0.2"/>
<path fill-rule="evenodd" clip-rule="evenodd" d="M375.187 61.2438C372.043 59.7426 369.499 58.3255 366.814 56.9688C362.872 58.0823 359.098 59.0898 355.336 60.1796C357.643 61.5711 360.256 63.193 363.021 64.7289C367.141 63.6099 371.177 62.3921 375.187 61.2438Z" fill="white" fill-opacity="0.2"/>
<path fill-rule="evenodd" clip-rule="evenodd" d="M442.001 94.9343C437.805 93.6726 433.369 92.1751 428.885 90.875C424.731 91.7637 420.245 92.3963 416.027 93.1734C420.059 94.4059 424.426 95.8504 428.46 97.2821C433.172 96.4904 437.531 95.7608 442.001 94.9361V94.9343Z" fill="white" fill-opacity="0.2"/>
<path fill-rule="evenodd" clip-rule="evenodd" d="M234.788 13.4953C232.699 12.987 230.461 12.6834 228.33 12.2227C226.231 12.9522 224.321 13.5904 222.443 14.3401C224.378 14.6948 226.472 15.194 228.658 15.6932C230.7 14.9398 232.798 14.2157 234.786 13.4953H234.788Z" fill="white" fill-opacity="0.2"/>
<path fill-rule="evenodd" clip-rule="evenodd" d="M227.658 51.3801C225.774 50.2043 223.909 49.0341 222.034 48.0156C219.408 49.0231 216.731 50.208 214.036 51.3508C215.781 52.5119 217.515 53.6438 219.267 54.964C222.188 53.6401 224.955 52.5302 227.658 51.3783V51.3801Z" fill="white" fill-opacity="0.2"/>
<path fill-rule="evenodd" clip-rule="evenodd" d="M182.027 4.59882C180.328 3.62971 178.761 2.76482 177.307 1.92188C175.071 3.15978 172.742 4.47447 170.414 5.81294C171.878 6.71074 173.185 7.78957 174.816 8.71662C177.29 7.32879 179.653 5.94826 182.027 4.59882Z" fill="white" fill-opacity="0.2"/>
</g>
<defs>
<clipPath id="clip0_51_9268">
<rect width="478.252" height="260.25" fill="white" transform="translate(-36.25 -85.25)"/>
</clipPath>
</defs>
</svg>
