<svg width="49" height="50" viewBox="0 0 49 50" fill="none" xmlns="http://www.w3.org/2000/svg">
<path d="M43.7744 5.98717C42.7588 4.9492 41.2557 4.56529 39.8541 4.97154L7.17132 14.4148C5.69257 14.8251 4.64445 15.9972 4.3621 17.484C4.07367 18.9994 5.08117 20.925 6.39742 21.7294L16.6166 27.9694C17.6648 28.6112 19.0176 28.4508 19.8849 27.5814L31.5869 15.8794C32.176 15.268 33.151 15.268 33.7401 15.8794C34.3291 16.4664 34.3291 17.4231 33.7401 18.0325L22.0177 29.7345C21.1484 30.6039 20.9859 31.9526 21.6257 33.0028L27.8698 43.2606C28.601 44.4773 29.8604 45.17 31.2416 45.17C31.4041 45.17 31.5869 45.17 31.7494 45.1476C33.3338 44.9465 34.5932 43.868 35.0604 42.3445L44.7495 9.90748C45.176 8.52623 44.7901 7.02311 43.7744 5.98717Z" fill="white"/>
<path opacity="0.4" d="M19.4478 39.6335C20.0409 40.2287 20.0409 41.1935 19.4478 41.7887L16.6731 44.5614C16.3766 44.86 15.9866 45.0082 15.5966 45.0082C15.2066 45.0082 14.8166 44.86 14.52 44.5614C13.9248 43.9662 13.9248 43.0034 14.52 42.4082L17.2926 39.6335C17.8878 39.0404 18.8526 39.0404 19.4478 39.6335ZM17.8559 31.9392C18.449 32.5343 18.449 33.4992 17.8559 34.0943L15.0812 36.867C14.7847 37.1656 14.3947 37.3139 14.0047 37.3139C13.6147 37.3139 13.2247 37.1656 12.9281 36.867C12.3329 36.2718 12.3329 35.309 12.9281 34.7139L15.7008 31.9392C16.2959 31.346 17.2608 31.346 17.8559 31.9392ZM10.216 29.5171C10.8091 30.1123 10.8091 31.0771 10.216 31.6723L7.44129 34.4449C7.14473 34.7435 6.75473 34.8918 6.36473 34.8918C5.97473 34.8918 5.58473 34.7435 5.28816 34.4449C4.69301 33.8498 4.69301 32.887 5.28816 32.2918L8.06082 29.5171C8.65598 28.924 9.62082 28.924 10.216 29.5171Z" fill="white"/>
</svg>
