<svg width="19" height="19" viewBox="0 0 19 19" fill="none" xmlns="http://www.w3.org/2000/svg">
<path fill-rule="evenodd" clip-rule="evenodd" d="M4.97763 4.47727C4.81488 4.47727 4.6588 4.54192 4.54372 4.657C4.42864 4.77208 4.36399 4.92816 4.36399 5.09091V13.6818C4.36399 13.8446 4.42864 14.0006 4.54372 14.1157C4.6588 14.2308 4.81488 14.2955 4.97763 14.2955H12.9549C12.9814 14.2955 13.0079 14.2972 13.0342 14.3006C13.1554 14.3164 13.2785 14.2956 13.3879 14.241C13.4854 14.1922 13.5679 14.1185 13.6273 14.0276L15.1376 10H7.84762L6.77465 12.6824C6.64878 12.9971 6.29166 13.1502 5.977 13.0243C5.66234 12.8984 5.50929 12.5413 5.63515 12.2266L6.86243 9.15846C6.95561 8.92549 7.18125 8.77273 7.43217 8.77273H14.1822V6.93182C14.1822 6.76907 14.1175 6.61299 14.0024 6.49791C13.8874 6.38283 13.7313 6.31818 13.5685 6.31818H9.27308C9.06791 6.31818 8.87631 6.21564 8.7625 6.04493L7.7174 4.47727H4.97763ZM15.4094 8.77273V6.93182C15.4094 6.44358 15.2155 5.97534 14.8703 5.6301C14.525 5.28486 14.0568 5.09091 13.5685 5.09091H9.60149L8.55638 3.52325C8.44258 3.35254 8.25098 3.25 8.04581 3.25H4.97763C4.48939 3.25 4.02115 3.44395 3.67591 3.78919C3.33067 4.13443 3.13672 4.60267 3.13672 5.09091V13.6818C3.13672 14.1701 3.33067 14.6383 3.67591 14.9835C4.02115 15.3288 4.48939 15.5227 4.97763 15.5227H12.9191C13.2686 15.5598 13.6218 15.4961 13.9367 15.3387C14.2647 15.1747 14.5363 14.9165 14.7165 14.5971C14.7321 14.5695 14.7456 14.5406 14.7567 14.5109L16.5976 9.60182C16.6683 9.41338 16.6421 9.20226 16.5274 9.03684C16.4128 8.87142 16.2243 8.77273 16.0231 8.77273H15.4094Z" fill="#8A8A8A"/>
</svg>
