<svg width="60" height="59" viewBox="0 0 60 59" fill="none" xmlns="http://www.w3.org/2000/svg">
<g clip-path="url(#clip0_51_13893)">
<path d="M10.8564 4.92188C11.5192 4.922 12.2632 5.20044 12.9941 5.92676L13.0107 5.94336L13.0283 5.95996C14.2593 7.10889 15.3624 8.295 16.667 9.59961L20.2598 13.1924C21.1004 14.033 21.3867 14.7997 21.3867 15.4336C21.3867 16.0675 21.1003 16.8372 20.2598 17.6836C18.7168 19.2266 17.3545 20.6705 15.8086 22.0537L15.7773 22.082L15.748 22.1113C15.4501 22.4093 15.0968 22.8444 14.9873 23.4648C14.8853 24.043 15.0447 24.5461 15.1348 24.8164L15.1514 24.8662L15.1719 24.915C16.2493 27.5187 17.7631 29.731 19.3896 31.7979L19.3965 31.8076L19.4043 31.8164C22.7401 35.922 26.5449 39.561 31.0537 42.4229V42.4238C31.5898 42.765 32.1622 43.0499 32.6504 43.2939C33.1648 43.5511 33.5956 43.7681 33.9785 44.0117L34.0439 44.0527L34.1123 44.0879C34.5372 44.3004 35.1026 44.475 35.75 44.3389C36.3636 44.2097 36.8036 43.8497 37.0977 43.5557C38.6014 42.0519 40.1056 40.5487 41.6094 39.0449C42.3896 38.2647 43.1529 37.9805 43.7979 37.9805C44.4385 37.9805 45.1767 38.2607 45.9141 39.0254L45.9229 39.0352L45.9326 39.0449C48.3555 41.4678 50.7791 43.8904 53.2139 46.3252C53.9908 47.1023 54.2783 47.8659 54.2783 48.5352C54.2782 49.2099 53.9855 50.0067 53.1895 50.8408L53.1816 50.8486C52.544 51.5261 51.8733 52.1571 51.1514 52.8574C50.4602 53.528 49.7388 54.2468 49.0703 55.043C47.5041 56.7424 45.6354 57.3732 43.2471 57.2305H43.248C39.6866 56.9982 36.2858 55.7563 32.8447 54.1182H32.8457C25.4991 50.5687 19.1543 45.6331 13.7842 39.3936L13.2676 38.7861C9.24624 33.9194 5.91662 28.8044 3.73828 22.9033L3.7373 22.9004L3.54395 22.3691C2.60438 19.7213 2.02931 17.1277 2.23828 14.5176C2.37533 12.9416 2.97722 11.602 4.14355 10.4355C4.89425 9.68485 5.64824 8.93374 6.40332 8.18164C7.1505 7.43741 7.89886 6.6919 8.64453 5.94629C9.41896 5.20413 10.1897 4.92188 10.8564 4.92188Z" stroke="#C6A45A" stroke-width="3"/>
</g>
<defs>
<clipPath id="clip0_51_13893">
<rect width="58.5" height="58.5" fill="white" transform="translate(0.636719 0.25)"/>
</clipPath>
</defs>
</svg>
