<svg width="179" height="65" viewBox="0 0 179 65" fill="none" xmlns="http://www.w3.org/2000/svg">
<path d="M0.302536 10.25L10.5 20.4474L20.6974 10.25L10.5 0.0525513L0.302536 10.25ZM103.955 10.4521L102.917 11.8812L103.955 10.4521ZM177 63.5L178.038 62.0709L104.993 9.02296L103.955 10.4521L102.917 11.8812L175.962 64.9291L177 63.5ZM103.333 10.25V8.48375H10.5V10.25V12.0163H103.333V10.25ZM103.955 10.4521L104.993 9.02296C104.51 8.6725 103.929 8.48375 103.333 8.48375V10.25V12.0163C103.183 12.0163 103.038 11.969 102.917 11.8812L103.955 10.4521Z" fill="#E3B685"/>
</svg>
