<svg width="63" height="63" viewBox="0 0 63 63" fill="none" xmlns="http://www.w3.org/2000/svg">
<circle cx="31.3571" cy="31.5349" r="30.8571" fill="#C6A45A" fill-opacity="0.2"/>
<path d="M45.6406 31.875C45.6406 23.7202 39.0298 17.1094 30.875 17.1094C22.7202 17.1094 16.1094 23.7202 16.1094 31.875C16.1094 40.0298 22.7202 46.6406 30.875 46.6406C39.0298 46.6406 45.6406 40.0298 45.6406 31.875Z" fill="#1275B1"/>
<path d="M27.3087 25.2222C27.3087 26.2078 26.4543 27.0069 25.4004 27.0069C24.3465 27.0069 23.4922 26.2078 23.4922 25.2222C23.4922 24.2365 24.3465 23.4375 25.4004 23.4375C26.4543 23.4375 27.3087 24.2365 27.3087 25.2222Z" fill="white"/>
<path d="M23.7539 28.3184H27.0158V38.2028H23.7539V28.3184Z" fill="white"/>
<path d="M32.2678 28.3194H29.0059V38.2038H32.2678C32.2678 38.2038 32.2678 35.0921 32.2678 33.1465C32.2678 31.9786 32.6666 30.8057 34.2576 30.8057C36.0556 30.8057 36.0448 32.3339 36.0364 33.5179C36.0254 35.0655 36.0516 36.6449 36.0516 38.2038H39.3135V32.987C39.2859 29.656 38.4179 28.1211 35.5623 28.1211C33.8665 28.1211 32.8153 28.891 32.2678 29.5875V28.3194Z" fill="white"/>
</svg>
