<svg width="19" height="19" viewBox="0 0 19 19" fill="none" xmlns="http://www.w3.org/2000/svg">
<path fill-rule="evenodd" clip-rule="evenodd" d="M9.40481 17.1383C9.42746 17.1514 9.44527 17.1615 9.45788 17.1686L9.47882 17.1803C9.64597 17.2721 9.85332 17.2714 10.0206 17.1806L10.0421 17.1686C10.0547 17.1615 10.0725 17.1514 10.0952 17.1383C10.1405 17.112 10.2052 17.0738 10.2866 17.0236C10.4493 16.9234 10.6791 16.7757 10.9535 16.5818C11.5013 16.1948 12.2323 15.6206 12.9649 14.8705C14.423 13.3776 15.9375 11.1346 15.9375 8.25C15.9375 4.83274 13.1673 2.0625 9.75 2.0625C6.33274 2.0625 3.5625 4.83274 3.5625 8.25C3.5625 11.1346 5.07699 13.3776 6.53509 14.8705C7.26769 15.6206 7.99868 16.1948 8.54654 16.5818C8.82094 16.7757 9.05065 16.9234 9.21337 17.0236C9.29477 17.0738 9.35951 17.112 9.40481 17.1383ZM9.75 10.5C10.9926 10.5 12 9.49264 12 8.25C12 7.00736 10.9926 6 9.75 6C8.50736 6 7.5 7.00736 7.5 8.25C7.5 9.49264 8.50736 10.5 9.75 10.5Z" fill="#353635"/>
</svg>
