<svg width="19" height="19" viewBox="0 0 19 19" fill="none" xmlns="http://www.w3.org/2000/svg">
<path fill-rule="evenodd" clip-rule="evenodd" d="M8.90481 16.8883C8.92746 16.9014 8.94527 16.9115 8.95788 16.9186L8.97882 16.9303C9.14597 17.0221 9.35332 17.0214 9.52063 16.9306L9.54212 16.9186C9.55473 16.9115 9.57254 16.9014 9.59519 16.8883C9.64049 16.862 9.70523 16.8238 9.78663 16.7736C9.94935 16.6734 10.1791 16.5257 10.4535 16.3318C11.0013 15.9448 11.7323 15.3706 12.4649 14.6205C13.923 13.1276 15.4375 10.8846 15.4375 8C15.4375 4.58274 12.6673 1.8125 9.25 1.8125C5.83274 1.8125 3.0625 4.58274 3.0625 8C3.0625 10.8846 4.57699 13.1276 6.03509 14.6205C6.76769 15.3706 7.49868 15.9448 8.04654 16.3318C8.32094 16.5257 8.55065 16.6734 8.71337 16.7736C8.79477 16.8238 8.85951 16.862 8.90481 16.8883ZM9.25 10.25C10.4926 10.25 11.5 9.24264 11.5 8C11.5 6.75736 10.4926 5.75 9.25 5.75C8.00736 5.75 7 6.75736 7 8C7 9.24264 8.00736 10.25 9.25 10.25Z" fill="white"/>
</svg>
