<svg width="23" height="23" viewBox="0 0 23 23" fill="none" xmlns="http://www.w3.org/2000/svg">
<g clip-path="url(#clip0_51_9087)">
<path d="M21.0801 19.5946L9.82927 8.31776C9.65145 8.13994 9.59959 7.86951 9.6922 7.63983C10.3479 6.03946 9.98486 4.2168 8.76236 2.99424C7.96214 2.19403 6.60996 1.55685 5.0948 1.79764L6.29879 3.00536C7.27682 3.98339 7.28049 5.58749 6.29879 6.5618C5.48379 7.36941 3.98714 7.73244 2.74607 6.5618L1.55314 5.3652C1.35682 6.65068 1.7532 7.96951 2.64229 8.93276C4.40198 10.8332 6.88038 10.2664 7.36565 9.95893C7.43602 9.91446 7.77687 9.82925 8.0473 10.096L15.7825 17.8497L16.8272 16.8013C17.0717 16.5568 17.4644 16.5568 17.7126 16.8013C17.9571 17.0459 17.9571 17.4385 17.7126 17.6868L16.6642 18.7352L17.52 19.5909L18.146 18.9611C18.3906 18.7166 18.7832 18.7166 19.0315 18.9611C19.276 19.2056 19.276 19.5983 19.0315 19.8465L18.4017 20.4726L19.3019 21.3728C19.9132 21.9841 20.7133 21.7359 21.0764 21.3728C21.5728 20.8874 21.5728 20.0836 21.0801 19.5946Z" fill="#353635"/>
<path d="M19.0793 9.12269L21.2391 6.9659L17.8271 3.54287L12.8592 2.32031L12.5703 2.61297L19.0793 9.12269Z" fill="white"/>
<path d="M14.5228 6.33984L12.0703 8.79969L13.9448 10.6705L16.3936 8.21437L14.5228 6.33984Z" fill="#353635"/>
<path d="M1.90942 18.9863C1.40186 19.4939 1.32782 20.2644 1.90569 20.8423C1.90569 20.8423 2.82075 21.7722 3.73947 20.9016L10.4041 14.2222L8.52953 12.3477L1.90942 18.9863Z" fill="#353635"/>
<path d="M14.8223 11.5543L17.271 9.09809L18.6306 10.4614C18.8862 10.717 19.2862 10.6911 19.516 10.4614L22.5611 7.40511C22.8057 7.16058 22.8057 6.76793 22.5611 6.5234L18.5898 2.52984C18.5083 2.44835 18.4083 2.39276 18.2971 2.36686L12.8144 1.02207C12.6032 0.970207 12.3773 1.02946 12.2217 1.18505L11.2436 2.16308C10.9991 2.4076 10.9991 2.80026 11.2436 3.04478L13.6405 5.4491L11.1918 7.90527L10.9954 7.70894C11.6326 5.74181 11.1251 3.58202 9.65065 2.10388C8.61337 1.06281 6.4165 -0.144902 3.67139 0.903503C3.47506 0.977599 2.99347 1.44808 3.46761 1.92228L5.42362 3.88574C5.91634 4.37846 5.91634 5.18234 5.42362 5.67505C4.97165 6.12702 4.16777 6.19739 3.64171 5.67505L1.68575 3.72643C1.13745 3.27819 0.741071 3.74122 0.66325 3.93388C-0.136908 5.94175 0.281709 8.23862 1.73389 9.79085C2.78602 10.9171 4.70868 12.0506 7.44639 11.2653L7.64272 11.4616L0.981869 18.141C0.00755937 19.1191 0.0149519 20.7009 0.981869 21.6863C2.20437 22.9385 3.8307 22.6162 4.62347 21.7827L11.2807 15.107L18.4194 22.2643C19.1937 23.0756 20.8237 23.4016 21.961 22.2643C22.9391 21.2862 22.9353 19.697 21.961 18.7189L14.8223 11.5543ZM12.5699 2.60393L12.8588 2.315L17.8267 3.5375L21.246 6.96053L19.0789 9.13144L12.5699 2.60393ZM14.5222 6.33447L16.3893 8.21272L13.9406 10.6689L12.0735 8.79064L14.5222 6.33447ZM3.73437 20.9047C2.81931 21.7716 1.90059 20.8417 1.90059 20.8417C1.319 20.2675 1.39676 19.4969 1.90432 18.9857L8.53188 12.3471L10.399 14.2253L3.73437 20.9047ZM21.0793 21.3826C20.7163 21.7456 19.9198 21.9938 19.3048 21.3826L18.4046 20.4786L19.0344 19.8488C19.2789 19.6043 19.2789 19.2079 19.0344 18.9634C18.7899 18.7189 18.3935 18.7189 18.149 18.9634L17.5229 19.5969L16.6671 18.7412L17.7156 17.6928C17.9601 17.4483 17.9601 17.0519 17.7156 16.8073C17.471 16.5628 17.0746 16.5628 16.8301 16.8073L15.7854 17.8558L8.05395 10.102C7.78719 9.83527 7.44267 9.92048 7.3723 9.96495C6.8907 10.2687 4.4049 10.8355 2.64894 8.93878C1.75985 7.97931 1.36347 6.65675 1.5598 5.37122L2.75267 6.56782C3.99373 7.73845 5.49038 7.37542 6.30538 6.56782C7.28709 5.59351 7.28342 3.98941 6.30538 3.01137L5.09394 1.80005C6.60544 1.55553 7.95762 2.18904 8.7615 2.99665C9.98033 4.21915 10.3434 6.04181 9.69134 7.64224C9.59501 7.87564 9.6506 8.14234 9.82841 8.32016L21.0793 19.597C21.572 20.0896 21.572 20.8899 21.0793 21.3826Z" fill="#353635"/>
</g>
<defs>
<clipPath id="clip0_51_9087">
<rect width="22.5" height="22.5" fill="white" transform="translate(0.25 0.5)"/>
</clipPath>
</defs>
</svg>
