<svg width="68" height="68" viewBox="0 0 68 68" fill="none" xmlns="http://www.w3.org/2000/svg">
<path fill-rule="evenodd" clip-rule="evenodd" d="M11.5 14.5625C9.94671 14.5625 8.6875 15.8217 8.6875 17.375C8.6875 18.9283 9.94671 20.1875 11.5 20.1875H56.5C58.0533 20.1875 59.3125 18.9283 59.3125 17.375C59.3125 15.8217 58.0533 14.5625 56.5 14.5625H11.5ZM8.6875 34.25C8.6875 32.6967 9.94671 31.4375 11.5 31.4375H56.5C58.0533 31.4375 59.3125 32.6967 59.3125 34.25C59.3125 35.8033 58.0533 37.0625 56.5 37.0625H11.5C9.94671 37.0625 8.6875 35.8033 8.6875 34.25ZM8.6875 51.125C8.6875 49.5717 9.94671 48.3125 11.5 48.3125H56.5C58.0533 48.3125 59.3125 49.5717 59.3125 51.125C59.3125 52.6783 58.0533 53.9375 56.5 53.9375H11.5C9.94671 53.9375 8.6875 52.6783 8.6875 51.125Z" fill="white"/>
</svg>
