<svg width="61" height="60" viewBox="0 0 61 60" fill="none" xmlns="http://www.w3.org/2000/svg">
<path d="M30.5156 26.1719C33.9243 26.1719 36.6875 23.4086 36.6875 20C36.6875 16.5914 33.9243 13.8281 30.5156 13.8281C27.107 13.8281 24.3438 16.5914 24.3438 20C24.3438 23.4086 27.107 26.1719 30.5156 26.1719Z" stroke="#C6A45A" stroke-width="2.46875" stroke-linecap="round"/>
<path d="M34.875 16.2969C35.3633 15.4512 36.0916 14.7692 36.9673 14.3373C37.8432 13.9054 38.8275 13.7429 39.7957 13.8704C40.7637 13.9978 41.6725 14.4095 42.4067 15.0534C43.1409 15.6973 43.6677 16.5444 43.9205 17.4877C44.1731 18.431 44.1405 19.428 43.8267 20.3527C43.5127 21.2775 42.9315 22.0883 42.1568 22.6828C41.3821 23.2773 40.4484 23.6287 39.474 23.6926C38.4996 23.7564 37.5282 23.5299 36.6824 23.0416" stroke="#C6A45A" stroke-width="2.46875"/>
<path d="M26.1511 16.2969C25.6628 15.4512 24.9346 14.7692 24.0588 14.3373C23.183 13.9054 22.1987 13.7429 21.2305 13.8704C20.2623 13.9978 19.3537 14.4095 18.6195 15.0534C17.8853 15.6973 17.3585 16.5444 17.1057 17.4877C16.853 18.431 16.8856 19.428 17.1995 20.3527C17.5134 21.2775 18.0945 22.0883 18.8692 22.6828C19.644 23.2773 20.5776 23.6287 21.5521 23.6926C22.5265 23.7564 23.498 23.5299 24.3437 23.0416" stroke="#C6A45A" stroke-width="2.46875"/>
<path d="M30.5124 31.1094C40.5854 31.1094 43.1857 39.2617 43.8569 43.4704C44.0717 44.8169 42.9852 45.9219 41.6217 45.9219H19.403C18.0395 45.9219 16.9531 44.8169 17.1678 43.4704C17.839 39.2617 20.4393 31.1094 30.5124 31.1094Z" stroke="#C6A45A" stroke-width="2.46875" stroke-linecap="round"/>
<path d="M33.1933 31.3214L32.2819 30.4892L30.75 32.1667L32.9909 32.539L33.1933 31.3214ZM43.3009 40.9844L42.1151 41.3275L42.3731 42.2188H43.3009V40.9844ZM39.1502 29.875C41.6873 29.875 43.4692 31.116 44.7747 32.8545C46.1064 34.6281 46.8882 36.863 47.3254 38.6087L49.7204 38.009C49.2483 36.1246 48.3658 33.5255 46.749 31.3723C45.1063 29.1845 42.6563 27.4062 39.1502 27.4062V29.875ZM34.1048 32.1537C35.3401 30.8008 36.9547 29.875 39.1502 29.875V27.4062C36.1452 27.4062 33.9006 28.7162 32.2819 30.4892L34.1048 32.1537ZM32.9909 32.539C38.6702 33.4828 41.0733 37.7259 42.1151 41.3275L44.4866 40.6412C43.3236 36.6211 40.4314 31.2731 33.3958 30.1039L32.9909 32.539ZM46.2972 39.75H43.3009V42.2188H46.2972V39.75ZM47.3254 38.6087C47.4583 39.1392 47.0687 39.75 46.2972 39.75V42.2188C48.4467 42.2188 50.2971 40.3121 49.7204 38.009L47.3254 38.6087Z" fill="#C6A45A"/>
<path d="M27.829 31.3214L28.0315 32.539L30.2723 32.1667L28.7405 30.4892L27.829 31.3214ZM17.7214 40.9844V42.2188H18.6493L18.9072 41.3275L17.7214 40.9844ZM21.8722 29.875C24.0677 29.875 25.6822 30.8008 26.9173 32.1537L28.7405 30.4892C27.1217 28.7162 24.8772 27.4062 21.8722 27.4062V29.875ZM13.6968 38.6087C14.134 36.863 14.9159 34.6281 16.2476 32.8545C17.5531 31.116 19.3349 29.875 21.8722 29.875V27.4062C18.3661 27.4062 15.9161 29.1845 14.2733 31.3723C12.6567 33.5255 11.7739 36.1246 11.302 38.009L13.6968 38.6087ZM14.7251 39.75C13.9536 39.75 13.564 39.1392 13.6968 38.6087L11.302 38.009C10.7252 40.3121 12.5755 42.2188 14.7251 42.2188V39.75ZM17.7214 39.75H14.7251V42.2188H17.7214V39.75ZM18.9072 41.3275C19.9491 37.7259 22.352 33.4828 28.0315 32.539L27.6266 30.1039C20.5909 31.2731 17.6988 36.6211 16.5357 40.6412L18.9072 41.3275Z" fill="#C6A45A"/>
</svg>
