<svg width="60" height="59" viewBox="0 0 60 59" fill="none" xmlns="http://www.w3.org/2000/svg">
<path d="M10.0003 2.58984V7.26984H5.32031V56.4098H54.4603V16.6298H35.7403V7.26984H31.0603V2.58984H10.0003ZM12.3403 4.92984H28.7203V9.60984H33.4003V54.0698H22.8703V45.8798H18.1903V54.0698H7.66031V9.60984H12.3403V4.92984ZM12.3403 11.9498V14.2898H14.6803V11.9498H12.3403ZM17.0203 11.9498V14.2898H19.3603V11.9498H17.0203ZM21.7003 11.9498V14.2898H24.0403V11.9498H21.7003ZM26.3803 11.9498V14.2898H28.7203V11.9498H26.3803ZM12.3403 17.7998V22.4798H14.6803V17.7998H12.3403ZM17.0203 17.7998V22.4798H19.3603V17.7998H17.0203ZM21.7003 17.7998V22.4798H24.0403V17.7998H21.7003ZM26.3803 17.7998V22.4798H28.7203V17.7998H26.3803ZM35.7403 18.9698H52.1203V54.0698H35.7403V18.9698ZM38.0803 21.3098V23.6498H40.4203V21.3098H38.0803ZM42.7603 21.3098V23.6498H45.1003V21.3098H42.7603ZM47.4403 21.3098V23.6498H49.7803V21.3098H47.4403ZM12.3403 24.8198V29.4998H14.6803V24.8198H12.3403ZM17.0203 24.8198V29.4998H19.3603V24.8198H17.0203ZM21.7003 24.8198V29.4998H24.0403V24.8198H21.7003ZM26.3803 24.8198V29.4998H28.7203V24.8198H26.3803ZM38.0803 25.9898V28.3298H40.4203V25.9898H38.0803ZM42.7603 25.9898V28.3298H45.1003V25.9898H42.7603ZM47.4403 25.9898V28.3298H49.7803V25.9898H47.4403ZM38.0803 30.6698V33.0098H40.4203V30.6698H38.0803ZM42.7603 30.6698V33.0098H45.1003V30.6698H42.7603ZM47.4403 30.6698V33.0098H49.7803V30.6698H47.4403ZM12.3403 31.8398V36.5198H14.6803V31.8398H12.3403ZM17.0203 31.8398V36.5198H19.3603V31.8398H17.0203ZM21.7003 31.8398V36.5198H24.0403V31.8398H21.7003ZM26.3803 31.8398V36.5198H28.7203V31.8398H26.3803ZM38.0803 35.3498V37.6898H40.4203V35.3498H38.0803ZM42.7603 35.3498V37.6898H45.1003V35.3498H42.7603ZM47.4403 35.3498V37.6898H49.7803V35.3498H47.4403ZM12.3403 38.8598V43.5398H14.6803V38.8598H12.3403ZM17.0203 38.8598V43.5398H19.3603V38.8598H17.0203ZM21.7003 38.8598V43.5398H24.0403V38.8598H21.7003ZM26.3803 38.8598V43.5398H28.7203V38.8598H26.3803ZM38.0803 40.0298V42.3698H40.4203V40.0298H38.0803ZM42.7603 40.0298V42.3698H45.1003V40.0298H42.7603ZM47.4403 40.0298V42.3698H49.7803V40.0298H47.4403ZM38.0803 44.7098V47.0498H40.4203V44.7098H38.0803ZM42.7603 44.7098V47.0498H45.1003V44.7098H42.7603ZM47.4403 44.7098V47.0498H49.7803V44.7098H47.4403ZM12.3403 45.8798V51.7298H14.6803V45.8798H12.3403ZM26.3803 45.8798V51.7298H28.7203V45.8798H26.3803ZM38.0803 49.3898V51.7298H40.4203V49.3898H38.0803ZM42.7603 49.3898V51.7298H45.1003V49.3898H42.7603ZM47.4403 49.3898V51.7298H49.7803V49.3898H47.4403Z" fill="#C6A45A"/>
</svg>
