<svg width="304" height="185" viewBox="0 0 304 185" fill="none" xmlns="http://www.w3.org/2000/svg">
<g clip-path="url(#clip0_51_10472)">
<path fill-rule="evenodd" clip-rule="evenodd" d="M270.887 3.70173C270.624 3.32496 270.244 3.46197 270.481 1.83159C271.367 -0.838668 270.239 2.33303 270.343 1.87954C270.474 2.66733 270.958 2.28371 271.254 2.24124C271.163 2.59472 271.04 3.16466 270.887 3.70173Z" fill="#C6A45A" fill-opacity="0.2"/>
<path fill-rule="evenodd" clip-rule="evenodd" d="M269.641 195.748C273.613 191.89 277.387 188.3 280.969 184.637C283.173 188.258 285.478 191.994 287.777 195.748H269.641Z" fill="#C6A45A" fill-opacity="0.2"/>
<path fill-rule="evenodd" clip-rule="evenodd" d="M283.016 182.789C287.115 178.481 290.919 174.911 294.498 171.613C298.541 177.184 302.288 182.592 306.242 188.586C304.475 190.75 302.67 193.181 300.781 195.752H291.122C288.399 191.304 285.699 187.003 283.016 182.789Z" fill="#C6A45A" fill-opacity="0.2"/>
<path fill-rule="evenodd" clip-rule="evenodd" d="M296.173 169.846C299.719 166.681 302.842 163.672 305.874 160.777C309.419 165.527 313.056 170.594 316.602 175.592C313.895 179.051 310.907 182.589 307.833 186.498C303.926 180.849 300.185 175.373 296.173 169.846Z" fill="#C6A45A" fill-opacity="0.2"/>
<path fill-rule="evenodd" clip-rule="evenodd" d="M228.812 189.368C235.751 184.697 241.759 180.273 248.028 176.207C251.767 182.55 255.653 188.821 259.578 195.751H232.227C231.099 193.6 229.961 191.472 228.812 189.368Z" fill="#C6A45A" fill-opacity="0.2"/>
<path fill-rule="evenodd" clip-rule="evenodd" d="M250.839 174.406C256.354 170.519 261.511 166.796 266.285 163.385C270.288 169.343 274.253 175.28 278.201 181.583C273.567 185.873 268.824 190.649 263.403 195.287C259.247 187.983 254.926 181.165 250.839 174.406Z" fill="#C6A45A" fill-opacity="0.2"/>
<path fill-rule="evenodd" clip-rule="evenodd" d="M268.569 161.795C273.143 159.148 277.19 156.228 281.126 153.51C284.758 158.371 288.509 163.467 292.135 168.785C288.443 172.244 284.656 175.775 280.411 179.825C276.367 173.481 272.586 167.505 268.569 161.795Z" fill="#C6A45A" fill-opacity="0.2"/>
<path fill-rule="evenodd" clip-rule="evenodd" d="M282.919 152.065C286.71 149.623 290.167 147.149 293.497 145.07C296.829 149.231 300.375 153.948 303.76 158.76C300.66 161.482 297.357 164.139 293.791 167.189C290.302 162.108 286.575 157.06 282.919 152.065Z" fill="#C6A45A" fill-opacity="0.2"/>
<path fill-rule="evenodd" clip-rule="evenodd" d="M295.083 144.055C298.254 142.174 301.12 140.171 303.962 138.535C307.122 142.249 310.151 146.112 313.379 150.262C310.841 152.473 308.049 154.728 305.247 157.234C301.897 152.84 298.424 148.186 295.083 144.055Z" fill="#C6A45A" fill-opacity="0.2"/>
<path fill-rule="evenodd" clip-rule="evenodd" d="M114.109 123.709C125.422 121.328 135.817 118.981 145.608 116.748C149.381 122.833 153.233 128.643 156.84 134.878C147.343 137.521 136.864 140.927 125.262 144.396C121.488 137.215 117.829 130.423 114.108 123.709H114.109Z" fill="#C6A45A" fill-opacity="0.2"/>
<path fill-rule="evenodd" clip-rule="evenodd" d="M179.351 116.841C187.249 115.091 194.198 113.364 201.113 112.059C204.505 116.651 208.199 121.408 211.881 126.395C205.133 128.445 198.051 130.645 190.44 133.08C186.894 127.61 183.034 121.993 179.351 116.84V116.841Z" fill="#C6A45A" fill-opacity="0.2"/>
<path fill-rule="evenodd" clip-rule="evenodd" d="M188.643 81.0965C194.933 80.8444 200.818 80.4635 206.496 80.1621C209.691 83.6503 212.818 87.0522 215.824 90.5869C210.317 91.087 204.467 91.7227 198.245 92.6324C195.139 88.6483 192.04 84.7902 188.643 81.0965Z" fill="#C6A45A" fill-opacity="0.2"/>
<path fill-rule="evenodd" clip-rule="evenodd" d="M155.223 195.749C163.286 191.474 170.831 187.429 177.937 183.531C179.968 187.522 182.002 191.593 184.014 195.749H155.224H155.223Z" fill="#C6A45A" fill-opacity="0.2"/>
<path fill-rule="evenodd" clip-rule="evenodd" d="M182.763 181.029C192.02 176.106 200.177 171.36 208.157 167.113C212.344 174.355 216.633 182.144 220.9 189.918C218.288 191.85 215.63 193.787 212.903 195.75H189.948C187.517 190.72 185.127 185.83 182.763 181.029Z" fill="#C6A45A" fill-opacity="0.2"/>
<path fill-rule="evenodd" clip-rule="evenodd" d="M211.85 165.208C219.076 161.662 225.746 158.368 231.874 155.104C235.822 161.098 240.028 167.531 243.826 174.169C237.857 178.304 231.436 182.547 224.376 187.118C220.297 179.462 216.038 172.35 211.85 165.208Z" fill="#C6A45A" fill-opacity="0.2"/>
<path fill-rule="evenodd" clip-rule="evenodd" d="M235.229 154.193C241.198 151.14 246.638 148.472 251.796 145.922C255.351 150.975 259.103 156.203 262.873 161.52C257.921 164.893 252.498 168.612 246.788 172.523C242.87 165.925 239.091 160.088 235.229 154.192V154.193Z" fill="#C6A45A" fill-opacity="0.2"/>
<path fill-rule="evenodd" clip-rule="evenodd" d="M254.976 144.064C259.743 141.866 264.243 139.724 268.506 137.592C271.907 141.95 275.324 146.549 278.744 151.275C274.709 154.068 270.487 156.737 265.877 159.402C262.305 154.349 258.612 149.178 254.976 144.065V144.064Z" fill="#C6A45A" fill-opacity="0.2"/>
<path fill-rule="evenodd" clip-rule="evenodd" d="M270.972 136.342C274.846 134.153 278.554 132.538 282.234 130.938C285.436 135.012 288.721 139.176 292.098 143.383C288.618 145.336 284.98 147.602 281.312 150.118C277.915 145.462 274.366 140.794 270.972 136.342Z" fill="#C6A45A" fill-opacity="0.2"/>
<path fill-rule="evenodd" clip-rule="evenodd" d="M283.844 130.489C287.113 128.906 290.341 127.418 293.483 126.102C296.266 129.612 299.21 133.109 302.115 136.609C299.262 138.375 296.241 140.276 293.177 142.315C290.025 138.309 286.843 134.3 283.845 130.489H283.844Z" fill="#C6A45A" fill-opacity="0.2"/>
<path fill-rule="evenodd" clip-rule="evenodd" d="M219.367 97.5796C224.633 96.8562 229.65 96.2383 234.52 95.4766C237.557 99.1196 240.617 102.632 243.838 106.289C239.197 107.267 234.257 108.191 228.994 109.49C225.762 105.415 222.522 101.493 219.366 97.5796H219.367Z" fill="#C6A45A" fill-opacity="0.2"/>
<path fill-rule="evenodd" clip-rule="evenodd" d="M222.192 63.1992C226.733 63.4362 231.044 63.6445 235.151 63.839C237.683 66.349 240.189 68.8946 242.773 71.3251C238.665 71.3497 234.555 71.2922 230.132 71.2319C227.567 68.5137 224.852 65.8558 222.193 63.1992H222.192Z" fill="#C6A45A" fill-opacity="0.2"/>
<path fill-rule="evenodd" clip-rule="evenodd" d="M134.024 167.845C145.58 163.124 156.176 158.949 166.26 155.09C170.189 162.346 174.395 170.143 178.23 178.496C168.331 183.667 157.962 188.917 146.369 194.534C142.45 185.457 138.216 176.464 134.026 167.845H134.024Z" fill="#C6A45A" fill-opacity="0.2"/>
<path fill-rule="evenodd" clip-rule="evenodd" d="M199.448 142.121C206.759 139.406 213.719 136.99 220.171 134.613C223.93 139.985 227.759 145.681 231.484 151.439C225.317 154.593 218.524 157.796 211.582 161.036C207.537 154.693 203.501 148.163 199.449 142.123L199.448 142.121Z" fill="#C6A45A" fill-opacity="0.2"/>
<path fill-rule="evenodd" clip-rule="evenodd" d="M243.815 126.888C248.867 125.179 253.477 123.619 257.866 122.012C261.048 125.927 264.378 130.181 267.572 134.555C263.393 136.571 258.818 138.711 254.198 140.923C250.859 136.064 247.262 131.303 243.814 126.888H243.815Z" fill="#C6A45A" fill-opacity="0.2"/>
<path fill-rule="evenodd" clip-rule="evenodd" d="M260.371 121.237C264.555 119.834 268.474 118.594 272.231 117.461C275.377 121.172 278.432 124.94 281.578 128.687C278.005 130.212 274.364 131.744 270.425 133.65C267.013 129.274 263.744 125.059 260.371 121.237Z" fill="#C6A45A" fill-opacity="0.2"/>
<path fill-rule="evenodd" clip-rule="evenodd" d="M273.851 117.048C277.334 115.926 280.713 114.821 284.029 113.699C286.791 116.971 289.555 120.186 292.379 123.523C289.325 124.889 286.1 126.422 282.818 127.899C279.746 124.198 276.713 120.541 273.853 117.046L273.851 117.048Z" fill="#C6A45A" fill-opacity="0.2"/>
<path fill-rule="evenodd" clip-rule="evenodd" d="M286.219 113.033C289.191 112.139 292.102 111.278 294.76 110.422C297.538 113.514 300.174 116.391 302.775 119.483C300.282 120.466 297.598 121.58 294.66 122.983C291.888 119.463 288.968 116.165 286.219 113.033Z" fill="#C6A45A" fill-opacity="0.2"/>
<path fill-rule="evenodd" clip-rule="evenodd" d="M296.064 110.146C298.766 109.402 301.186 108.55 303.619 107.852C306.002 110.423 308.432 113.188 310.697 115.866C308.5 116.827 306.241 117.894 303.618 118.783C301.182 116.003 298.596 112.993 296.066 110.146H296.064Z" fill="#C6A45A" fill-opacity="0.2"/>
<path fill-rule="evenodd" clip-rule="evenodd" d="M253.203 93.5601C257.149 93.1573 260.947 92.8518 264.589 92.4531C267.283 95.3508 270.029 98.3184 272.77 101.245C269.255 101.834 265.746 102.54 261.807 103.337C258.933 100.015 256.089 96.7099 253.203 93.5601Z" fill="#C6A45A" fill-opacity="0.2"/>
<path fill-rule="evenodd" clip-rule="evenodd" d="M266.245 92.1893C269.679 91.7577 273.035 91.4659 276.049 91.0645C278.689 93.7717 281.299 96.5406 283.75 99.252C280.766 99.8301 277.687 100.414 274.362 100.945C271.722 98.1052 268.939 95.0774 266.245 92.1893Z" fill="#C6A45A" fill-opacity="0.2"/>
<path fill-rule="evenodd" clip-rule="evenodd" d="M277.545 90.8986C280.677 90.5972 283.486 90.33 286.211 90.0684C288.571 92.4632 291.047 95.0307 293.402 97.49C290.782 97.9832 288.072 98.4819 285.219 99.0861C282.737 96.2885 280.118 93.5264 277.545 90.8986Z" fill="#C6A45A" fill-opacity="0.2"/>
<path fill-rule="evenodd" clip-rule="evenodd" d="M287.495 89.922C290.162 89.6672 292.694 89.5124 295.112 89.2891C297.325 91.5223 299.68 93.9925 301.816 96.1901C299.514 96.5778 297.101 96.8655 294.628 97.2546C292.37 94.8995 289.853 92.332 287.493 89.922H287.495Z" fill="#C6A45A" fill-opacity="0.2"/>
<path fill-rule="evenodd" clip-rule="evenodd" d="M296.297 89.2008C298.63 88.9419 300.811 88.6254 303 88.5391C305.057 90.5846 307.163 92.7136 309.242 94.914C307.28 95.2524 305.192 95.6401 302.94 96.058C300.773 93.7453 298.475 91.4299 296.297 89.2008Z" fill="#C6A45A" fill-opacity="0.2"/>
<path fill-rule="evenodd" clip-rule="evenodd" d="M313.496 76.9042C310.711 76.663 307.892 76.6699 304.824 76.5301C304.248 76.4767 303.598 76.4287 302.926 76.2246C306.13 76.5301 309.066 76.4616 311.898 76.6315C312.565 76.8795 313.073 76.7904 313.496 76.9055V76.9042Z" fill="#C6A45A" fill-opacity="0.2"/>
<path fill-rule="evenodd" clip-rule="evenodd" d="M257.66 82.6924C261.213 82.4663 264.739 82.3403 267.922 82.1348C270.474 84.6872 272.995 87.2835 275.455 89.9263C272.307 90.2428 268.953 90.5483 265.612 90.9361C262.978 88.0918 260.253 85.2695 257.662 82.691L257.66 82.6924Z" fill="#C6A45A" fill-opacity="0.2"/>
<path fill-rule="evenodd" clip-rule="evenodd" d="M269.471 82.0456C272.65 81.9949 275.669 81.9305 278.502 81.8086C280.802 84.1678 283.331 86.6381 285.559 88.9932C282.878 89.2563 279.965 89.4604 276.958 89.7057C274.523 87.134 271.956 84.535 269.471 82.047V82.0456Z" fill="#C6A45A" fill-opacity="0.2"/>
<path fill-rule="evenodd" clip-rule="evenodd" d="M279.866 81.7979C282.674 81.7294 285.312 81.7335 287.914 81.6719C290.124 83.7749 292.328 86.0122 294.469 88.3167C292.025 88.4496 289.497 88.6263 286.862 88.9346C284.668 86.5904 282.174 84.1092 279.865 81.7965L279.866 81.7979Z" fill="#C6A45A" fill-opacity="0.2"/>
<path fill-rule="evenodd" clip-rule="evenodd" d="M289.128 81.5951C291.606 81.5444 293.916 81.5882 296.159 81.5156C298.279 83.5474 300.341 85.5724 302.346 87.5823C300.234 87.6754 298.024 87.9412 295.657 88.1974C293.5 85.9971 291.297 83.7242 289.128 81.5951Z" fill="#C6A45A" fill-opacity="0.2"/>
<path fill-rule="evenodd" clip-rule="evenodd" d="M297.24 81.4648C299.462 81.5073 301.396 81.4031 303.422 81.4223C305.42 83.35 307.362 85.205 309.244 87.093C307.375 87.2615 305.424 87.4204 303.358 87.5492C301.355 85.5037 299.317 83.5692 297.24 81.4648Z" fill="#C6A45A" fill-opacity="0.2"/>
<path fill-rule="evenodd" clip-rule="evenodd" d="M248.758 73.2246C252.495 73.2643 256.102 73.3178 259.472 73.4014C261.931 75.8647 264.383 78.2336 266.805 80.6764C263.49 80.7874 260.003 80.9531 256.503 81.1039C253.879 78.4541 251.246 75.7675 248.758 73.226V73.2246Z" fill="#C6A45A" fill-opacity="0.2"/>
<path fill-rule="evenodd" clip-rule="evenodd" d="M261.044 73.5117C264.334 73.5227 267.518 73.6665 270.479 73.7638C272.808 76.0258 275.152 78.2878 277.41 80.5347C274.53 80.5059 271.442 80.5525 268.332 80.6963C265.954 78.1973 263.524 75.8559 261.044 73.5117Z" fill="#C6A45A" fill-opacity="0.2"/>
<path fill-rule="evenodd" clip-rule="evenodd" d="M271.977 73.7891C274.894 73.8466 277.718 73.9617 280.385 74.0809C282.511 76.1237 284.675 78.2308 286.842 80.4462C284.286 80.464 281.607 80.5147 278.843 80.5572C276.591 78.2774 274.246 75.9729 271.979 73.7891H271.977Z" fill="#C6A45A" fill-opacity="0.2"/>
<path fill-rule="evenodd" clip-rule="evenodd" d="M281.609 74.0938C284.262 74.2445 286.553 74.291 288.974 74.428C291.123 76.4242 293.074 78.341 295.139 80.3358C292.833 80.3467 290.486 80.3221 287.974 80.3714C285.943 78.2505 283.775 76.1434 281.609 74.0938Z" fill="#C6A45A" fill-opacity="0.2"/>
<path fill-rule="evenodd" clip-rule="evenodd" d="M290.215 74.5352C292.419 74.5776 294.578 74.6393 296.726 74.7653C298.715 76.682 300.619 78.5015 302.465 80.2922C300.54 80.3894 298.47 80.4032 296.216 80.3538C294.223 78.3508 292.228 76.4738 290.215 74.5352Z" fill="#C6A45A" fill-opacity="0.2"/>
<path fill-rule="evenodd" clip-rule="evenodd" d="M297.782 74.7969C299.882 74.9407 301.73 75.0202 303.503 75.0914C305.38 76.8205 307.301 78.5645 309.021 80.2552C307.266 80.284 305.431 80.3415 303.419 80.2908C301.571 78.507 299.701 76.6917 297.782 74.7969Z" fill="#C6A45A" fill-opacity="0.2"/>
<path fill-rule="evenodd" clip-rule="evenodd" d="M253.124 65.6113C256.544 65.8059 259.782 65.9388 262.912 66.1936C265.232 68.4049 267.472 70.5449 269.736 72.8494C266.648 72.6411 263.559 72.6192 260.212 72.5219C257.937 70.2134 255.562 67.9089 253.125 65.6113H253.124Z" fill="#C6A45A" fill-opacity="0.2"/>
<path fill-rule="evenodd" clip-rule="evenodd" d="M264.477 66.4141C267.541 66.5538 270.357 66.8169 273.197 67.1155C275.356 69.1008 277.447 71.1243 279.588 73.1849C276.829 72.9548 274.142 72.9479 271.158 72.8547C268.91 70.6572 266.651 68.4212 264.477 66.4141Z" fill="#C6A45A" fill-opacity="0.2"/>
<path fill-rule="evenodd" clip-rule="evenodd" d="M274.509 67.2266C277.206 67.4348 279.706 67.7006 282.238 67.9746C284.288 69.8297 286.268 71.7615 288.33 73.6988C285.889 73.4508 283.492 73.4001 280.811 73.2028C278.801 71.2614 276.664 69.2584 274.509 67.2266Z" fill="#C6A45A" fill-opacity="0.2"/>
<path fill-rule="evenodd" clip-rule="evenodd" d="M283.472 68.0645C285.858 68.2768 288.105 68.4056 290.335 68.618C292.261 70.4155 294.13 72.1925 296.041 74.0146C293.895 73.9037 291.777 73.8091 289.401 73.7023C287.37 71.7897 285.489 69.9305 283.472 68.0645Z" fill="#C6A45A" fill-opacity="0.2"/>
<path fill-rule="evenodd" clip-rule="evenodd" d="M291.445 68.75C293.459 68.8829 295.465 69.0733 297.528 69.3652C299.34 71.0188 301.154 72.7424 302.916 74.3919C301.04 74.3015 299.095 74.1152 297.094 74.0645C295.145 72.2409 293.27 70.5119 291.445 68.75Z" fill="#C6A45A" fill-opacity="0.2"/>
<path fill-rule="evenodd" clip-rule="evenodd" d="M303.692 70.6523C305.464 70.8716 307.161 71.073 308.719 71.21C310.32 72.68 312.028 74.2378 313.676 75.7846C312.109 75.6449 310.496 75.6079 308.887 75.5079C307.252 73.9035 305.485 72.2827 303.692 70.6537V70.6523Z" fill="#C6A45A" fill-opacity="0.2"/>
<path fill-rule="evenodd" clip-rule="evenodd" d="M256.824 59.3398C259.901 59.7029 262.869 60.0523 265.859 60.4085C267.978 62.3787 270.046 64.2885 272.223 66.2916C269.288 65.9107 266.534 65.7449 263.395 65.4065C261.25 63.3322 259.021 61.3785 256.824 59.3398Z" fill="#C6A45A" fill-opacity="0.2"/>
<path fill-rule="evenodd" clip-rule="evenodd" d="M267.234 60.5541C269.974 60.8528 272.726 61.2405 275.342 61.568C277.283 63.3984 279.306 65.2466 281.332 67.1414C278.77 66.8578 276.295 66.6591 273.531 66.4289C271.358 64.3944 269.283 62.5023 267.234 60.5527V60.5541Z" fill="#C6A45A" fill-opacity="0.2"/>
<path fill-rule="evenodd" clip-rule="evenodd" d="M276.596 61.7148C279.029 61.9916 281.415 62.319 283.861 62.6862C285.725 64.4344 287.507 66.0347 289.453 67.8253C287.226 67.613 284.951 67.4335 282.558 67.2746C280.57 65.3688 278.515 63.4767 276.596 61.7148Z" fill="#C6A45A" fill-opacity="0.2"/>
<path fill-rule="evenodd" clip-rule="evenodd" d="M284.924 62.8516C287.084 63.1817 289.243 63.4667 291.293 63.7435C293.074 65.3766 294.937 67.0152 296.707 68.6236C294.674 68.4154 292.672 68.1962 290.562 67.9578C288.609 66.1918 286.762 64.5203 284.924 62.8516Z" fill="#C6A45A" fill-opacity="0.2"/>
<path fill-rule="evenodd" clip-rule="evenodd" d="M297.903 65.1484C299.761 65.4471 301.482 65.6526 303.098 65.8609C304.767 67.3885 306.452 68.8928 308.035 70.4314C306.445 70.2656 304.818 70.1012 303.014 69.8711C301.334 68.3105 299.662 66.7788 297.903 65.1498V65.1484Z" fill="#C6A45A" fill-opacity="0.2"/>
<path fill-rule="evenodd" clip-rule="evenodd" d="M250.222 52.0619C253.466 52.5702 256.53 53.0237 259.475 53.532C261.591 55.2912 263.598 57.0996 265.77 59.0808C262.801 58.6273 259.803 58.3039 256.741 57.908C254.557 55.8912 252.401 53.9773 250.223 52.0605L250.222 52.0619Z" fill="#C6A45A" fill-opacity="0.2"/>
<path fill-rule="evenodd" clip-rule="evenodd" d="M260.873 53.6777C263.773 54.1764 266.542 54.5655 269.259 55.0355C271.14 56.7796 273.112 58.462 275.109 60.2897C272.474 59.9088 269.753 59.5745 267.002 59.1566C264.987 57.3262 262.973 55.5424 260.873 53.6777Z" fill="#C6A45A" fill-opacity="0.2"/>
<path fill-rule="evenodd" clip-rule="evenodd" d="M253.363 47.1973C256.313 47.7165 259.139 48.2865 261.903 48.8016C263.891 50.5594 265.835 52.246 267.781 53.938C265.173 53.4913 262.342 53.0598 259.372 52.5556C257.411 50.8115 255.363 49.0085 253.362 47.1973H253.363Z" fill="#C6A45A" fill-opacity="0.2"/>
<path fill-rule="evenodd" clip-rule="evenodd" d="M221.279 49.043C225.522 49.628 229.473 50.1719 233.231 50.5624C235.732 52.7147 238.021 54.9233 240.236 56.9948C236.588 56.6893 232.704 56.2509 228.585 55.8083C226.241 53.5738 223.804 51.3091 221.28 49.0443L221.279 49.043Z" fill="#C6A45A" fill-opacity="0.2"/>
<path fill-rule="evenodd" clip-rule="evenodd" d="M295.964 98.382C298.455 97.886 300.84 97.5147 303.058 97.1914C305.333 99.4575 307.642 101.937 309.904 104.358C307.806 104.858 305.541 105.397 303.282 106.142C300.794 103.413 298.426 100.878 295.963 98.382H295.964Z" fill="#C6A45A" fill-opacity="0.2"/>
<path fill-rule="evenodd" clip-rule="evenodd" d="M286.853 99.9923C289.659 99.4457 292.422 98.8278 294.847 98.3496C297.332 100.957 299.848 103.527 302.223 106.192C299.83 106.922 297.298 107.719 294.534 108.372C292.002 105.559 289.449 102.83 286.853 99.9937V99.9923Z" fill="#C6A45A" fill-opacity="0.2"/>
<path fill-rule="evenodd" clip-rule="evenodd" d="M276.019 101.925C279.269 101.361 282.493 100.872 285.277 100.07C287.898 102.958 290.578 105.871 293.064 108.707C290.301 109.506 287.398 110.318 284.325 111.091C281.515 107.941 278.824 104.96 276.018 101.925H276.019Z" fill="#C6A45A" fill-opacity="0.2"/>
<path fill-rule="evenodd" clip-rule="evenodd" d="M263.745 104.515C267.564 103.728 271.075 103.023 274.376 102.275C277.21 105.385 280.073 108.493 282.869 111.733C279.425 112.685 276.248 113.873 272.603 114.803C269.592 111.344 266.615 107.9 263.745 104.515Z" fill="#C6A45A" fill-opacity="0.2"/>
<path fill-rule="evenodd" clip-rule="evenodd" d="M249.562 107.759C254.028 106.885 257.986 106.059 261.977 105.191C264.955 108.607 267.927 112.084 270.902 115.483C267.176 116.714 263.229 117.918 259.088 119.151C255.812 115.163 252.699 111.413 249.562 107.759Z" fill="#C6A45A" fill-opacity="0.2"/>
<path fill-rule="evenodd" clip-rule="evenodd" d="M101.914 88.0138C104.725 85.7696 107.478 83.5049 109.993 81.4375C114.057 83.7351 118.103 85.8751 122.189 88.3015C119.91 90.6786 117.652 93.1707 114.923 95.7204C110.517 93.12 106.114 90.5347 101.915 88.0138H101.914Z" fill="#C6A45A" fill-opacity="0.2"/>
<path fill-rule="evenodd" clip-rule="evenodd" d="M239.835 83.4074C240.954 82.2826 242.046 81.2359 243.183 80.3398C244.766 81.4469 246.415 82.6265 248.043 83.7486C247.032 84.8131 246.077 85.9571 245.051 87.2436C243.298 85.9352 241.55 84.6364 239.834 83.4074H239.835Z" fill="#C6A45A" fill-opacity="0.2"/>
<path fill-rule="evenodd" clip-rule="evenodd" d="M284.103 41.8522C284.538 41.189 284.938 40.4985 285.305 39.8066C286.73 40.9835 288.251 42.2577 289.744 43.499C289.511 44.295 289.182 45.0225 288.81 45.802C287.248 44.4909 285.66 43.1578 284.104 41.8522H284.103Z" fill="#C6A45A" fill-opacity="0.2"/>
<path fill-rule="evenodd" clip-rule="evenodd" d="M52.8554 156.889C56.3697 154.142 59.6843 151.51 62.9037 149.193C67.0958 150.481 71.2093 152.006 75.5254 153.461C72.3955 155.993 69.3151 158.729 66.1494 161.677C61.6473 159.987 57.042 158.463 52.854 156.888L52.8554 156.889Z" fill="#C6A45A" fill-opacity="0.2"/>
<path fill-rule="evenodd" clip-rule="evenodd" d="M274.072 50.7638C274.418 50.3843 274.691 50.0144 274.962 49.6582C275.888 50.3295 276.819 50.9885 277.719 51.6462C277.511 52.0531 277.296 52.5312 277.055 52.9313C276.059 52.212 275.1 51.4982 274.072 50.7625V50.7638Z" fill="#C6A45A" fill-opacity="0.2"/>
<path fill-rule="evenodd" clip-rule="evenodd" d="M242.17 33.401C243.005 33.0462 243.795 32.7324 244.578 32.4434C245.759 33.2448 246.938 34.0737 248.145 34.9478C247.486 35.3438 246.763 35.6959 245.94 36.1508C244.712 35.1931 243.44 34.2984 242.17 33.4024V33.401Z" fill="#C6A45A" fill-opacity="0.2"/>
<path fill-rule="evenodd" clip-rule="evenodd" d="M64.6165 65.9155C67.9256 64.5564 71.0018 63.3699 73.9251 62.252C77.7052 63.8166 81.2842 65.3154 84.709 66.9047C82.0681 68.2213 79.2867 69.5695 76.1747 71.2273C72.1796 69.3681 68.2975 67.524 64.6165 65.9155Z" fill="#C6A45A" fill-opacity="0.2"/>
<path fill-rule="evenodd" clip-rule="evenodd" d="M255.704 31.2823C256.209 31.0453 256.586 30.7343 256.986 30.5C257.947 31.1275 258.863 31.8358 259.789 32.5195C259.45 32.8195 259.137 33.1744 258.728 33.4484C257.807 32.7455 256.757 32.0016 255.704 31.2823Z" fill="#C6A45A" fill-opacity="0.2"/>
<path fill-rule="evenodd" clip-rule="evenodd" d="M276.74 26.1074C277.007 25.9128 277.299 25.7635 277.562 25.584C278.255 26.1197 279.014 26.6732 279.68 27.1842C279.45 27.3925 279.25 27.6035 279.045 27.8446C278.286 27.2733 277.498 26.691 276.74 26.1074Z" fill="#C6A45A" fill-opacity="0.2"/>
<path fill-rule="evenodd" clip-rule="evenodd" d="M50.3134 110.514C52.6692 109.389 54.5758 108.327 56.5871 107.311C59.5407 108.145 62.3689 108.9 65.1875 109.716C63.4586 110.759 61.501 111.974 59.4291 113.125C56.3419 112.287 53.318 111.374 50.3134 110.514Z" fill="#C6A45A" fill-opacity="0.2"/>
<path fill-rule="evenodd" clip-rule="evenodd" d="M223.67 27.9592C224.497 27.7153 225.341 27.5482 226.056 27.2988C227.206 28.0483 228.421 28.8265 229.51 29.5485C228.817 29.8526 228.168 30.1116 227.402 30.3965C226.257 29.6115 224.918 28.7456 223.67 27.9592Z" fill="#C6A45A" fill-opacity="0.2"/>
<path fill-rule="evenodd" clip-rule="evenodd" d="M254.129 9.43344C254.654 9.33617 255.179 9.25259 255.694 9.22656C256.559 9.77459 257.383 10.4007 258.211 11.0008C257.721 11.0857 257.227 11.1789 256.733 11.2871C255.848 10.6405 254.989 10.0253 254.129 9.43344Z" fill="#C6A45A" fill-opacity="0.2"/>
<path fill-rule="evenodd" clip-rule="evenodd" d="M267.197 32.1301C267.674 31.9794 268.144 31.8725 268.583 31.7383C269.323 32.2699 270.161 32.8535 270.938 33.3796C270.495 33.5358 270.088 33.681 269.643 33.84C268.805 33.2591 268.032 32.7124 267.196 32.1301H267.197Z" fill="#C6A45A" fill-opacity="0.2"/>
<path fill-rule="evenodd" clip-rule="evenodd" d="M278.429 44.3531C278.905 44.1969 279.352 44.0174 279.79 43.9023C280.487 44.375 281.253 44.8819 281.988 45.3532C281.546 45.5094 281.104 45.6738 280.692 45.8602C279.96 45.3628 279.193 44.8628 278.429 44.3531Z" fill="#C6A45A" fill-opacity="0.2"/>
<path fill-rule="evenodd" clip-rule="evenodd" d="M204.272 50.89C205.307 50.6201 206.299 50.3447 207.252 50.0898C208.507 50.7653 209.729 51.4078 211.053 52.1148C210.073 52.3381 209.112 52.6436 208.151 52.9272C206.903 52.2313 205.537 51.5407 204.272 50.89Z" fill="#C6A45A" fill-opacity="0.2"/>
<path fill-rule="evenodd" clip-rule="evenodd" d="M289.971 55.0513C290.413 54.8965 290.859 54.6923 291.266 54.5293C291.951 54.9855 292.568 55.4034 293.221 55.8487C292.849 56.0213 292.474 56.2158 292.064 56.4241C291.377 55.9501 290.689 55.5363 289.971 55.0499V55.0513Z" fill="#C6A45A" fill-opacity="0.2"/>
<path fill-rule="evenodd" clip-rule="evenodd" d="M284.358 36.9167C284.745 36.8166 285.124 36.7783 285.508 36.707C286.072 37.0906 286.663 37.5195 287.23 37.8798C286.914 37.9483 286.528 38.047 286.206 38.1566C285.58 37.725 284.986 37.3085 284.358 36.918V36.9167Z" fill="#C6A45A" fill-opacity="0.2"/>
<path fill-rule="evenodd" clip-rule="evenodd" d="M0.249426 135.756C3.39313 134.811 6.71729 133.689 10.0773 132.715C13.1893 133.381 16.5507 133.855 19.7109 134.437C16.6898 135.36 13.418 136.443 10.3955 137.516C6.8647 136.922 3.5984 136.376 0.249426 135.758V135.756Z" fill="#C6A45A" fill-opacity="0.2"/>
<path fill-rule="evenodd" clip-rule="evenodd" d="M241.847 15.082C242.539 15.1094 243.164 15.1163 243.788 15.1218C244.519 15.5862 245.282 16.0712 246.07 16.5905C245.449 16.5617 244.88 16.6138 244.253 16.6083C243.465 16.0904 242.676 15.567 241.848 15.082H241.847Z" fill="#C6A45A" fill-opacity="0.2"/>
<path fill-rule="evenodd" clip-rule="evenodd" d="M155.512 74.7387C157.077 74.3578 158.754 74.1304 160.351 73.7852C161.924 74.3318 163.355 74.81 164.762 75.3717C163.312 75.6375 161.743 76.0115 160.105 76.3855C158.575 75.8211 157.003 75.2785 155.514 74.7387H155.512Z" fill="#C6A45A" fill-opacity="0.2"/>
<path fill-rule="evenodd" clip-rule="evenodd" d="M160.854 103.122C162.266 102.242 163.663 101.365 165.068 100.602C167.035 101.356 169.041 102.244 171.061 103.101C169.753 103.971 168.454 104.819 167.141 105.808C164.952 104.816 162.879 103.984 160.854 103.121V103.122Z" fill="#C6A45A" fill-opacity="0.2"/>
<path fill-rule="evenodd" clip-rule="evenodd" d="M195.045 68.0722C196.318 67.346 197.492 66.698 198.581 66.0664C200.257 66.9939 202.002 67.979 203.746 68.9819C202.65 69.6546 201.67 70.4629 200.448 71.1576C198.594 70.1177 196.824 69.0833 195.045 68.0722Z" fill="#C6A45A" fill-opacity="0.2"/>
</g>
<defs>
<clipPath id="clip0_51_10472">
<rect width="358.344" height="195" fill="white" transform="matrix(-1 0 0 1 358.594 0.75)"/>
</clipPath>
</defs>
</svg>
