<svg width="61" height="60" viewBox="0 0 61 60" fill="none" xmlns="http://www.w3.org/2000/svg">
<path fill-rule="evenodd" clip-rule="evenodd" d="M25.4349 8.27344H35.5885C40.1255 8.27339 43.719 8.27336 46.5314 8.6515C49.4258 9.04063 51.7686 9.86055 53.6163 11.7081C55.4636 13.5556 56.2835 15.8983 56.6728 18.7927C56.896 20.4539 56.9876 22.3875 57.0249 24.6271C57.0419 24.7281 57.0508 24.8317 57.0508 24.9375C57.0508 25.0246 57.0449 25.1101 57.0333 25.194C57.0508 26.5906 57.0508 28.1019 57.0508 29.7358V30.0142C57.0508 34.5513 57.0508 38.1448 56.6728 40.9572C56.2835 43.8516 55.4636 46.1944 53.6163 48.042C51.7686 49.8894 49.4258 50.7093 46.5314 51.0986C43.719 51.4766 40.1255 51.4766 35.5885 51.4766H25.435C20.898 51.4766 17.3044 51.4766 14.492 51.0986C11.5975 50.7093 9.25482 49.8894 7.40728 48.042C5.55977 46.1944 4.73985 43.8516 4.35072 40.9572C3.97258 38.1448 3.97261 34.5513 3.97266 30.0142V29.7358C3.97263 28.1019 3.97263 26.5906 3.99028 25.194C3.97866 25.1101 3.97266 25.0244 3.97266 24.9375C3.97266 24.8317 3.98152 24.7281 3.99856 24.6272C4.03596 22.3876 4.12737 20.4539 4.35072 18.7927C4.73985 15.8983 5.55977 13.5556 7.40728 11.7081C9.25482 9.86055 11.5975 9.04063 14.492 8.6515C17.3044 8.27336 20.898 8.27339 25.4349 8.27344ZM7.6807 26.7891C7.67601 27.7479 7.67578 28.7742 7.67578 29.875C7.67578 34.5824 7.67971 37.9268 8.02082 40.464C8.35474 42.9475 8.98099 44.3787 10.0258 45.4234C11.0706 46.4682 12.5016 47.0945 14.9854 47.4283C17.5224 47.7695 20.8668 47.7734 25.5742 47.7734H35.4492C40.1566 47.7734 43.501 47.7695 46.0382 47.4283C48.5217 47.0945 49.9529 46.4682 50.9977 45.4234C52.0424 44.3787 52.6688 42.9475 53.0025 40.464C53.3437 37.9268 53.3477 34.5824 53.3477 29.875C53.3477 28.7742 53.3474 27.7479 53.3427 26.7891H7.6807ZM53.2832 23.0859H7.74014C7.78846 21.6374 7.87296 20.386 8.02082 19.2862C8.35474 16.8024 8.98099 15.3714 10.0258 14.3266C11.0706 13.2818 12.5016 12.6555 14.9854 12.3216C17.5224 11.9805 20.8668 11.9766 25.5742 11.9766H35.4492C40.1566 11.9766 43.501 11.9805 46.0382 12.3216C48.5217 12.6555 49.9529 13.2818 50.9977 14.3266C52.0424 15.3714 52.6688 16.8024 53.0025 19.2862C53.1504 20.386 53.2351 21.6374 53.2832 23.0859ZM13.8477 39.75C13.8477 38.7274 14.6766 37.8984 15.6992 37.8984H25.5742C26.5968 37.8984 27.4258 38.7274 27.4258 39.75C27.4258 40.7726 26.5968 41.6016 25.5742 41.6016H15.6992C14.6766 41.6016 13.8477 40.7726 13.8477 39.75ZM29.8945 39.75C29.8945 38.7274 30.7235 37.8984 31.7461 37.8984H35.4492C36.4718 37.8984 37.3008 38.7274 37.3008 39.75C37.3008 40.7726 36.4718 41.6016 35.4492 41.6016H31.7461C30.7235 41.6016 29.8945 40.7726 29.8945 39.75Z" fill="#C6A45A"/>
</svg>
