<svg width="206" height="90" viewBox="0 0 206 90" fill="none" xmlns="http://www.w3.org/2000/svg">
<path d="M77.7157 83V67.6005H83.152C84.1717 67.6005 85.0675 67.7934 85.8392 68.1793C86.6109 68.5651 87.2103 69.1163 87.6375 69.8329C88.0785 70.5495 88.2989 71.3901 88.2989 72.3547C88.2989 73.3193 88.0785 74.1599 87.6375 74.8765C87.2103 75.5793 86.6109 76.1305 85.8392 76.5301C85.0812 76.916 84.1855 77.1089 83.152 77.1089H79.7414V83H77.7157ZM79.7414 75.2486H83.214C83.8341 75.2486 84.3716 75.1314 84.8263 74.8972C85.2811 74.6629 85.6325 74.3253 85.8805 73.8843C86.1285 73.4433 86.2526 72.9335 86.2526 72.3547C86.2526 71.7621 86.1285 71.2523 85.8805 70.8251C85.6325 70.3841 85.2811 70.0465 84.8263 69.8122C84.3716 69.578 83.8341 69.4608 83.214 69.4608H79.7414V75.2486ZM91.0384 83V67.6005H96.4748C97.4945 67.6005 98.3902 67.7934 99.1619 68.1793C99.9336 68.5651 100.533 69.1163 100.96 69.8329C101.401 70.5495 101.622 71.3901 101.622 72.3547C101.622 73.4433 101.346 74.3666 100.795 75.1245C100.244 75.8825 99.4996 76.4268 98.5625 76.7575L102.138 83H99.7821L96.02 76.3234L97.3636 77.1089H93.0641V83H91.0384ZM93.0641 75.2486H96.5368C97.1431 75.2486 97.6737 75.1314 98.1284 74.8972C98.5832 74.6629 98.9346 74.3253 99.1826 73.8843C99.4444 73.4433 99.5754 72.9335 99.5754 72.3547C99.5754 71.7621 99.4444 71.2523 99.1826 70.8251C98.9346 70.3841 98.5832 70.0465 98.1284 69.8122C97.6737 69.578 97.1431 69.4608 96.5368 69.4608H93.0641V75.2486ZM104.442 83V67.6005H114.467V69.4608H106.468V74.3391H114.054V76.1994H106.468V81.1397H114.467V83H104.442ZM121.05 83L115.489 67.6005H117.66L122.372 81.1397H121.938L126.651 67.6005H128.822L123.282 83H121.05Z" fill="#353635"/>
<g clip-path="url(#clip0_51_732)">
<path d="M40.9017 19.959L27.3511 33.679L40.9017 47.3989" stroke="#C6A45A" stroke-width="2.43911" stroke-linecap="round" stroke-linejoin="round"/>
<path d="M43.3408 33.2734H181.557" stroke="url(#paint0_linear_51_732)" stroke-width="4.06518" stroke-linecap="round"/>
</g>
<defs>
<linearGradient id="paint0_linear_51_732" x1="43.3408" y1="35.2734" x2="181.557" y2="35.2734" gradientUnits="userSpaceOnUse">
<stop stop-color="#353635" stop-opacity="0"/>
<stop offset="0.48367" stop-color="#C6A45A"/>
<stop offset="1" stop-color="#353635" stop-opacity="0"/>
</linearGradient>
<clipPath id="clip0_51_732">
<rect width="205.698" height="65.8559" fill="white" transform="translate(0.25 0.75)"/>
</clipPath>
</defs>
</svg>
