<svg width="38" height="38" viewBox="0 0 38 38" fill="none" xmlns="http://www.w3.org/2000/svg">
<g clip-path="url(#clip0_51_725)">
<path d="M13.6816 26.6149C10.1609 26.6149 6.85084 25.2436 4.36112 22.7539C-0.777924 17.6148 -0.777924 9.25203 4.36112 4.11299C6.85091 1.62327 10.161 0.251953 13.6816 0.251953C17.2022 0.251953 20.5123 1.62327 23.002 4.11299C25.4923 6.60271 26.8636 9.91282 26.8636 13.4334C26.8642 16.954 25.4929 20.2641 23.0032 22.7539C20.5129 25.2436 17.2028 26.6149 13.6816 26.6149ZM13.6816 0.837818C10.3171 0.837818 7.15406 2.14849 4.7753 4.52725C-0.135517 9.43799 -0.135517 17.4289 4.7753 22.3397C7.15406 24.7184 10.3171 26.0291 13.6816 26.0291C17.046 26.0291 20.2096 24.7184 22.589 22.3397C24.9677 19.9604 26.2783 16.7979 26.2778 13.4334C26.2778 10.069 24.967 6.90593 22.5878 4.52717C20.2091 2.14849 17.0461 0.837818 13.6816 0.837818Z" fill="#353635"/>
<path d="M13.679 25.4431C10.4714 25.4431 7.45529 24.1942 5.18706 21.9265C2.91934 19.6588 1.67041 16.6433 1.67041 13.435C1.671 10.2267 2.91992 7.21126 5.18823 4.94353C7.45595 2.67515 10.472 1.42578 13.6802 1.42578C16.8879 1.42578 19.9034 2.67463 22.1712 4.94243C26.8525 9.62495 26.8525 17.2434 22.1723 21.9266C19.9034 24.1942 16.8873 25.4431 13.679 25.4431ZM13.6802 2.01157C10.6281 2.01157 7.75976 3.19985 5.60241 5.35771C3.44507 7.51506 2.25686 10.3835 2.25627 13.435C2.25627 16.4865 3.4439 19.355 5.60124 21.5122C7.75859 23.669 10.6276 24.8573 13.679 24.8573C16.7306 24.8573 19.6002 23.669 21.7581 21.5122C26.21 17.058 26.2095 9.81025 21.7569 5.35654C19.6002 3.19985 16.7318 2.01157 13.6802 2.01157Z" fill="#353635"/>
<path d="M4.30664 13.7284C4.14478 13.7284 4.01367 13.5974 4.01367 13.4355C4.01367 8.10598 8.35012 3.76953 13.6797 3.76953C13.8416 3.76953 13.9726 3.90056 13.9726 4.06243C13.9727 4.1009 13.9651 4.139 13.9504 4.17455C13.9357 4.2101 13.9141 4.2424 13.8869 4.2696C13.8597 4.29681 13.8273 4.31838 13.7918 4.33309C13.7562 4.3478 13.7181 4.35535 13.6797 4.35532C8.67283 4.35532 4.59954 8.42861 4.59954 13.4355C4.59956 13.474 4.59199 13.5121 4.57728 13.5476C4.56257 13.5832 4.54099 13.6155 4.51379 13.6427C4.48659 13.6699 4.45429 13.6914 4.41875 13.7062C4.38321 13.7209 4.34511 13.7284 4.30664 13.7284ZM25.0493 27.1667C25.0109 27.1667 24.9728 27.1591 24.9372 27.1444C24.9017 27.1297 24.8694 27.1081 24.8423 27.0808L22.173 24.4115C22.1458 24.3843 22.1242 24.352 22.1095 24.3165C22.0948 24.281 22.0872 24.2429 22.0872 24.2044C22.0872 24.166 22.0948 24.1279 22.1095 24.0924C22.1242 24.0568 22.1458 24.0246 22.173 23.9974C22.2002 23.9702 22.2325 23.9486 22.268 23.9339C22.3036 23.9192 22.3416 23.9116 22.3801 23.9116C22.4185 23.9116 22.4566 23.9192 22.4922 23.9339C22.5277 23.9486 22.56 23.9702 22.5872 23.9974L25.2565 26.6667C25.2975 26.7077 25.3254 26.7599 25.3368 26.8167C25.3481 26.8735 25.3423 26.9324 25.3201 26.986C25.2979 27.0395 25.2604 27.0853 25.2122 27.1174C25.164 27.1496 25.1073 27.1667 25.0493 27.1667ZM27.1203 25.0969C27.0818 25.097 27.0437 25.0894 27.0082 25.0747C26.9726 25.0599 26.9404 25.0383 26.9132 25.0111L24.2439 22.3406C24.189 22.2857 24.1581 22.2112 24.1581 22.1335C24.1581 22.0558 24.189 21.9814 24.2439 21.9265C24.2989 21.8715 24.3733 21.8407 24.451 21.8407C24.5287 21.8407 24.6032 21.8716 24.6581 21.9265L27.3274 24.597C27.3684 24.6379 27.3964 24.6901 27.4077 24.7469C27.419 24.8038 27.4132 24.8627 27.391 24.9162C27.3689 24.9698 27.3313 25.0155 27.2831 25.0477C27.2349 25.0798 27.1782 25.097 27.1203 25.0969Z" fill="#353635"/>
<path d="M24.6348 27.5788C24.5769 27.5789 24.5202 27.5617 24.472 27.5295C24.4238 27.4974 24.3863 27.4516 24.3641 27.3981C24.3419 27.3445 24.3361 27.2856 24.3474 27.2288C24.3588 27.1719 24.3867 27.1197 24.4277 27.0788L27.3271 24.1795C27.382 24.1246 27.4565 24.0937 27.5342 24.0938C27.6118 24.0938 27.6863 24.1246 27.7412 24.1795C27.7961 24.2345 27.827 24.309 27.827 24.3866C27.827 24.4643 27.7961 24.5388 27.7412 24.5937L24.8419 27.493C24.8147 27.5202 24.7825 27.5418 24.7469 27.5566C24.7114 27.5713 24.6733 27.5789 24.6348 27.5788Z" fill="#353635"/>
<path d="M37.0627 34.2076C37.0243 34.2076 36.9861 34.2001 36.9506 34.1854C36.9151 34.1706 36.8828 34.149 36.8556 34.1218L27.3269 24.5937C27.272 24.5388 27.2412 24.4643 27.2412 24.3866C27.2411 24.309 27.272 24.2345 27.3269 24.1795C27.3818 24.1246 27.4563 24.0938 27.534 24.0938C27.6116 24.0937 27.6861 24.1246 27.7411 24.1795L37.2698 33.7076C37.3108 33.7485 37.3387 33.8007 37.35 33.8575C37.3614 33.9144 37.3556 33.9733 37.3334 34.0268C37.3113 34.0804 37.2737 34.1261 37.2255 34.1583C37.1773 34.1905 37.1207 34.2076 37.0627 34.2076ZM34.2023 37.1447C34.1638 37.1447 34.1257 37.1372 34.0901 37.1225C34.0546 37.1078 34.0223 37.0862 33.9951 37.0589L24.4276 27.493C24.4004 27.4658 24.3788 27.4335 24.3641 27.398C24.3494 27.3624 24.3418 27.3243 24.3418 27.2859C24.3418 27.2474 24.3494 27.2093 24.3641 27.1738C24.3788 27.1383 24.4004 27.106 24.4276 27.0788C24.4548 27.0516 24.4871 27.03 24.5226 27.0153C24.5581 27.0006 24.5962 26.993 24.6347 26.993C24.6731 26.993 24.7112 27.0006 24.7467 27.0153C24.7823 27.03 24.8146 27.0516 24.8418 27.0788L34.4093 36.6447C34.4503 36.6856 34.4782 36.7378 34.4896 36.7946C34.5009 36.8515 34.4951 36.9104 34.4729 36.9639C34.4508 37.0174 34.4132 37.0632 34.365 37.0954C34.3169 37.1276 34.2602 37.1447 34.2023 37.1447Z" fill="#353635"/>
<path d="M35.6529 37.749C35.0265 37.749 34.4378 37.5047 33.995 37.0614C33.9678 37.0342 33.9462 37.0019 33.9315 36.9664C33.9168 36.9308 33.9092 36.8927 33.9092 36.8543C33.9092 36.8158 33.9168 36.7777 33.9315 36.7422C33.9462 36.7067 33.9678 36.6744 33.995 36.6472C34.0222 36.62 34.0544 36.5984 34.09 36.5837C34.1255 36.569 34.1636 36.5614 34.2021 36.5614C34.2405 36.5614 34.2786 36.569 34.3141 36.5837C34.3497 36.5984 34.3819 36.62 34.4091 36.6472C34.7415 36.9801 35.1832 37.1632 35.6529 37.1632H35.654C36.1231 37.1626 36.563 36.9801 36.8937 36.6484C37.2267 36.316 37.4097 35.8748 37.4097 35.4057C37.4097 34.9361 37.2267 34.4944 36.8943 34.1621C36.8671 34.1349 36.8456 34.1026 36.8308 34.0671C36.8161 34.0315 36.8085 33.9934 36.8085 33.955C36.8085 33.9165 36.8161 33.8784 36.8308 33.8429C36.8456 33.8074 36.8671 33.7751 36.8943 33.7479C36.9215 33.7207 36.9538 33.6991 36.9893 33.6844C37.0249 33.6697 37.063 33.6621 37.1014 33.6621C37.1399 33.6621 37.178 33.6697 37.2135 33.6844C37.249 33.6991 37.2813 33.7207 37.3085 33.7479C37.7519 34.1913 37.9956 34.7799 37.9956 35.4058C37.9956 36.0317 37.7519 36.6198 37.3085 37.0626C36.8674 37.5048 36.2799 37.7485 35.654 37.7491L35.6529 37.749Z" fill="#353635"/>
</g>
<defs>
<clipPath id="clip0_51_725">
<rect width="37.5" height="37.5" fill="white" transform="translate(0.5 0.25)"/>
</clipPath>
</defs>
</svg>
