<svg width="21" height="21" viewBox="0 0 21 21" fill="none" xmlns="http://www.w3.org/2000/svg">
<g clip-path="url(#clip0_51_7581)">
<path d="M2.21816 4.49023C1.55887 4.49023 1.02116 5.02795 1.02116 5.68723V11.1984C1.53861 10.7495 2.19322 10.3864 3.01616 10.1012V8.48024C3.01616 7.41883 4.8288 7.28324 6.40766 7.28324C7.98651 7.28324 9.79916 7.41883 9.79916 8.48024V9.27824C9.9332 9.27668 10.061 9.27824 10.1982 9.27824C10.3353 9.27824 10.4631 9.27668 10.5972 9.27824V8.48024C10.5972 7.41883 12.4098 7.28324 13.9887 7.28324C15.5675 7.28324 17.3802 7.41883 17.3802 8.48024V10.0887C18.2015 10.3724 18.853 10.7433 19.3752 11.1984V5.68723C19.3752 5.02795 18.8374 4.49023 18.1782 4.49023H2.21816ZM10.1982 10.0762C2.57975 10.0762 0.216922 11.4852 0.223157 15.2632H20.1732C20.1794 11.4603 17.8166 10.0762 10.1982 10.0762ZM0.223157 16.0612V20.4502H3.01616V18.8542C3.01616 18.2807 3.24059 18.0562 3.81416 18.0562H16.5822C17.1557 18.0562 17.3802 18.2807 17.3802 18.8542V20.4502H20.1732V16.0612H0.223157Z" fill="#C6A45A"/>
</g>
<defs>
<clipPath id="clip0_51_7581">
<rect width="19.95" height="19.95" fill="white" transform="translate(0.223145 0.5)"/>
</clipPath>
</defs>
</svg>
