<svg width="22" height="23" viewBox="0 0 22 23" fill="none" xmlns="http://www.w3.org/2000/svg">
<g clip-path="url(#clip0_51_7591)">
<path d="M21.9451 10.7764C21.9451 11.0002 21.7636 11.1817 21.5398 11.1817H20.8641V13.8619C20.8641 15.2201 20.1462 16.4134 19.0702 17.0837L19.8809 18.5914C19.9869 18.7886 19.913 19.0343 19.7158 19.1404C19.6547 19.1732 19.589 19.1889 19.5241 19.1889C19.3797 19.1889 19.24 19.1114 19.1668 18.9754L18.3395 17.4365C17.9425 17.5779 17.5155 17.6555 17.0705 17.6555H5.3697C4.98917 17.6555 4.62182 17.5986 4.27504 17.4939L3.47852 18.9754C3.40535 19.1115 3.26551 19.1889 3.1212 19.1889C3.05634 19.1889 2.99068 19.1733 2.92957 19.1404C2.73237 19.0343 2.65849 18.7886 2.76449 18.5914L3.52574 17.1755C2.3639 16.5263 1.57609 15.2846 1.57609 13.8618V11.1816H0.900471C0.676614 11.1816 0.495117 11.0001 0.495117 10.7763C0.495117 10.5524 0.676614 10.3709 0.900471 10.3709H1.98145H20.4588H21.5398C21.7636 10.371 21.9451 10.5525 21.9451 10.7764ZM0.900471 6.95215H5.26643C5.62963 6.95215 5.92513 7.24765 5.92513 7.61085V8.47223C5.92513 8.69608 6.10663 8.87758 6.33049 8.87758C6.55434 8.87758 6.73584 8.69608 6.73584 8.47223V7.61085C6.73584 6.80065 6.07664 6.14144 5.26643 6.14144H0.900471C0.676614 6.14144 0.495117 6.32294 0.495117 6.5468C0.495117 6.77065 0.676614 6.95215 0.900471 6.95215ZM1.4325 5.7146H2.12494C2.3488 5.7146 2.5303 5.53311 2.5303 5.30925V4.2452C2.5303 4.02134 2.3488 3.83984 2.12494 3.83984H1.4325C0.91557 3.83984 0.495117 4.2603 0.495117 4.77722C0.495117 5.29415 0.91557 5.7146 1.4325 5.7146Z" fill="#C6A45A"/>
</g>
<defs>
<clipPath id="clip0_51_7591">
<rect width="21.45" height="21.45" fill="white" transform="translate(0.495117 0.789062)"/>
</clipPath>
</defs>
</svg>
