<svg width="28" height="28" viewBox="0 0 28 28" fill="none" xmlns="http://www.w3.org/2000/svg">
<path d="M24.8558 3.65059C24.2933 3.07571 23.4608 2.86309 22.6846 3.08809L4.58335 8.31821C3.76435 8.54546 3.18385 9.19459 3.02747 10.0181C2.86772 10.8573 3.42572 11.9238 4.15472 12.3693L9.8146 15.8253C10.3951 16.1808 11.1443 16.092 11.6247 15.6105L18.1058 9.12934C18.4321 8.79071 18.9721 8.79071 19.2983 9.12934C19.6246 9.45446 19.6246 9.98434 19.2983 10.3218L12.806 16.803C12.3245 17.2845 12.2345 18.0315 12.5888 18.6131L16.0471 24.2943C16.4521 24.9682 17.1496 25.3518 17.9146 25.3518C18.0046 25.3518 18.1058 25.3518 18.1958 25.3395C19.0733 25.2281 19.7708 24.6307 20.0296 23.787L25.3958 5.82184C25.6321 5.05684 25.4183 4.22434 24.8558 3.65059Z" fill="#353635"/>
<path opacity="0.4" d="M11.3834 22.2849C11.7119 22.6145 11.7119 23.1489 11.3834 23.4785L9.84668 25.0141C9.68243 25.1795 9.46643 25.2616 9.25043 25.2616C9.03443 25.2616 8.81843 25.1795 8.65418 25.0141C8.32455 24.6845 8.32455 24.1512 8.65418 23.8216L10.1898 22.2849C10.5194 21.9564 11.0538 21.9564 11.3834 22.2849ZM10.5018 18.0234C10.8303 18.353 10.8303 18.8874 10.5018 19.217L8.96501 20.7526C8.80076 20.918 8.58476 21.0001 8.36876 21.0001C8.15276 21.0001 7.93676 20.918 7.77251 20.7526C7.44289 20.423 7.44289 19.8897 7.77251 19.5601L9.30814 18.0234C9.63776 17.6949 10.1721 17.6949 10.5018 18.0234ZM6.27041 16.6819C6.59891 17.0115 6.59891 17.5459 6.27041 17.8755L4.73366 19.4112C4.56941 19.5765 4.35341 19.6587 4.13741 19.6587C3.92141 19.6587 3.70541 19.5765 3.54116 19.4112C3.21154 19.0815 3.21154 18.5483 3.54116 18.2187L5.07679 16.6819C5.40641 16.3534 5.94079 16.3534 6.27041 16.6819Z" fill="#353635"/>
</svg>
