<svg width="31" height="31" viewBox="0 0 31 31" fill="none" xmlns="http://www.w3.org/2000/svg">
<path d="M7.34649 10.7419C6.97525 11.1028 6.96689 11.6964 7.32782 12.0676C7.68874 12.4388 8.28228 12.4472 8.65352 12.0863L7.34649 10.7419ZM12.5 7.03909H13.4375C13.4375 6.6623 13.2119 6.32214 12.8649 6.1755C12.5178 6.02886 12.1166 6.10426 11.8465 6.3669L12.5 7.03909ZM11.5625 24.5391C11.5625 25.0568 11.9822 25.4766 12.5 25.4766C13.0178 25.4766 13.4375 25.0568 13.4375 24.5391H11.5625ZM23.6535 20.8362C24.0248 20.4753 24.0331 19.8818 23.6721 19.5106C23.3113 19.1393 22.7178 19.131 22.3465 19.492L23.6535 20.8362ZM18.5 24.5391H17.5625C17.5625 24.9158 17.7881 25.2561 18.1351 25.4027C18.4823 25.5493 18.8834 25.474 19.1535 25.2112L18.5 24.5391ZM19.4375 7.03909C19.4375 6.52132 19.0178 6.10159 18.5 6.10159C17.9823 6.10159 17.5625 6.52132 17.5625 7.03909H19.4375ZM8.65352 12.0863L13.1535 7.71127L11.8465 6.3669L7.34649 10.7419L8.65352 12.0863ZM11.5625 7.03909V24.5391H13.4375V7.03909H11.5625ZM22.3465 19.492L17.8465 23.867L19.1535 25.2112L23.6535 20.8362L22.3465 19.492ZM19.4375 24.5391V7.03909H17.5625V24.5391H19.4375Z" fill="#353635"/>
</svg>
