<svg width="49" height="48" viewBox="0 0 49 48" fill="none" xmlns="http://www.w3.org/2000/svg">
<path d="M37.0003 16.7998L34.3003 17.2498L36.1003 14.9998L32.9503 15.8998C28.9003 11.3998 22.6003 16.3498 24.4003 20.3998C17.2003 20.3998 13.6003 14.9998 13.6003 14.9998C13.6003 14.9998 10.9003 19.0498 15.4003 22.1998L12.7003 21.2998C12.7003 23.9998 14.5003 25.7998 17.6503 26.6998H14.5003C16.3003 30.2998 19.4503 30.2998 19.4503 30.2998C19.4503 30.2998 16.7503 32.5498 11.8003 32.5498C26.6503 39.7498 35.6503 26.2498 34.3003 19.0498L37.0003 16.7998Z" fill="#353635"/>
<circle cx="24.4004" cy="24" r="23.4" stroke="#C6A45A" stroke-width="1.2"/>
</svg>
