<svg width="28" height="28" viewBox="0 0 28 28" fill="none" xmlns="http://www.w3.org/2000/svg">
<g clip-path="url(#clip0_51_8019)">
<path d="M14.8438 0.5C7.84062 0.5 2.1875 6.15312 2.1875 13.1562C2.1875 16.025 3.11562 18.725 4.8875 20.9188L3.11562 26.3188C3.03125 26.6562 3.11563 26.9938 3.36875 27.2469C3.45313 27.4156 3.70625 27.5 3.875 27.5C3.95938 27.5 4.12813 27.5 4.2125 27.4156L10.0344 24.8C11.5531 25.475 13.1562 25.8125 14.8438 25.8125C21.8469 25.8125 27.5 20.1594 27.5 13.1562C27.5 6.15312 21.8469 0.5 14.8438 0.5Z" fill="white"/>
<path d="M22.1844 17.7969C21.8469 18.8094 20.5813 19.6531 19.4844 19.8219C19.2313 19.9062 18.9781 19.9062 18.6406 19.9062C17.9656 19.9062 16.9531 19.7375 15.1813 18.9781C13.1563 18.1344 11.1313 16.3625 9.52813 14.0844V14C9.02188 13.2406 8.09375 11.8063 8.09375 10.2875C8.09375 8.43125 9.02188 7.50313 9.35938 7.08125C9.78125 6.65938 10.3719 6.40625 11.0469 6.40625C11.2156 6.40625 11.3 6.40625 11.4688 6.40625C12.0594 6.40625 12.4813 6.575 12.9031 7.41875L13.2406 8.09375C13.4938 8.76875 13.8313 9.52813 13.9156 9.6125C14.1688 10.1188 14.1688 10.5406 13.9156 10.9625C13.8313 11.2156 13.6625 11.3844 13.4938 11.5531C13.4094 11.7219 13.325 11.8062 13.2406 11.8062C13.1563 11.8906 13.1563 11.8906 13.0719 11.975C13.325 12.3969 13.8313 13.1562 14.5063 13.7469C15.5188 14.675 16.2781 14.9281 16.7 15.0969C16.8688 14.9281 17.0375 14.5906 17.2906 14.3375L17.375 14.1688C17.7969 13.5781 18.4719 13.4094 19.1469 13.6625C19.4844 13.8313 21.3406 14.675 21.3406 14.675L21.5094 14.7594C21.7625 14.9281 22.1 15.0125 22.2688 15.35C22.6063 16.1094 22.3531 17.2063 22.1844 17.7969Z" fill="#C6A45A"/>
</g>
<defs>
<clipPath id="clip0_51_8019">
<rect width="27" height="27" fill="white" transform="translate(0.5 0.5)"/>
</clipPath>
</defs>
</svg>
