<svg width="35" height="35" viewBox="0 0 35 35" fill="none" xmlns="http://www.w3.org/2000/svg">
<g clip-path="url(#clip0_51_7451)">
<path d="M18.5781 0.25C9.62969 0.25 2.40625 7.47344 2.40625 16.4219C2.40625 20.0875 3.59219 23.5375 5.85625 26.3406L3.59219 33.2406C3.48437 33.6719 3.59219 34.1031 3.91563 34.4266C4.02344 34.6422 4.34687 34.75 4.5625 34.75C4.67031 34.75 4.88594 34.75 4.99375 34.6422L12.4328 31.3C14.3734 32.1625 16.4219 32.5938 18.5781 32.5938C27.5266 32.5938 34.75 25.3703 34.75 16.4219C34.75 7.47344 27.5266 0.25 18.5781 0.25Z" fill="#25D366"/>
<path d="M27.9578 22.3516C27.5266 23.6453 25.9094 24.7234 24.5078 24.9391C24.1844 25.0469 23.8609 25.0469 23.4297 25.0469C22.5672 25.0469 21.2734 24.8312 19.0094 23.8609C16.4219 22.7828 13.8344 20.5188 11.7859 17.6078V17.5C11.1391 16.5297 9.95312 14.6969 9.95312 12.7563C9.95312 10.3844 11.1391 9.19844 11.5703 8.65938C12.1094 8.12031 12.8641 7.79688 13.7266 7.79688C13.9422 7.79688 14.05 7.79688 14.2656 7.79688C15.0203 7.79688 15.5594 8.0125 16.0984 9.09062L16.5297 9.95312C16.8531 10.8156 17.2844 11.7859 17.3922 11.8938C17.7156 12.5406 17.7156 13.0797 17.3922 13.6187C17.2844 13.9422 17.0688 14.1578 16.8531 14.3734C16.7453 14.5891 16.6375 14.6969 16.5297 14.6969C16.4219 14.8047 16.4219 14.8047 16.3141 14.9125C16.6375 15.4516 17.2844 16.4219 18.1469 17.1766C19.4406 18.3625 20.4109 18.6859 20.95 18.9016C21.1656 18.6859 21.3813 18.2547 21.7047 17.9312L21.8125 17.7156C22.3516 16.9609 23.2141 16.7453 24.0766 17.0688C24.5078 17.2844 26.8797 18.3625 26.8797 18.3625L27.0953 18.4703C27.4188 18.6859 27.85 18.7938 28.0656 19.225C28.4969 20.1953 28.1734 21.5969 27.9578 22.3516Z" fill="white"/>
</g>
<defs>
<clipPath id="clip0_51_7451">
<rect width="34.5" height="34.5" fill="white" transform="translate(0.25 0.25)"/>
</clipPath>
</defs>
</svg>
